<svg width="35" height="35" viewBox="0 0 35 35" fill="none" xmlns="http://www.w3.org/2000/svg">
<g clip-path="url(#clip0)">
<path d="M15.1078 27.888C13.6989 27.4795 12.3403 26.8066 11.1726 25.9465C10.384 25.3654 9.66066 24.6901 9.01792 23.9293C8.4107 23.2102 7.85715 22.3792 7.42883 21.5386C7.19652 21.0828 6.99251 20.6123 6.8184 20.1311C6.46112 19.145 6.23014 18.1143 6.1284 17.0704C5.9284 15.0205 6.23895 12.9435 7.02402 11.0548C7.10653 11.0391 7.13376 11.0337 7.16634 11.0241C7.54606 10.9109 7.90815 10.721 8.21336 10.4756C9.01712 9.82888 9.46493 8.90015 9.474 7.86034C9.48228 6.93135 9.13087 5.95509 8.51003 5.18204C8.37358 5.01221 8.14474 4.94706 7.93939 5.01942C7.00399 5.34867 6.19062 5.99248 5.70756 6.78635C5.1671 7.67449 5.05762 8.69988 5.39941 9.6732C5.52919 10.0428 5.73667 10.395 5.99969 10.6916C6.01278 10.7063 6.02506 10.7189 6.04482 10.7373C5.8806 11.1395 5.7364 11.5488 5.61223 11.9646C5.23759 11.3902 4.69446 10.9464 4.02528 10.6796C3.16224 10.336 2.1251 10.3103 1.17982 10.6094C0.972074 10.6751 0.828413 10.865 0.82147 11.0826C0.78996 12.0735 1.09624 13.065 1.66128 13.8023C2.2936 14.6277 3.21004 15.1008 4.24104 15.1345C4.27282 15.1353 4.30459 15.1358 4.33637 15.1358C4.58017 15.1358 4.8269 15.1051 5.06669 15.0466C5.03305 15.6093 5.03465 16.1746 5.0715 16.7391C4.42022 16.2277 3.61726 15.9804 2.7609 16.0373C1.83378 16.099 0.886892 16.523 0.16271 17.2002C0.00356041 17.3492 -0.0442378 17.5823 0.0433477 17.7815C0.442289 18.6894 1.14564 19.4521 1.97343 19.874C2.4685 20.1263 2.99348 20.2529 3.519 20.2529C3.97695 20.2529 4.43544 20.1568 4.87523 19.964C5.11609 19.8585 5.34574 19.718 5.55456 19.5517C5.73987 20.2091 5.97433 20.8494 6.25604 21.4687C5.65069 21.3213 5.01275 21.3477 4.38951 21.5547C3.50751 21.847 2.69735 22.4949 2.16649 23.3323C2.0498 23.5162 2.06209 23.7539 2.19667 23.9248C2.81057 24.7035 3.68295 25.2653 4.59005 25.4658C4.84506 25.5222 5.09954 25.5502 5.35055 25.5502C6.09823 25.5502 6.81467 25.3024 7.42162 24.8247C7.62483 24.665 7.80908 24.4751 7.9677 24.2661C8.05475 24.3758 8.14313 24.4845 8.23366 24.5918C8.56851 24.9881 8.92339 25.3627 9.29643 25.715C8.73968 25.8082 8.21016 26.0437 7.74339 26.4156C7.01654 26.9943 6.47981 27.8822 6.27046 28.8512C6.22453 29.0643 6.31799 29.283 6.50358 29.397C7.19598 29.8224 8.00081 30.051 8.77546 30.051C8.94609 30.051 9.11539 30.0398 9.28174 30.0173C10.3119 29.8777 11.1774 29.3169 11.7178 28.4384C11.8546 28.2165 11.9627 27.9724 12.0394 27.7193C12.9155 28.2037 13.8474 28.5917 14.8218 28.8744C14.8696 28.8881 14.9177 28.8947 14.9652 28.8947C15.1876 28.8947 15.3927 28.7489 15.4579 28.5244C15.5369 28.252 15.3801 27.9671 15.1078 27.888ZM6.24616 8.39493C6.26779 8.09853 6.34416 7.80667 6.46806 7.5367C6.75966 6.90117 7.30333 6.42106 7.93138 6.12946C8.84035 7.51614 8.45662 8.9621 7.56982 9.6756C7.35086 9.85184 6.99144 10.1296 6.71853 9.95599C6.26592 9.66813 6.21198 8.86811 6.24616 8.39493ZM5.0189 18.3426C5.01462 18.3954 5.00448 18.4459 4.98899 18.494C4.90995 18.7396 4.69499 18.922 4.46294 19.0238C3.42019 19.4804 1.96088 19.1527 1.15098 17.706C1.10586 17.6251 2.0239 17.2408 2.11683 17.212C2.49334 17.0945 2.89415 17.0421 3.28775 17.0776C3.6728 17.1124 4.05145 17.2328 4.36948 17.4563C4.64319 17.6486 5.04774 17.9778 5.0189 18.3426ZM4.7289 14.0709C4.58444 14.1083 4.42262 14.1131 4.27415 14.108C3.13661 14.0712 1.96061 13.1464 1.85327 11.4917C3.47547 11.1456 4.68431 12.0271 5.02851 13.1117C5.16282 13.5344 5.23225 13.9406 4.7289 14.0709ZM7.2598 23.4311C7.22295 23.6652 6.96046 23.8813 6.78689 24.0177C5.89235 24.7216 4.39725 24.771 3.24983 23.5737C3.68188 23.0188 4.28323 22.5929 4.98071 22.4577C5.58153 22.3416 7.07902 22.5395 7.25553 23.3024C7.26568 23.3456 7.26648 23.3886 7.2598 23.4311ZM10.8436 27.9001C10.2471 28.8694 8.86091 29.4317 7.37089 28.7038C7.61014 27.9548 8.11777 27.3065 8.83874 26.9721C9.32901 26.7449 10.434 26.4808 10.9085 26.8699C11.0233 26.9641 11.0778 27.0709 11.0927 27.1834C11.124 27.4215 10.9766 27.6843 10.8436 27.9001Z" fill="#FFC582"/>
<path d="M22.5853 24.3704C22.8315 24.1917 22.9525 23.8943 22.9012 23.5941L22.0894 18.8621L25.5277 15.5106C25.7456 15.2983 25.8225 14.9867 25.7285 14.6973C25.6345 14.4078 25.3891 14.2006 25.0879 14.1571L20.3364 13.4665L18.2116 9.16122C18.0768 8.88831 17.8041 8.71875 17.4997 8.71875C17.1956 8.71875 16.9227 8.88831 16.7881 9.16122L15.9146 10.9308C15.7891 11.185 15.8935 11.4929 16.1478 11.6184C16.4022 11.7439 16.7099 11.6395 16.8354 11.3853L17.4997 10.0387L19.4699 14.0308C19.5855 14.2649 19.809 14.4273 20.0675 14.4649L24.4729 15.105L21.2849 18.2124C21.0979 18.3948 21.0128 18.6573 21.0568 18.9147L21.8093 23.3025L17.869 21.2309C17.6378 21.1092 17.3617 21.1092 17.1304 21.2309L13.1901 23.3025L13.9426 18.915C13.987 18.6576 13.9015 18.3948 13.7143 18.2124L10.5265 15.105L14.932 14.4649C15.1905 14.4273 15.414 14.2649 15.5296 14.0308L15.7785 13.5266C15.904 13.2721 15.7996 12.9645 15.5453 12.839C15.2911 12.7135 14.9832 12.8179 14.8577 13.0721L14.6631 13.4665L9.91183 14.1568C9.61062 14.2006 9.36522 14.4075 9.27123 14.697C9.17697 14.9865 9.25414 15.2981 9.47177 15.5106L12.91 18.8618L12.0985 23.5941C12.047 23.894 12.168 24.1915 12.4142 24.3704C12.5533 24.4713 12.7159 24.5229 12.8799 24.5229C13.0062 24.5229 13.1327 24.4924 13.25 24.4307L17.4997 22.1965L21.7495 24.4307C22.0189 24.5725 22.3391 24.5493 22.5853 24.3704Z" fill="#FFC582"/>
<path d="M15.5908 7.00744C15.6282 7.26272 15.8477 7.44617 16.0979 7.44617C16.1227 7.44617 16.1481 7.4443 16.1732 7.44057C16.4538 7.39944 16.6477 7.13856 16.6066 6.85818L16.4047 5.48752C16.3636 5.20687 16.1024 5.01301 15.822 5.0544C15.5417 5.09552 15.3478 5.3564 15.3889 5.63679L15.5908 7.00744Z" fill="#FFC582"/>
<path d="M13.2387 8.51432C13.3359 8.67133 13.5039 8.75758 13.6759 8.75758C13.768 8.75758 13.8615 8.73275 13.9456 8.68067C14.1864 8.5314 14.2609 8.21497 14.1119 7.97385L13.4184 6.85366C13.2692 6.61253 12.9527 6.53803 12.7116 6.6873C12.4705 6.83657 12.3963 7.15273 12.5455 7.39386L13.2387 8.51432Z" fill="#FFC582"/>
<path d="M18.9061 7.44057C18.9315 7.4443 18.9566 7.44617 18.9817 7.44617C19.2319 7.44617 19.4511 7.26272 19.4888 7.00744L19.6904 5.63679C19.7317 5.3564 19.5379 5.09552 19.2572 5.0544C18.9774 5.01301 18.716 5.20687 18.6746 5.48752L18.473 6.85818C18.4316 7.13856 18.6254 7.39944 18.9061 7.44057Z" fill="#FFC582"/>
<path d="M21.1339 8.68068C21.218 8.73275 21.3112 8.75759 21.4036 8.75759C21.5753 8.75759 21.7433 8.67134 21.8405 8.51432L22.534 7.39387C22.6832 7.15274 22.6087 6.83658 22.3679 6.68731C22.127 6.53804 21.8103 6.61254 21.661 6.8534L20.9676 7.97386C20.8183 8.21498 20.8928 8.53141 21.1339 8.68068Z" fill="#FFC582"/>
<path d="M34.8375 17.2005C34.1133 16.523 33.1664 16.0992 32.2393 16.0376C31.3821 15.9804 30.5794 16.228 29.9284 16.739C29.9655 16.1745 29.9669 15.6092 29.9335 15.0469C30.173 15.1054 30.4198 15.1361 30.6636 15.1361C30.6956 15.1361 30.7274 15.1355 30.7592 15.1345C31.7901 15.1008 32.7063 14.6279 33.3389 13.8025C33.904 13.065 34.2102 12.0738 34.1787 11.0826C34.1718 10.8649 34.0281 10.6754 33.8204 10.6097C32.8751 10.3103 31.8379 10.336 30.9749 10.6799C30.3057 10.9464 29.7626 11.3902 29.388 11.9646C29.2638 11.5491 29.1193 11.1395 28.9554 10.7376C28.9751 10.7189 28.9877 10.7063 29.0005 10.6916C29.2635 10.395 29.471 10.0428 29.6008 9.6732C29.9426 8.69988 29.8331 7.67475 29.2926 6.78635C28.8096 5.99274 27.9959 5.34866 27.0608 5.01942C26.8555 4.94705 26.6266 5.01221 26.4902 5.1823C25.869 5.95509 25.5179 6.93134 25.5262 7.86034C25.5353 8.90015 25.9831 9.82914 26.7868 10.4756C27.092 10.7213 27.4541 10.9111 27.8336 11.0244C27.8664 11.034 27.8937 11.0393 27.9762 11.0548C28.7612 12.9438 29.0718 15.0207 28.8718 17.0704C28.6787 19.0483 28.0314 20.9223 26.9807 22.5723C26.6854 23.0359 26.3441 23.501 25.9823 23.9293C25.5334 24.4607 25.041 24.9553 24.5109 25.4055C24.0928 25.7609 23.6757 26.1008 23.2052 26.3812C22.7405 26.6578 22.266 26.9409 21.7776 27.1727C21.1699 27.4613 20.5386 27.7008 19.8924 27.8883C19.62 27.9673 19.4633 28.252 19.5423 28.5244C19.6075 28.7489 19.8126 28.8947 20.035 28.8947C20.0825 28.8947 20.1306 28.8881 20.1784 28.8744C21.1528 28.5917 22.0847 28.2037 22.9608 27.7193C23.0375 27.9727 23.1456 28.2165 23.2823 28.4384C23.5956 28.9476 24.0103 29.3468 24.5147 29.6245C24.763 29.7612 25.0752 29.671 25.2122 29.4227C25.3489 29.1743 25.2584 28.8622 25.01 28.7254C24.6631 28.5342 24.3758 28.2565 24.1566 27.9003C23.9075 27.4955 23.8268 27.0456 24.3379 26.845C25.7689 26.2843 27.1972 27.3532 27.6285 28.7017C27.4021 28.8093 27.1657 28.891 26.9222 28.9463C26.6458 29.0088 26.4725 29.2838 26.535 29.5602C26.5892 29.7986 26.8007 29.9602 27.0352 29.9602C27.0728 29.9602 27.111 29.9562 27.1492 29.9474C27.6237 29.84 28.0771 29.6547 28.4966 29.397C28.6822 29.283 28.7757 29.0643 28.7297 28.8515C28.5206 27.8822 27.9837 26.9943 27.2568 26.4156C26.79 26.0439 26.2608 25.8081 25.7038 25.715C26.0768 25.3627 26.4319 24.9881 26.7665 24.5921C26.8573 24.4848 26.9457 24.3758 27.0328 24.2661C27.1911 24.4754 27.3756 24.665 27.5786 24.8249C28.1855 25.3027 28.902 25.5502 29.6499 25.5502C29.9007 25.5502 30.1551 25.5224 30.4101 25.4658C31.3172 25.2653 32.1896 24.7035 32.8035 23.9251C32.9384 23.7539 32.9504 23.5162 32.834 23.3323C32.3028 22.4949 31.4927 21.847 30.6107 21.5546C29.9874 21.3477 29.3495 21.3215 28.7441 21.4687C29.0259 20.8494 29.2603 20.2091 29.4456 19.5517C29.6545 19.7183 29.8844 19.8587 30.125 19.9642C30.565 20.157 31.0232 20.2529 31.4812 20.2529C32.0067 20.2529 32.5317 20.1263 33.0268 19.874C33.8546 19.4521 34.5582 18.6894 34.9568 17.7815C35.0442 17.5823 34.9964 17.3492 34.8375 17.2005ZM28.715 9.03019C28.6496 9.35597 28.5749 9.90444 28.161 9.96639C27.8728 10.0097 27.6443 9.8481 27.4301 9.67587C26.5436 8.9621 26.1596 7.5164 27.0688 6.12972C27.1446 6.01383 28.068 6.84055 28.1484 6.93562C28.3997 7.23335 28.5861 7.58503 28.683 7.96288C28.7722 8.31055 28.7855 8.67798 28.715 9.03019ZM31.7501 23.5739C30.6029 24.7713 29.1078 24.7219 28.2133 24.018C28.0138 23.861 27.8403 23.6604 27.7102 23.4359C27.7035 23.4212 27.6939 23.3993 27.6832 23.3747C27.727 23.309 27.7703 23.2428 27.813 23.1766C27.9473 23.018 28.1051 22.8791 28.2774 22.7702C29.2392 22.1616 30.7316 22.2655 31.7501 23.5739ZM29.9714 13.112C30.3159 12.0271 31.5245 11.1461 33.1467 11.4919C33.0396 13.1467 31.8633 14.0714 30.7258 14.1083C30.4513 14.1176 30.0096 14.1206 29.8905 13.8172C29.8056 13.6009 29.9055 13.3205 29.9714 13.112ZM30.537 19.024C30.3089 18.9239 30.0328 18.8034 29.9231 18.5634C29.6838 18.0408 30.482 17.5719 30.8227 17.3775C31.1004 17.2189 31.4096 17.1174 31.7263 17.0766C32.4898 16.978 33.2465 17.2429 33.8492 17.7062C33.039 19.1533 31.5795 19.4806 30.537 19.024Z" fill="#FFC582"/>
</g>
<defs>
<clipPath id="clip0">
<rect width="35" height="35" fill="white"/>
</clipPath>
</defs>
</svg>
