<svg width="34" height="34" viewBox="0 0 34 34" fill="none" xmlns="http://www.w3.org/2000/svg">
<path d="M25.2166 23.2335V17.5668C25.2136 14.7514 22.932 12.4698 20.1166 12.4668H11.05C8.2346 12.4698 5.95299 14.7514 5.94995 17.5668V24.9335H7.08328V17.5668C7.08577 15.3771 8.86021 13.6026 11.05 13.6001H11.9486L15.1826 16.8341C15.404 17.0552 15.7626 17.0552 15.9839 16.8341L19.2179 13.6001H20.1166C22.3064 13.6026 24.0808 15.3771 24.0833 17.5668V23.2335H25.2166ZM15.5833 15.6322L13.5513 13.6001H17.6153L15.5833 15.6322Z" fill="#FFC582"/>
<path d="M9.91663 18.7002H11.05V23.8002H9.91663V18.7002Z" fill="#FFC582"/>
<path d="M20.1167 18.7002H21.25V22.6669H20.1167V18.7002Z" fill="#FFC582"/>
<path d="M32.0167 24.9331H24.79C23.541 24.2493 22.144 23.8816 20.7201 23.862C20.6772 23.8581 20.6324 23.8564 20.5926 23.8564C19.1258 23.8564 17.6823 24.2242 16.3943 24.9261L12.1833 24.9331C10.9316 24.9331 9.91665 25.948 9.91665 27.1997C9.9161 27.2445 9.91887 27.2894 9.92468 27.3339C9.93298 27.4894 9.95788 27.6433 9.99828 27.7935L6.80386 26.3298L6.75239 26.3043L4.84432 25.4328C4.09587 25.0883 3.22318 25.1492 2.52951 25.5938C1.83556 26.0387 1.4161 26.8063 1.41665 27.6303V27.755C1.4125 28.6723 1.93213 29.5112 2.75501 29.9163L10.0821 33.5855C10.6336 33.8575 11.2398 33.9992 11.8546 33.9997H32.0167C32.3296 33.9997 32.5833 33.746 32.5833 33.4331V25.4997C32.5833 25.1868 32.3296 24.9331 32.0167 24.9331ZM24.0833 32.8664H11.8546C11.4141 32.8656 10.9794 32.764 10.5843 32.5695L3.26053 28.8997C2.82446 28.6853 2.5486 28.2412 2.54998 27.755V27.6303C2.54998 27.1925 2.77272 26.785 3.14155 26.5487C3.51011 26.3124 3.97357 26.2803 4.37118 26.4632L6.26348 27.3273L6.31439 27.3522L10.8131 29.4149C10.8876 29.449 10.9684 29.4664 11.05 29.4664H17.2833V28.3331H12.1833C11.5779 28.3339 11.0799 27.8563 11.0552 27.2512C11.0544 27.2324 11.0528 27.2133 11.05 27.1947C11.0528 26.5708 11.5594 26.0664 12.1833 26.0664H16.5296C16.6267 26.0664 16.7222 26.0415 16.8069 25.9939L16.9427 25.9173C18.0578 25.3116 19.3057 24.9912 20.5746 24.9845C20.6089 24.9914 20.6438 24.995 20.6789 24.9953C21.864 25.0067 23.0302 25.2958 24.0833 25.8398V32.8664ZM31.45 32.8664H25.2167V26.0664H31.45V32.8664Z" fill="#FFC582"/>
<path d="M26.35 30.5996H27.4833V31.7329H26.35V30.5996Z" fill="#FFC582"/>
<path d="M15.5834 11.3333C18.0861 11.3306 20.1139 9.30241 20.1167 6.8V4.53333C20.1167 2.02954 18.0872 0 15.5834 0C13.0796 0 11.05 2.02954 11.05 4.53333V6.8C11.0528 9.30241 13.081 11.3306 15.5834 11.3333ZM12.1834 4.53333C12.1834 2.6557 13.7057 1.13333 15.5834 1.13333C17.4613 1.13333 18.9834 2.6557 18.9834 4.53333V6.8C18.9834 8.67764 17.4613 10.2 15.5834 10.2C13.7057 10.2 12.1834 8.67764 12.1834 6.8V4.53333Z" fill="#FFC582"/>
<path d="M14.45 4.53338C14.4511 4.05332 14.7535 3.62555 15.2059 3.46452L14.8274 2.39648C13.9229 2.718 13.318 3.57326 13.3167 4.53338V5.10005H14.45V4.53338Z" fill="#FFC582"/>
</svg>
