<svg width="21" height="21" viewBox="0 0 21 21" fill="none" xmlns="http://www.w3.org/2000/svg">
<g clip-path="url(#clip0)">
<path d="M21.047 17.3565H20.755C20.758 17.3153 20.758 17.2739 20.755 17.2327V1.64291C20.755 1.16458 20.3672 0.776812 19.8889 0.776812H11.4258C10.9475 0.776812 10.5597 1.16458 10.5597 1.64291V8.07681C9.75395 8.27231 9.04882 8.75881 8.58007 9.44278C8.00523 10.271 7.82756 11.3116 8.09506 12.2836C8.4514 13.6496 8.49594 15.4609 7.75851 16.2132C7.33394 16.5895 6.7367 16.7018 6.20448 16.5052C5.63199 16.4146 5.1432 16.0428 4.90285 15.5154C4.11594 13.6991 6.08075 10.2643 6.0857 10.2495C6.20448 10.0713 8.94136 5.82 6.14509 3.32068C6.03126 3.2019 3.33397 0.351185 1.25038 0.628338C1.03855 0.655682 0.888966 0.849565 0.91631 1.06139C0.943654 1.27321 1.13754 1.4228 1.34936 1.39546C1.85009 1.36539 2.34921 1.47687 2.78956 1.71715L2.23526 2.38529C1.93485 2.75753 1.99312 3.3028 2.36536 3.60321C2.37142 3.6081 2.37755 3.61292 2.38373 3.61763L4.24462 5.10237C4.39761 5.22499 4.58803 5.29137 4.78407 5.29044H4.85831C5.08647 5.2647 5.29495 5.14889 5.43736 4.96875L5.97682 4.29071C7.64963 6.42875 5.4819 9.83376 5.42746 9.8882C5.33838 10.0416 3.25973 13.6793 4.19018 15.8272C4.53414 16.573 5.22572 17.0996 6.03621 17.2327C6.28583 17.2933 6.54158 17.3248 6.79838 17.3268C7.3533 17.3435 7.89053 17.1304 8.28313 16.7378C9.27296 15.7035 9.19377 13.5951 8.80774 12.1005C8.39714 10.7246 9.17583 9.27562 10.5498 8.85878V17.2327C10.5469 17.2739 10.5469 17.3153 10.5498 17.3565H10.3024C9.82417 17.3455 9.42762 17.7243 9.41673 18.2025C9.41654 18.2092 9.41648 18.2159 9.41648 18.2226V19.5242C9.41636 20.0025 9.804 20.3904 10.2823 20.3906C10.289 20.3906 10.2957 20.3905 10.3024 20.3903H21.047C21.5253 20.3903 21.9131 20.0025 21.9131 19.5242V18.2226C21.9131 17.7443 21.5253 17.3565 21.047 17.3565ZM5.40767 3.83044L4.85831 4.50847C4.83734 4.53396 4.80703 4.54998 4.77418 4.55302C4.74238 4.55716 4.71021 4.54819 4.68509 4.52827L2.82421 3.04352C2.77707 2.99539 2.77707 2.91843 2.82421 2.8703L3.37356 2.18732C3.39454 2.16183 3.42485 2.14581 3.4577 2.14278C3.4895 2.13863 3.52167 2.1476 3.54679 2.16752L5.40767 3.65227C5.43359 3.67287 5.44974 3.70337 5.45221 3.73641C5.4519 3.77278 5.43563 3.80718 5.40767 3.83044ZM11.2922 1.64291C11.2922 1.57455 11.3476 1.51919 11.4159 1.51919H19.8988C19.9671 1.51919 20.0225 1.57455 20.0225 1.64291V17.2327C20.0225 17.3011 19.9671 17.3565 19.8988 17.3565H11.4258C11.3577 17.3619 11.2981 17.3111 11.2926 17.243C11.2923 17.2396 11.2921 17.2361 11.2922 17.2327V1.64291ZM21.1905 19.5242C21.1905 19.5926 21.1351 19.6479 21.0668 19.6479H10.3024C10.234 19.6479 10.1787 19.5926 10.1787 19.5242V18.2226C10.1787 18.1542 10.234 18.0988 10.3024 18.0988H21.047C21.1144 18.0879 21.178 18.1337 21.1889 18.2012C21.1901 18.2082 21.1906 18.2154 21.1905 18.2226V19.5242Z" fill="#FFC582"/>
<path d="M18.221 2.69727H13.0936C12.6153 2.69727 12.2275 3.08503 12.2275 3.56337V8.69564C12.2275 9.17397 12.6153 9.56174 13.0936 9.56174H18.221C18.6993 9.56174 19.0871 9.17397 19.0871 8.69564V3.56337C19.0871 3.08509 18.6993 2.69727 18.221 2.69727ZM18.3447 8.70059C18.342 8.76697 18.2874 8.81943 18.221 8.81937H13.0936C13.0253 8.81937 12.9699 8.764 12.9699 8.69564V3.56337C12.9699 3.49501 13.0253 3.43964 13.0936 3.43964H18.221C18.2893 3.43964 18.3447 3.49501 18.3447 3.56337V8.70059Z" fill="#FFC582"/>
<path d="M17.642 10.9619H13.6827C13.4777 10.9619 13.3115 11.1281 13.3115 11.3331C13.3115 11.5381 13.4777 11.7043 13.6827 11.7043H17.642C17.847 11.7043 18.0132 11.5381 18.0132 11.3331C18.0132 11.1281 17.847 10.9619 17.642 10.9619Z" fill="#FFC582"/>
</g>
<defs>
<clipPath id="clip0">
<rect width="21" height="21" fill="white"/>
</clipPath>
</defs>
</svg>
