<svg width="21" height="21" viewBox="0 0 21 21" fill="none" xmlns="http://www.w3.org/2000/svg">
<g clip-path="url(#clip0)">
<path d="M17.8432 7.01758C17.843 7.01758 17.8427 7.01758 17.8425 7.01758H0.300667C0.134809 7.0174 0.00017559 7.15169 1.71671e-07 7.31754C1.71671e-07 7.31776 1.71671e-07 7.31803 1.71671e-07 7.31824V15.7383C-0.000175246 15.9042 0.134107 16.0388 0.299965 16.039C0.300184 16.039 0.300447 16.039 0.300667 16.039H12.2291C12.3951 16.039 12.5298 15.9043 12.5298 15.7383C12.5298 15.5723 12.3951 15.4376 12.2291 15.4376H0.601333V7.61891H17.5418V8.37075C17.5416 8.53661 17.6759 8.67124 17.8418 8.67142C17.842 8.67142 17.8423 8.67142 17.8425 8.67142C18.0083 8.6716 18.143 8.53731 18.1431 8.37146C18.1431 8.37124 18.1431 8.37097 18.1431 8.37075V7.31824C18.1433 7.15239 18.009 7.0178 17.8432 7.01758Z" fill="#FFC582"/>
<path d="M15.8034 5.62183L1.76993 2.46431C1.69204 2.4469 1.61043 2.46102 1.54293 2.5036C1.47553 2.54653 1.42786 2.61438 1.41032 2.69235L0.708646 5.84987C0.672598 6.01205 0.774866 6.17273 0.93704 6.20878C1.09921 6.24483 1.2599 6.14256 1.29595 5.98039L1.93201 3.11721L15.6715 6.20843C15.6932 6.21347 15.7154 6.21597 15.7378 6.2158C15.9038 6.21549 16.0382 6.08064 16.0379 5.9146C16.0376 5.77422 15.9403 5.65275 15.8034 5.62183Z" fill="#FFC582"/>
<path d="M14.0993 3.88126L5.67926 0.372893C5.53291 0.311892 5.36429 0.37456 5.29334 0.516385L4.59167 1.91973C4.51242 2.06629 4.56698 2.24938 4.71358 2.32863C4.86014 2.40787 5.04324 2.35332 5.12248 2.20671C5.12559 2.20097 5.12853 2.19509 5.13125 2.18913V2.18983L5.70697 1.03768L13.8671 4.43764C14.0207 4.50175 14.1973 4.42922 14.2614 4.27555C14.3255 4.12197 14.253 3.94541 14.0993 3.88126Z" fill="#FFC582"/>
<path d="M14.3121 8.4209H11.5275C11.3614 8.4209 11.2268 8.55553 11.2268 8.72156C11.2268 8.8876 11.3614 9.02223 11.5275 9.02223H14.3121C14.4781 9.02223 14.6127 8.8876 14.6127 8.72156C14.6127 8.55553 14.4781 8.4209 14.3121 8.4209Z" fill="#FFC582"/>
<path d="M8.72066 8.44043C7.01555 8.44043 5.6333 9.82268 5.6333 11.5278C5.63505 13.2322 7.0163 14.6134 8.72066 14.6151C10.4258 14.6151 11.808 13.2329 11.808 11.5278C11.808 9.82268 10.4258 8.44043 8.72066 8.44043ZM8.72066 14.0538C7.32556 14.0538 6.19464 12.9229 6.19464 11.5278C6.19617 10.1333 7.32622 9.0033 8.72066 9.00177C10.1158 9.00177 11.2467 10.1327 11.2467 11.5278C11.2467 12.9229 10.1158 14.0538 8.72066 14.0538Z" fill="#FFC582"/>
<path d="M17.1408 9.42285C15.2814 9.42285 13.2816 9.8621 13.2816 10.8262V19.2463C13.2816 20.2104 15.2814 20.6496 17.1408 20.6496C19.0002 20.6496 21 20.2104 21 19.2463V10.8262C21 9.8621 19.0002 9.42285 17.1408 9.42285ZM20.2983 19.241C20.2454 19.4357 19.1932 19.9479 17.1408 19.9479C15.0884 19.9479 14.0363 19.4357 13.9833 19.2463V18.6947C14.7299 19.0708 15.9631 19.2463 17.1408 19.2463C18.3186 19.2463 19.5521 19.0691 20.2983 18.6944V19.241ZM20.2983 17.8377C20.2454 18.0324 19.1932 18.5446 17.1408 18.5446C15.0884 18.5446 14.0363 18.0324 13.9833 17.8429V17.2914C14.7299 17.6675 15.9631 17.8429 17.1408 17.8429C18.3186 17.8429 19.5521 17.6657 20.2983 17.291V17.8377ZM20.2983 16.4343C20.2454 16.629 19.1932 17.1412 17.1408 17.1412C15.0884 17.1412 14.0363 16.629 13.9833 16.4396V15.8881C14.7299 16.2642 15.9631 16.4396 17.1408 16.4396C18.3186 16.4396 19.5521 16.2624 20.2983 15.8877V16.4343ZM20.2983 15.031C20.2454 15.2257 19.1932 15.7379 17.1408 15.7379C15.0884 15.7379 14.0363 15.2257 13.9833 15.0362V14.4847C14.7299 14.8608 15.9631 15.0362 17.1408 15.0362C18.3186 15.0362 19.5521 14.8591 20.2983 14.4844V15.031ZM20.2983 13.6276C20.2454 13.8223 19.1932 14.3346 17.1408 14.3346C15.0884 14.3346 14.0363 13.8223 13.9833 13.6329V13.0814C14.7299 13.4557 15.9631 13.6329 17.1408 13.6329C18.3186 13.6329 19.5521 13.4557 20.2983 13.081V13.6276ZM20.2983 12.2243C20.2454 12.419 19.1932 12.9312 17.1408 12.9312C15.0884 12.9312 14.0363 12.419 13.9833 12.2295V11.678C14.7299 12.0524 15.9631 12.2295 17.1408 12.2295C18.3186 12.2295 19.5521 12.0524 20.2983 11.6777V12.2243ZM17.1408 11.5279C15.0916 11.5279 14.0398 11.0171 13.9833 10.8325V10.8304C14.0398 10.635 15.0916 10.1245 17.1408 10.1245C19.1757 10.1245 20.2282 10.6276 20.2983 10.8262C20.2282 11.0248 19.1757 11.5279 17.1408 11.5279Z" fill="#FFC582"/>
<path d="M5.91401 14.0339H3.26204L2.00464 12.6587V10.3782L3.39325 9.02223H5.91401C6.08004 9.02223 6.21467 8.8876 6.21467 8.72157C6.21467 8.55553 6.08004 8.4209 5.91401 8.4209H3.27116C3.19257 8.42072 3.11701 8.45133 3.06065 8.50615L1.49347 10.0347C1.43492 10.1032 1.40282 10.1903 1.40295 10.2803V12.7755C1.40295 12.8505 1.43098 12.9228 1.48154 12.9783L2.90699 14.5374C2.96396 14.5997 3.04456 14.6353 3.12907 14.6353H5.91401C6.08004 14.6353 6.21467 14.5006 6.21467 14.3346C6.21467 14.1686 6.08008 14.0339 5.91401 14.0339Z" fill="#FFC582"/>
<path d="M8.89614 11.1771H8.5453C8.43619 11.1771 8.36989 11.1161 8.36989 11.0894C8.36989 11.0628 8.43619 11.0017 8.5453 11.0017H9.42239C9.61614 11.0017 9.77323 10.8446 9.77323 10.6509C9.77323 10.4571 9.61614 10.3001 9.42239 10.3001H9.07156C9.07156 10.1063 8.91447 9.94922 8.72072 9.94922C8.52697 9.94922 8.36989 10.1063 8.36989 10.3001V10.3158C7.98076 10.3708 7.68597 10.6951 7.66821 11.0877C7.69334 11.5477 8.08514 11.9011 8.5453 11.8788H8.89614C9.00525 11.8788 9.07156 11.9399 9.07156 11.9665C9.07156 11.9932 9.00525 12.0542 8.89614 12.0542H8.01905C7.8253 12.0542 7.66821 12.2113 7.66821 12.4051C7.66821 12.5988 7.8253 12.7559 8.01905 12.7559H8.36989C8.36989 12.9497 8.52697 13.1067 8.72072 13.1067C8.91447 13.1067 9.07156 12.9497 9.07156 12.7559V12.7401C9.46068 12.6852 9.75547 12.3609 9.77323 11.9683C9.7481 11.5083 9.35631 11.1549 8.89614 11.1771Z" fill="#FFC582"/>
</g>
<defs>
<clipPath id="clip0">
<rect width="21" height="21" fill="white"/>
</clipPath>
</defs>
</svg>
