<svg width="22" height="22" viewBox="0 0 22 22" fill="none" xmlns="http://www.w3.org/2000/svg">
<g clip-path="url(#clip0)">
<path d="M6.12272 12.797C6.36774 12.797 6.60723 12.7228 6.81336 12.5799L12.3992 8.71311C12.9376 8.34018 13.0854 7.61397 12.7359 7.0601C12.5609 6.78327 12.2887 6.5915 11.969 6.5208C11.65 6.44944 11.3212 6.50821 11.0455 6.68562L5.33245 10.361C5.05518 10.5393 4.86585 10.8151 4.7989 11.1376C4.73174 11.46 4.79537 11.7885 4.97764 12.0618L5.10534 12.2535C5.28827 12.5279 5.5673 12.7131 5.89119 12.7749C5.96851 12.7897 6.04584 12.797 6.12272 12.797ZM5.74825 11.8258L5.62055 11.6336C5.55338 11.5333 5.52997 11.4131 5.55493 11.2951C5.57945 11.1767 5.64883 11.0758 5.75001 11.0104L11.4633 7.33494C11.5364 7.2881 11.6195 7.26402 11.7043 7.26402C11.7366 7.26402 11.7695 7.26733 11.802 7.27462C11.9189 7.30047 12.0187 7.37095 12.0828 7.47236C12.2109 7.67539 12.1568 7.94161 11.9595 8.07815L6.37392 11.9449C6.27428 12.0141 6.15454 12.0388 6.03612 12.0165C5.91726 11.9937 5.81497 11.9261 5.74825 11.8258Z" fill="#FFC582"/>
<path d="M21.2276 14.346C21.2276 12.6952 18.8807 9.47045 18.1388 8.49217V5.49634C18.1388 4.74517 17.6395 4.11551 16.9579 3.90254V2.54027C16.9579 1.77386 16.3342 1.15039 15.568 1.15039H13.3057C12.5395 1.15039 11.9158 1.77386 11.9158 2.54027V3.81902H11.6938C11.3582 3.81902 11.0338 3.918 10.7559 4.10579L3.6143 8.9221C2.79663 9.47355 2.30859 10.3917 2.30859 11.3778V19.4446C2.30859 20.8537 3.45479 21.9999 4.86389 21.9999H15.5835C16.9926 21.9999 18.139 20.8537 18.139 19.4446V17.8957C19.8813 17.6513 21.2276 16.1547 21.2276 14.346ZM12.6882 2.54027C12.6882 2.19982 12.9652 1.92255 13.3057 1.92255H15.568C15.9085 1.92255 16.1855 2.19982 16.1855 2.54027V3.81902H12.6882V2.54027ZM15.5835 21.2278H4.86367C3.8803 21.2278 3.08053 20.4278 3.08053 19.4446V11.3778C3.08053 10.6487 3.44153 9.96998 4.04622 9.56214L11.1881 4.74561C11.3378 4.64464 11.5126 4.59096 11.6938 4.59096H16.4617C16.9603 4.59096 17.3666 4.99725 17.3666 5.49611V8.21291C17.3569 8.22263 17.3434 8.22661 17.3348 8.23743C16.9986 8.66803 14.0507 12.4979 14.0507 14.346C14.0507 16.2327 15.5152 17.7806 17.3666 17.9209V19.4449C17.3666 20.4278 16.5669 21.2278 15.5835 21.2278ZM17.6393 17.1624C16.0865 17.1624 14.823 15.8989 14.823 14.346C14.823 13.1415 16.6404 10.4532 17.6393 9.11232C18.6385 10.4529 20.4555 13.1406 20.4555 14.346C20.4555 15.8989 19.1917 17.1624 17.6393 17.1624Z" fill="#FFC582"/>
<path d="M5.66987 5.57935C6.44401 5.57935 7.07411 4.94947 7.07411 4.17511C7.07411 3.53021 6.23214 2.40169 5.97409 2.07118C5.82783 1.88383 5.5119 1.88383 5.36564 2.07118C5.1076 2.40169 4.26562 3.53021 4.26562 4.17511C4.26585 4.94947 4.89572 5.57935 5.66987 5.57935ZM5.66987 2.96175C6.01121 3.45553 6.30195 3.97627 6.30195 4.17511C6.30195 4.52352 6.01828 4.80719 5.66987 4.80719C5.32168 4.80719 5.038 4.52352 5.038 4.17511C5.038 3.97671 5.32853 3.45575 5.66987 2.96175Z" fill="#FFC582"/>
<path d="M3.59901 2.24444C3.59901 1.59954 2.75704 0.471026 2.49899 0.140512C2.35273 -0.0468375 2.0368 -0.0468375 1.89055 0.140512C1.6325 0.471026 0.790527 1.59954 0.790527 2.24444C0.790527 3.01881 1.42062 3.64868 2.19477 3.64868C2.96891 3.64868 3.59901 3.01881 3.59901 2.24444ZM2.19499 2.87653C1.84658 2.87653 1.5629 2.59285 1.5629 2.24444C1.5629 2.04605 1.85365 1.52509 2.19499 1.03087C2.53611 1.52487 2.82685 2.04561 2.82685 2.24444C2.82685 2.59307 2.5434 2.87653 2.19499 2.87653Z" fill="#FFC582"/>
<path d="M19.297 13.6992C19.0836 13.6992 18.9109 13.8722 18.9109 14.0854C18.9109 14.8304 18.3046 15.4368 17.5594 15.4368C17.346 15.4368 17.1735 15.6096 17.1735 15.8228C17.1735 16.036 17.346 16.209 17.5594 16.209C18.7304 16.209 19.683 15.2563 19.683 14.0854C19.683 13.8722 19.5105 13.6992 19.297 13.6992Z" fill="#FFC582"/>
<path d="M14.2777 18.5254H6.16929C5.95587 18.5254 5.78333 18.6982 5.78333 18.9114C5.78333 19.1245 5.95587 19.2975 6.16929 19.2975H14.2777C14.4911 19.2975 14.6637 19.1245 14.6637 18.9114C14.6637 18.6982 14.4911 18.5254 14.2777 18.5254Z" fill="#FFC582"/>
</g>
<defs>
<clipPath id="clip0">
<rect width="22" height="22" fill="white"/>
</clipPath>
</defs>
</svg>
