<svg width="22" height="22" viewBox="0 0 22 22" fill="none" xmlns="http://www.w3.org/2000/svg">
<path d="M14.0078 9.06641C14.0078 7.76329 12.9476 6.70312 11.6445 6.70312H8.42188C8.1846 6.70312 7.99219 6.89554 7.99219 7.13281V11C7.99219 11.2373 8.1846 11.4297 8.42188 11.4297H11.6445C12.9476 11.4297 14.0078 10.3695 14.0078 9.06641ZM8.85156 7.5625H11.6445C12.4738 7.5625 13.1484 8.23715 13.1484 9.06641C13.1484 9.89566 12.4738 10.5703 11.6445 10.5703H8.85156V7.5625Z" fill="#FFC582"/>
<path d="M16.5859 9.06641C16.5859 6.34171 14.3692 4.125 11.6445 4.125H5.84375C5.60648 4.125 5.41406 4.31741 5.41406 4.55469V17.4453C5.41406 17.6826 5.60648 17.875 5.84375 17.875H8.42188C8.65915 17.875 8.85156 17.6826 8.85156 17.4453V14.0078H11.6445C14.3692 14.0078 16.5859 11.7911 16.5859 9.06641ZM8.42188 13.1484C8.1846 13.1484 7.99219 13.3409 7.99219 13.5781V17.0156H6.27344V4.98438H11.6445C13.8954 4.98438 15.7266 6.81557 15.7266 9.06641C15.7266 11.3172 13.8954 13.1484 11.6445 13.1484H8.42188Z" fill="#FFC582"/>
<path d="M11 22C11.2373 22 11.4297 21.8076 11.4297 21.5703C11.4297 21.333 11.2373 21.1406 11 21.1406C10.7627 21.1406 10.5703 21.333 10.5703 21.5703C10.5703 21.8076 10.7627 22 11 22Z" fill="#FFC582"/>
<path d="M20.2812 0H1.71875C0.771031 0 0 0.771031 0 1.71875V20.2812C0 21.229 0.771031 22 1.71875 22H9.06641C9.30368 22 9.49609 21.8076 9.49609 21.5703C9.49609 21.333 9.30368 21.1406 9.06641 21.1406H1.71875C1.24489 21.1406 0.859375 20.7551 0.859375 20.2812V1.71875C0.859375 1.24489 1.24489 0.859375 1.71875 0.859375H20.2812C20.7551 0.859375 21.1406 1.24489 21.1406 1.71875V20.2812C21.1406 20.7551 20.7551 21.1406 20.2812 21.1406H12.9336C12.6963 21.1406 12.5039 21.333 12.5039 21.5703C12.5039 21.8076 12.6963 22 12.9336 22H20.2812C21.229 22 22 21.229 22 20.2812V1.71875C22 0.771031 21.229 0 20.2812 0Z" fill="#FFC582"/>
</svg>
