<svg width="18" height="18" viewBox="0 0 18 18" fill="none" xmlns="http://www.w3.org/2000/svg">
<g clip-path="url(#clip0)">
<path d="M17.8358 0.164952C17.6158 -0.0549839 17.2603 -0.0549839 17.0404 0.164952L0.172276 17.0331C-0.0476597 17.253 -0.0476597 17.6085 0.172276 17.8284C0.281963 17.9381 0.425962 17.9932 0.569961 17.9932C0.713959 17.9932 0.857396 17.9387 0.967645 17.8284L17.8358 0.960321C18.0557 0.740385 18.0557 0.384888 17.8358 0.164952Z" fill="#FFC582"/>
<path d="M3.94253 0.0078125C1.76905 0.0078125 0 1.77574 0 3.94866C0 6.12214 1.76905 7.89063 3.94253 7.89063C6.11545 7.89063 7.88394 6.1227 7.88394 3.94866C7.88394 1.77574 6.11545 0.0078125 3.94253 0.0078125ZM3.94253 6.7662C2.38892 6.7662 1.12499 5.50283 1.12499 3.94922C1.12499 2.39673 2.38892 1.13337 3.94253 1.13337C5.49558 1.13337 6.75895 2.39673 6.75895 3.94922C6.75895 5.50283 5.49558 6.7662 3.94253 6.7662Z" fill="#FFC582"/>
<path d="M14.0518 10.1162C11.8788 10.1162 10.1104 11.8847 10.1104 14.0576C10.1104 16.2311 11.8788 18.0002 14.0518 18.0002C16.2252 18.0002 17.9932 16.2311 17.9932 14.0576C17.9932 11.8847 16.2247 10.1162 14.0518 10.1162ZM14.0518 16.8752C12.4987 16.8752 11.2353 15.6112 11.2353 14.0576C11.2353 12.5046 12.4987 11.2412 14.0518 11.2412C15.6048 11.2412 16.8682 12.5046 16.8682 14.0576C16.8682 15.6112 15.6048 16.8752 14.0518 16.8752Z" fill="#FFC582"/>
</g>
<defs>
<clipPath id="clip0">
<rect width="18" height="18" fill="white"/>
</clipPath>
</defs>
</svg>
