<svg width="28" height="28" viewBox="0 0 28 28" fill="none" xmlns="http://www.w3.org/2000/svg">
<path d="M6.87317 18.709C6.77164 18.709 6.67427 18.7493 6.60248 18.8211C6.53069 18.8929 6.49036 18.9903 6.49036 19.0918V21.0605C6.49036 21.1621 6.53069 21.2594 6.60248 21.3312C6.67427 21.403 6.77164 21.4434 6.87317 21.4434C6.97469 21.4434 7.07206 21.403 7.14385 21.3312C7.21564 21.2594 7.25598 21.1621 7.25598 21.0605V19.0918C7.25598 18.9903 7.21564 18.8929 7.14385 18.8211C7.07206 18.7493 6.97469 18.709 6.87317 18.709Z" fill="#FFC582"/>
<path d="M16.2293 2.24219H7.96473C7.56392 2.24209 7.17289 2.36601 6.84529 2.59695C6.51769 2.82789 6.26957 3.15453 6.13497 3.53207C6.00037 3.90961 5.98588 4.31955 6.09349 4.70565C6.2011 5.09175 6.42554 5.4351 6.73601 5.68859L8.26223 6.93547V7.875H7.93411C7.83258 7.875 7.73521 7.91533 7.66342 7.98712C7.59163 8.05891 7.5513 8.15628 7.5513 8.25781V9.37563H6.79442C6.69289 9.37563 6.59552 9.41596 6.52373 9.48775C6.45194 9.55954 6.41161 9.65691 6.41161 9.75844V12.1476L5.91986 13.4547C5.42818 14.7664 5.17683 16.156 5.17786 17.5569V26.5781C5.17786 26.6797 5.21819 26.777 5.28998 26.8488C5.36177 26.9206 5.45914 26.9609 5.56067 26.9609H15.4394C15.5409 26.9609 15.6383 26.9206 15.7101 26.8488C15.7819 26.777 15.8222 26.6797 15.8222 26.5781V20.0966C15.8214 19.2598 15.7317 18.4254 15.5545 17.6076V17.6022V17.5995C15.0993 15.5229 14.0867 13.6095 12.6256 12.0652V9.75844C12.6256 9.65691 12.5853 9.55954 12.5135 9.48775C12.4417 9.41596 12.3444 9.37563 12.2428 9.37563H11.4844V8.25781C11.4844 8.15628 11.4441 8.05891 11.3723 7.98712C11.3005 7.91533 11.2031 7.875 11.1016 7.875H10.7735V6.89369L12.1954 5.18919L14.8788 4.41372H16.2291C16.2794 4.41375 16.3292 4.40387 16.3756 4.38464C16.4221 4.36541 16.4643 4.33721 16.4999 4.30166C16.5354 4.26611 16.5636 4.22389 16.5828 4.17744C16.6021 4.13098 16.6119 4.08119 16.6119 4.03091V2.625C16.6119 2.52351 16.5716 2.42617 16.4999 2.35439C16.4281 2.2826 16.3308 2.24225 16.2293 2.24219ZM5.94348 26.1953V17.5569C5.94249 16.2478 6.17724 14.9493 6.63648 13.7235L7.05933 12.6H12.0779C13.325 13.9247 14.2217 15.5398 14.6865 17.2987H9.51786C9.41633 17.2987 9.31896 17.3391 9.24717 17.4109C9.17538 17.4827 9.13504 17.58 9.13504 17.6816V24.2441C9.13504 24.3456 9.17538 24.443 9.24717 24.5148C9.31896 24.5865 9.41633 24.6269 9.51786 24.6269H15.0566V26.1953H5.94348ZM14.8621 18.0644C14.9897 18.7343 15.0548 19.4146 15.0566 20.0966V23.8612H9.90067V18.0644H14.8621ZM11.8585 11.8344H7.17723V10.1413H11.8585V11.8344ZM8.31692 9.37563V8.64062H10.7188V9.37563H8.31692ZM14.4397 3.74369L11.8703 4.48634C11.7969 4.50751 11.7315 4.55018 11.6826 4.60884L10.0967 6.50978C10.0393 6.57861 10.0078 6.66538 10.0079 6.755V7.875H9.02786V6.755C9.02786 6.69826 9.01524 6.64222 8.99091 6.59095C8.96659 6.53969 8.93116 6.49448 8.8872 6.45859L7.21989 5.09512C7.03201 4.94156 6.89621 4.73365 6.83111 4.49989C6.766 4.26613 6.77477 4.01796 6.85622 3.78938C6.93767 3.5608 7.08781 3.363 7.28606 3.22308C7.48431 3.08316 7.72098 3.00797 7.96364 3.00781H14.4386L14.4397 3.74369ZM15.8465 3.64809H15.2064V3.00781H15.8465V3.64809Z" fill="#FFC582"/>
<path d="M18.3565 2.49007C18.3766 2.49008 18.3966 2.48847 18.4164 2.48526L19.6043 2.29822C19.7035 2.28124 19.792 2.22587 19.8507 2.14409C19.9094 2.06231 19.9335 1.96071 19.9178 1.86129C19.9021 1.76186 19.8479 1.67261 19.7669 1.61285C19.6859 1.55309 19.5847 1.52764 19.485 1.54201L18.2974 1.72838C18.2022 1.74327 18.1161 1.79353 18.0563 1.86914C17.9965 1.94474 17.9674 2.04012 17.9749 2.13622C17.9824 2.23232 18.0258 2.32207 18.0965 2.38754C18.1673 2.45302 18.2601 2.4894 18.3565 2.48941V2.49007Z" fill="#FFC582"/>
<path d="M21.0963 2.05851C21.1164 2.05852 21.1365 2.05691 21.1564 2.0537L22.7675 1.80017C22.8678 1.78436 22.9577 1.72935 23.0175 1.64724C23.0772 1.56513 23.1019 1.46265 23.0861 1.36234C23.0703 1.26203 23.0153 1.17211 22.9332 1.11236C22.8511 1.05261 22.7486 1.02792 22.6483 1.04373L21.0372 1.29748C20.942 1.31237 20.8558 1.36264 20.7961 1.43824C20.7363 1.51384 20.7072 1.60922 20.7146 1.70532C20.7221 1.80142 20.7655 1.89117 20.8363 1.95665C20.907 2.02212 20.9999 2.0585 21.0963 2.05851Z" fill="#FFC582"/>
<path d="M19.6041 4.35774L18.4163 4.17071C18.3663 4.162 18.315 4.16334 18.2655 4.17464C18.216 4.18595 18.1692 4.207 18.1279 4.23656C18.0866 4.26612 18.0516 4.30361 18.0249 4.34684C17.9982 4.39006 17.9804 4.43817 17.9725 4.48834C17.9647 4.53852 17.9668 4.58977 17.9789 4.63909C17.991 4.68842 18.0128 4.73485 18.0431 4.77567C18.0733 4.81649 18.1113 4.85089 18.155 4.87685C18.1986 4.90282 18.247 4.91984 18.2973 4.92692L19.4849 5.11396C19.5048 5.11716 19.5249 5.11877 19.5451 5.11877C19.6415 5.11875 19.7343 5.08237 19.805 5.0169C19.8758 4.95143 19.9192 4.86168 19.9267 4.76558C19.9341 4.66948 19.9051 4.5741 19.8453 4.49849C19.7855 4.42289 19.6994 4.37263 19.6041 4.35774Z" fill="#FFC582"/>
<path d="M22.7676 4.85607L21.1565 4.60232C21.1068 4.59449 21.056 4.59653 21.0071 4.60832C20.9582 4.6201 20.9121 4.64141 20.8714 4.67101C20.8307 4.70062 20.7963 4.73795 20.77 4.78087C20.7438 4.82378 20.7262 4.87145 20.7184 4.92115C20.7106 4.97085 20.7126 5.0216 20.7244 5.07051C20.7362 5.11942 20.7575 5.16553 20.7871 5.2062C20.8167 5.24688 20.854 5.28133 20.897 5.30758C20.9399 5.33383 20.9875 5.35137 21.0372 5.3592L22.6483 5.61295C22.6682 5.61604 22.6883 5.61765 22.7085 5.61776C22.8049 5.61774 22.8977 5.58136 22.9685 5.51589C23.0392 5.45042 23.0826 5.36067 23.0901 5.26457C23.0975 5.16847 23.0685 5.07309 23.0087 4.99749C22.9489 4.92188 22.8628 4.87162 22.7676 4.85673V4.85607Z" fill="#FFC582"/>
<path d="M19.2323 2.94531C19.182 2.94531 19.1322 2.95521 19.0858 2.97445C19.0394 2.99369 18.9972 3.02189 18.9616 3.05744C18.9261 3.09298 18.8979 3.13518 18.8786 3.18163C18.8594 3.22807 18.8495 3.27785 18.8495 3.32812C18.8495 3.3784 18.8594 3.42817 18.8786 3.47462C18.8979 3.52106 18.9261 3.56327 18.9616 3.59881C18.9972 3.63436 19.0394 3.66256 19.0858 3.6818C19.1322 3.70103 19.182 3.71094 19.2323 3.71094H21.1779C21.2794 3.71094 21.3768 3.6706 21.4486 3.59881C21.5203 3.52702 21.5607 3.42965 21.5607 3.32812C21.5607 3.2266 21.5203 3.12923 21.4486 3.05744C21.3768 2.98564 21.2794 2.94531 21.1779 2.94531H19.2323Z" fill="#FFC582"/>
</svg>
