<svg width="26" height="26" viewBox="0 0 26 26" fill="none" xmlns="http://www.w3.org/2000/svg">
<path d="M26 14.6772H24.3226V13.8385H22.6452V13.2095L20.688 11.7417H19.2903V7.12884C19.2903 6.43531 18.7258 5.87078 18.0323 5.87078H17.6129V5.45142C17.6129 4.75789 17.0484 4.19336 16.3548 4.19336H4.6129C4.067 4.19336 3.60567 4.54514 3.43203 5.03207H0V7.5482H3.35484V9.30281C2.86791 9.47645 2.51613 9.93778 2.51613 10.4837V13.4192H0V20.1288H2.51613V20.5482C2.51613 21.2417 3.08066 21.8063 3.77419 21.8063H16.3548C16.9007 21.8063 17.3621 21.4545 17.5357 20.9676H18.0323C18.5782 20.9676 19.0395 20.6158 19.2131 20.1288H20.6884L22.6452 18.6611V18.0321H24.3226V17.1934H26V14.6772ZM16.7742 5.45142V5.87078H15.0968V9.22562H5.87097V5.03207H16.3548C16.5858 5.03207 16.7742 5.22004 16.7742 5.45142ZM4.6129 5.03207H5.03226V9.22562H4.19355V5.45142C4.19355 5.22004 4.38193 5.03207 4.6129 5.03207ZM0.83871 6.70949V5.87078H3.35484V6.70949H0.83871ZM2.51613 14.2579V15.3298C2.26837 15.1855 1.98436 15.0966 1.67742 15.0966C1.37048 15.0966 1.08647 15.1855 0.83871 15.3298V14.2579H2.51613ZM2.51613 16.774C2.51613 17.2366 2.13998 17.6127 1.67742 17.6127C1.21486 17.6127 0.83871 17.2366 0.83871 16.774C0.83871 16.3114 1.21486 15.9353 1.67742 15.9353C2.13998 15.9353 2.51613 16.3114 2.51613 16.774ZM0.83871 19.2901V18.2182C1.08647 18.3626 1.37048 18.4514 1.67742 18.4514C1.98436 18.4514 2.26837 18.3626 2.51613 18.2182V19.2901H0.83871ZM16.7742 20.5482C16.7742 20.7796 16.5858 20.9676 16.3548 20.9676H5.87097V11.3224H5.03226V20.9676H3.77419C3.54322 20.9676 3.35484 20.7796 3.35484 20.5482V10.4837C3.35484 10.2523 3.54322 10.0643 3.77419 10.0643H14.2581V20.1288H15.0968V10.0643H16.3548C16.5858 10.0643 16.7742 10.2523 16.7742 10.4837V20.5482ZM18.4516 19.7095C18.4516 19.9409 18.2632 20.1288 18.0323 20.1288H17.6129V10.4837C17.6129 9.79015 17.0484 9.22562 16.3548 9.22562H15.9355V6.70949H18.0323C18.2632 6.70949 18.4516 6.89746 18.4516 7.12884V19.7095ZM21.8065 18.2417L20.4087 19.2901H19.2903V12.5805H20.4087L21.8065 13.6288V18.2417ZM23.4839 17.1934H22.6452V14.6772H23.4839V17.1934ZM25.1613 16.3546H24.3226V15.5159H25.1613V16.3546Z" fill="#FFC582"/>
</svg>
