<svg width="26" height="26" viewBox="0 0 26 26" fill="none" xmlns="http://www.w3.org/2000/svg">
<g clip-path="url(#clip0)">
<path d="M25.5434 2.76335L25.294 2.2105L21.9445 5.56034C21.7437 5.7608 21.4767 5.87137 21.1927 5.87137C20.6065 5.87137 20.1294 5.39428 20.1294 4.80847C20.1294 4.52447 20.2399 4.25788 20.4408 4.0566L23.7902 0.707172L23.2374 0.457368C22.3098 0.0380238 21.2502 -0.266042 19.7876 0.346184C17.9118 1.12959 16.7298 2.84996 16.7763 4.72862C16.7859 5.13096 16.8504 5.53168 16.9679 5.9242L5.92409 16.968C5.4941 16.8394 5.05469 16.7743 4.61364 16.7743C2.07034 16.7743 0.000854492 18.8438 0.000854492 21.3871C0.000854492 23.9304 2.07034 25.9999 4.61364 25.9999C7.15694 25.9999 9.22642 23.9304 9.22642 21.3871C9.22642 20.9465 9.16131 20.507 9.03313 20.0771L20.0765 9.03324C20.4684 9.15036 20.8694 9.21486 21.2715 9.22489C23.1448 9.2769 24.8707 8.08849 25.6546 6.21311C26.266 4.75011 25.9623 3.6909 25.5434 2.76335ZM13.0005 11.7422C13.694 11.7422 14.2586 12.3067 14.2586 13.0002C14.2586 13.6939 13.694 14.2582 13.0005 14.2582C12.3068 14.2582 11.7425 13.6939 11.7425 13.0002C11.7425 12.3067 12.3068 11.7422 13.0005 11.7422ZM12.8429 15.081L10.9038 17.02L8.98071 15.0969L10.9196 13.1579C10.998 14.1866 11.8146 15.0032 12.8429 15.081ZM13.1586 10.9195L15.0972 8.98041L17.0203 10.9035L15.0813 12.8426C15.0033 11.8145 14.1867 10.9979 13.1586 10.9195ZM8.15963 20.1057C8.31095 20.5247 8.38773 20.9561 8.38773 21.3871C8.38773 23.4685 6.69439 25.1612 4.61364 25.1612C2.53268 25.1612 0.839543 23.4685 0.839543 21.3871C0.839543 19.3059 2.53268 17.613 4.61364 17.613C5.04547 17.613 5.47649 17.6902 5.8946 17.8415L6.14543 17.9326L8.38773 15.6899L10.3108 17.613L8.06852 19.8553L8.15963 20.1057ZM24.881 5.8898C24.2313 7.44432 22.8236 8.42695 21.2926 8.3862C20.8929 8.37658 20.4932 8.30021 20.1054 8.15974L19.8546 8.06924L17.6133 10.3105L15.6902 8.38743L17.9315 6.14615L17.841 5.89492C17.7005 5.5071 17.6242 5.10783 17.6141 4.70814C17.5762 3.17758 18.5564 1.76905 20.1103 1.11976C20.9746 0.758362 21.6388 0.775971 22.3158 0.994448L19.8474 3.46321C19.4885 3.82256 19.2907 4.30047 19.2907 4.80847C19.2907 5.85724 20.1439 6.71006 21.1927 6.71006C21.7011 6.71006 22.1786 6.51226 22.5375 6.15332L25.0059 3.68456C25.2239 4.36128 25.242 5.02551 24.881 5.8898Z" fill="#FFC582"/>
<path d="M4.61351 18.4512C2.99469 18.4512 1.6781 19.7684 1.6781 21.3866C1.6781 23.005 2.99469 24.322 4.61351 24.322C6.23212 24.322 7.54892 23.005 7.54892 21.3866C7.54892 19.7684 6.23212 18.4512 4.61351 18.4512ZM4.61351 23.4833C3.45724 23.4833 2.51679 22.5428 2.51679 21.3866C2.51679 20.2305 3.45724 19.2899 4.61351 19.2899C5.76957 19.2899 6.71023 20.2305 6.71023 21.3866C6.71023 22.5428 5.76957 23.4833 4.61351 23.4833Z" fill="#FFC582"/>
</g>
<defs>
<clipPath id="clip0">
<rect width="26" height="26" fill="white"/>
</clipPath>
</defs>
</svg>
