<svg width="21" height="21" viewBox="0 0 21 21" fill="none" xmlns="http://www.w3.org/2000/svg">
<g clip-path="url(#clip0)">
<path d="M20.4254 9.25595C20.3573 8.82934 19.9563 8.53871 19.5297 8.60678C19.1031 8.67484 18.8124 9.07588 18.8805 9.50249C18.8812 9.50716 18.882 9.51179 18.8828 9.51642C19.6794 14.2056 16.5238 18.6527 11.8346 19.4493C7.1454 20.2459 2.69833 17.0903 1.90175 12.4011C1.10518 7.71184 4.26082 3.26477 8.94998 2.46819C11.8337 1.97833 14.769 2.98565 16.7443 5.14305L13.2791 6.29758C12.8692 6.43398 12.6475 6.87681 12.7838 7.28674C12.7839 7.28684 12.7839 7.28697 12.784 7.28706C12.9204 7.69699 13.3632 7.91869 13.7731 7.78233C13.7733 7.78229 13.7733 7.78224 13.7734 7.78224L18.4667 6.21783C18.7863 6.1114 19.0018 5.81235 19.0018 5.47552V0.78223C19.0018 0.350209 18.6516 0 18.2196 0C17.7875 0 17.4373 0.350209 17.4373 0.78223V3.63964C13.409 -0.191811 7.03733 -0.0321745 3.20588 3.99617C-0.625566 8.02452 -0.465975 14.3962 3.56242 18.2277C7.59081 22.0591 13.9624 21.8995 17.7939 17.8711C19.9787 15.574 20.9538 12.3818 20.4254 9.25595Z" fill="white"/>
</g>
<defs>
<clipPath id="clip0">
<rect width="21" height="21" fill="white"/>
</clipPath>
</defs>
</svg>
