<svg width="12" height="12" viewBox="0 0 12 12" fill="none" xmlns="http://www.w3.org/2000/svg">
<path d="M6 0C2.69164 0 0 2.69164 0 6C0 9.30836 2.69164 12 6 12C7.05506 12 8.09252 11.7224 9.00073 11.1969L8.25 9.89831C7.56959 10.292 6.79138 10.5 6 10.5C3.51856 10.5 1.49999 8.48143 1.49999 6C1.49999 3.51856 3.51856 1.49999 6 1.49999C8.48143 1.49999 10.5 3.51856 10.5 6V6.65332C10.5 7.14405 10.1847 7.49999 9.75 7.49999C9.33654 7.49999 8.99999 7.16345 8.99999 6.74998V3.75H7.96322C7.4356 3.28906 6.75395 2.99999 6 2.99999C4.34582 2.99999 2.99999 4.34582 2.99999 6C2.99999 7.65418 4.34582 9.00001 6 9.00001C6.78772 9.00001 7.49992 8.6885 8.03578 8.19014C8.44883 8.68101 9.05974 9.00001 9.75 9.00001C11.0116 9.00001 12 7.96914 12 6.65332V6C12 2.69164 9.30836 0 6 0V0ZM6 7.49999C5.17272 7.49999 4.50001 6.82726 4.50001 6C4.50001 5.17272 5.17274 4.50001 6 4.50001C6.82728 4.50001 7.49999 5.17274 7.49999 6C7.49999 6.82728 6.82728 7.49999 6 7.49999Z" fill="#EB3F57"/>
</svg>
