<svg width="9" height="9" viewBox="0 0 9 9" xmlns="http://www.w3.org/2000/svg">
<path d="M8.28947 5.92579C7.73431 5.92579 7.19053 5.83911 6.67516 5.66905C6.42363 5.58237 6.138 5.64915 5.97269 5.81779L4.95095 6.58943C3.77858 5.9637 3.02827 5.21385 2.41106 4.05L3.16184 3.05242C3.35084 2.86342 3.41859 2.58678 3.33759 2.32769C3.16611 1.809 3.07896 1.26474 3.07896 0.710527C3.07896 0.318782 2.76017 0 2.36843 0H0.710527C0.318782 0 0 0.318782 0 0.710527C0 5.2811 3.7189 9 8.28947 9C8.68122 9 9 8.68122 9 8.28947V6.63632C9 6.24458 8.68122 5.92579 8.28947 5.92579Z" fill="#EB3F57"/>
</svg>
