<svg width="19" height="19" viewBox="0 0 19 19" fill="none" xmlns="http://www.w3.org/2000/svg">
<g clip-path="url(#clip0)">
<path d="M11.4003 0H7.5998C3.93246 0 0.948944 2.98352 0.948944 6.65085V9.50122C0.948944 12.0759 2.43384 14.4124 4.74943 15.5115V18.6857C4.74943 18.9613 5.09421 19.1054 5.29007 18.9097L8.04763 16.1521H11.4002C15.0675 16.1521 18.0511 13.1686 18.0511 9.50122V6.65085C18.0511 2.98352 15.0675 0 11.4003 0Z" fill="#665CAC"/>
<path d="M5.69954 15.5115C3.38395 14.4124 1.89906 12.0759 1.89906 9.50119V6.65082C1.89906 2.98352 4.88261 0 8.54991 0H7.5998C3.93246 0 0.948944 2.98352 0.948944 6.65085V9.50122C0.948944 12.0759 2.43384 14.4124 4.74943 15.5115V18.6857C4.74943 18.9613 5.09421 19.1054 5.29007 18.9097L5.69954 18.5002V15.5115Z" fill="#523494"/>
<path d="M14.2815 11.8044L13.9968 10.2619C13.9732 10.1345 13.8745 10.0343 13.7474 10.0088L11.508 9.56096C11.404 9.54025 11.2968 9.57273 11.2219 9.64758L10.3121 10.5574C8.77917 9.87056 7.9284 9.01794 7.17983 7.41923L8.08671 6.51239C8.16156 6.4375 8.19407 6.33011 8.17333 6.22628L7.72545 3.9868C7.70003 3.85977 7.5998 3.76099 7.47237 3.73746L5.92988 3.45276C5.88765 3.445 5.84415 3.44582 5.80222 3.45536C5.39495 3.54787 5.02333 3.75309 4.72753 4.04896C4.21535 4.56114 4.0196 5.30852 4.1615 6.21032C4.39971 7.7246 5.1416 9.83197 6.51038 11.2062L6.52908 11.2248C7.90228 12.5926 10.0097 13.3346 11.524 13.5728C11.7148 13.6029 11.8985 13.6178 12.0747 13.6178C12.7314 13.6178 13.2815 13.4106 13.6855 13.0068C13.9813 12.7109 14.1866 12.3393 14.279 11.9321C14.2884 11.8901 14.2893 11.8467 14.2815 11.8044Z" fill="white"/>
<path d="M7.77704 6.82246L8.08668 6.51279L8.08702 6.51245L7.77701 6.82243L7.77704 6.82246Z" fill="#E5E5E5"/>
<path d="M11.2219 9.64753L10.9093 9.96021L10.9093 9.96026L11.222 9.64758L11.2219 9.64753Z" fill="#E5E5E5"/>
<path d="M12.6719 13.0208C12.4957 13.0208 12.3119 13.0059 12.1212 12.9759C10.6068 12.7376 8.49943 11.9957 7.1262 10.6278L7.1075 10.6093C5.73872 9.23502 4.99683 7.12765 4.75862 5.61337C4.64399 4.8848 4.74997 4.25709 5.065 3.77271C4.94435 3.8532 4.83113 3.94552 4.72741 4.04924C4.21523 4.56143 4.01948 5.30881 4.16138 6.21061C4.39959 7.72489 5.14148 9.83226 6.51026 11.2065L6.52896 11.2251C7.90216 12.5929 10.0096 13.3349 11.5239 13.5731C11.7147 13.6032 11.8984 13.618 12.0746 13.618C12.7313 13.618 13.2814 13.4109 13.6854 13.007C13.789 12.9033 13.8814 12.7901 13.9619 12.6695C13.6042 12.9021 13.1686 13.0208 12.6719 13.0208Z" fill="#E5E5E5"/>
<path d="M10.1334 5.38403C9.95851 5.38403 9.81671 5.52583 9.81671 5.70072C9.81671 5.87562 9.95851 6.01742 10.1334 6.01742C10.8319 6.01742 11.4002 6.58571 11.4002 7.28426C11.4002 7.45681 11.5444 7.60095 11.7169 7.60095C11.8895 7.60095 12.0336 7.45681 12.0336 7.28426C12.0337 6.23644 11.1812 5.38403 10.1334 5.38403Z" fill="white"/>
<path d="M10.1334 4.11719C10.0163 4.11719 9.89802 4.12368 9.78194 4.13648C9.60808 4.15567 9.48269 4.31216 9.50188 4.48605C9.52106 4.65995 9.67789 4.78501 9.85145 4.76612C9.94452 4.75584 10.0394 4.75061 10.1334 4.75061C11.5305 4.75061 12.667 5.88719 12.667 7.28425C12.667 7.37832 12.6618 7.47317 12.6515 7.56624C12.6326 7.73773 12.76 7.89693 12.9316 7.91581C13.1031 7.9347 13.2622 7.80731 13.2812 7.63575C13.294 7.51967 13.3005 7.40144 13.3005 7.28425C13.3005 5.53796 11.8797 4.11719 10.1334 4.11719Z" fill="white"/>
<path d="M10.1338 2.85034C10.0206 2.85034 9.906 2.85465 9.79319 2.86322C9.61878 2.87643 9.48807 3.02858 9.50129 3.20296C9.51446 3.37737 9.66713 3.50807 9.84102 3.49486C9.93799 3.48747 10.0365 3.48376 10.1338 3.48376C12.2294 3.48376 13.9343 5.18864 13.9343 7.28424C13.9343 7.58075 13.9001 7.87592 13.8326 8.16151C13.7939 8.32516 13.8947 8.49527 14.057 8.53973C14.2277 8.58649 14.4084 8.47943 14.449 8.3072C14.5278 7.97392 14.5677 7.62977 14.5677 7.28424C14.5677 4.83937 12.5787 2.85034 10.1338 2.85034Z" fill="white"/>
</g>
<defs>
<clipPath id="clip0">
<rect width="19" height="19" fill="white"/>
</clipPath>
</defs>
</svg>
