<svg width="18" height="18" viewBox="0 0 18 18" fill="none" xmlns="http://www.w3.org/2000/svg">
<path d="M9.00225 0H8.99775C4.03538 0 0 4.0365 0 9C0 10.9688 0.6345 12.7935 1.71337 14.2751L0.59175 17.6186L4.05113 16.5128C5.47425 17.4555 7.17188 18 9.00225 18C13.9646 18 18 13.9624 18 9C18 4.03763 13.9646 0 9.00225 0Z" fill="#4CAF50"/>
<path d="M14.2391 12.7092C14.022 13.3223 13.1602 13.8308 12.4729 13.9793C12.0026 14.0795 11.3884 14.1593 9.32062 13.3021C6.67575 12.2063 4.9725 9.5187 4.83975 9.34433C4.71262 9.16995 3.771 7.92121 3.771 6.62971C3.771 5.33821 4.42687 4.70933 4.69125 4.43933C4.90837 4.21771 5.26725 4.11646 5.6115 4.11646C5.72287 4.11646 5.823 4.12208 5.913 4.12658C6.17737 4.13783 6.31012 4.15358 6.4845 4.57096C6.70162 5.09408 7.23037 6.38558 7.29337 6.51833C7.3575 6.65108 7.42162 6.83108 7.33162 7.00546C7.24725 7.18546 7.173 7.26533 7.04025 7.41833C6.9075 7.57133 6.7815 7.68833 6.64875 7.85258C6.52725 7.99546 6.39 8.14846 6.543 8.41283C6.696 8.67158 7.22475 9.53445 8.00325 10.2275C9.00787 11.1218 9.82237 11.4076 10.1137 11.5291C10.3309 11.6191 10.5896 11.5977 10.7482 11.429C10.9496 11.2118 11.1982 10.8518 11.4514 10.4975C11.6314 10.2432 11.8586 10.2117 12.0971 10.3017C12.3401 10.3861 13.626 11.0217 13.8904 11.1533C14.1547 11.2861 14.3291 11.3491 14.3932 11.4605C14.4562 11.5718 14.4562 12.095 14.2391 12.7092Z" fill="#FAFAFA"/>
</svg>
