<svg width="12" height="11" viewBox="0 0 12 11" fill="none" xmlns="http://www.w3.org/2000/svg">
<path d="M11.2391 8.7092C11.022 9.32233 10.1602 9.83083 9.47287 9.97933C9.00262 10.0795 8.38837 10.1593 6.32062 9.30208C3.67575 8.20633 1.9725 5.5187 1.83975 5.34433C1.71262 5.16995 0.770996 3.92121 0.770996 2.62971C0.770996 1.33821 1.42687 0.70933 1.69125 0.43933C1.90837 0.217705 2.26725 0.116455 2.6115 0.116455C2.72287 0.116455 2.823 0.12208 2.913 0.12658C3.17737 0.13783 3.31012 0.15358 3.4845 0.570955C3.70162 1.09408 4.23037 2.38558 4.29337 2.51833C4.3575 2.65108 4.42162 2.83108 4.33162 3.00546C4.24725 3.18546 4.173 3.26533 4.04025 3.41833C3.9075 3.57133 3.7815 3.68833 3.64875 3.85258C3.52725 3.99546 3.39 4.14846 3.543 4.41283C3.696 4.67158 4.22475 5.53445 5.00325 6.22745C6.00787 7.12183 6.82237 7.40758 7.11375 7.52908C7.33087 7.61908 7.58962 7.59771 7.74825 7.42896C7.94962 7.21183 8.19825 6.85183 8.45137 6.49746C8.63137 6.24321 8.85862 6.2117 9.09712 6.3017C9.34012 6.38608 10.626 7.0217 10.8904 7.15333C11.1547 7.28608 11.3291 7.34908 11.3932 7.46046C11.4562 7.57183 11.4562 8.09495 11.2391 8.7092Z" fill="#FAFAFA"/>
</svg>
