<svg width="46" height="46" viewBox="0 0 46 46" fill="none" xmlns="http://www.w3.org/2000/svg">
<path d="M34.1287 20.4182H41.5449V21.9033H34.1287V20.4182Z" fill="#FFC582"/>
<path d="M30.416 24.8735H41.5449V26.3586H30.416V24.8735Z" fill="#FFC582"/>
<path d="M14.8321 29.3286H41.5449V30.8137H14.8321V29.3286Z" fill="#FFC582"/>
<path d="M37.0897 33.7749H41.5449V35.2599H37.0897V33.7749Z" fill="#FFC582"/>
<path d="M29.6735 33.7749H34.1286V35.2599H29.6735V33.7749Z" fill="#FFC582"/>
<path d="M22.2482 33.7749H26.7034V35.2599H22.2482V33.7749Z" fill="#FFC582"/>
<path d="M15.5746 19.6758C16.1179 19.6758 16.6159 19.8297 17.0506 20.0833C17.5033 19.8207 18.0104 19.6758 18.5447 19.6758C20.1837 19.6758 21.5148 21.0069 21.5148 22.6459C21.5148 24.2849 20.1837 25.616 18.5447 25.616C18.0104 25.616 17.5033 25.4711 17.0506 25.2085C16.6159 25.462 16.1179 25.616 15.5746 25.616C13.9356 25.616 12.6045 24.2849 12.6045 22.6459C12.6045 21.0069 13.9356 19.6758 15.5746 19.6758ZM18.1644 24.0766C18.2911 24.1128 18.4179 24.1309 18.5447 24.1309C19.3596 24.1309 20.0297 23.4609 20.0297 22.6459C20.0297 21.8309 19.3596 21.1608 18.5447 21.1608C18.4179 21.1608 18.2821 21.188 18.1644 21.2152C18.3998 21.6408 18.5447 22.1207 18.5447 22.6459C18.5447 23.1711 18.3998 23.651 18.1644 24.0766ZM15.5746 24.1309C16.3895 24.1309 17.0596 23.4609 17.0596 22.6459C17.0596 21.8309 16.3895 21.1608 15.5746 21.1608C14.7596 21.1608 14.0895 21.8309 14.0895 22.6459C14.0895 23.4609 14.7596 24.1309 15.5746 24.1309Z" fill="#FFC582"/>
<path d="M1.5481 16.2438L32.6798 6.40987C32.8971 6.33742 34.6357 5.76695 35.4688 7.8587L38.0314 15.9631H43.7724C45.0039 15.9721 46 16.9682 46 18.1907V37.4873C46 38.7188 45.0039 39.7149 43.7724 39.7149H11.1194C10.3407 39.7149 9.66154 39.3164 9.26311 38.7097C9.26311 38.7097 8.25799 38.9904 8.03161 38.9904C7.05365 38.9904 6.20246 38.3656 5.9127 37.4329L0.0992699 19.0328C-0.0818329 18.4714 -0.208607 16.7147 1.5481 16.2438ZM34.9527 11.1367L19.6585 15.9631H29.5196L35.8491 13.9619L34.9527 11.1367ZM36.2928 15.3836L34.4365 15.9721H36.4739L36.2928 15.3836ZM10.3769 37.4873H10.386C10.386 37.8948 10.721 38.2298 11.1285 38.2298H43.7724C44.1799 38.2298 44.5149 37.8948 44.5149 37.4873V18.1907C44.5149 17.7832 44.1799 17.4481 43.7724 17.4481H11.1194C10.7119 17.4481 10.3769 17.7832 10.3769 18.1907V37.4873ZM7.32531 36.9892C7.44302 37.3696 7.87767 37.5959 8.25799 37.4692L8.90091 37.2699V24.0403L3.74851 25.6703L7.32531 36.9892ZM3.30481 24.2486L8.90091 22.4828V19.3678L2.40834 21.4143L3.30481 24.2486ZM1.51188 18.5891L1.95558 20.0017L8.93713 17.8013C9.12729 16.7599 10.0328 15.9721 11.1194 15.9721H14.7324L34.509 9.72406L34.0653 8.31146C33.9475 7.93114 33.522 7.70476 33.1326 7.83153L2.00086 17.6564C1.37605 17.8194 1.45755 18.3989 1.51188 18.5891Z" fill="#FFC582"/>
</svg>
