<svg width="37" height="37" viewBox="0 0 37 37" fill="none" xmlns="http://www.w3.org/2000/svg">
<path d="M21.923 0.180994C22.0878 0.0150376 22.3327 -0.04249 22.554 0.0322056L32.6605 3.40074L35.7926 0.26834C36.0348 0.0346151 36.4194 0.0379282 36.6574 0.27587C36.8953 0.513811 36.8986 0.898735 36.6649 1.14059L33.5334 4.27299L36.9019 14.3792C36.9754 14.6009 36.9179 14.8451 36.7525 15.0105L14.9441 36.8195C14.7032 37.0601 14.3128 37.0601 14.0719 36.8195L0.11404 22.8614C-0.126915 22.6207 -0.126915 22.2301 0.11404 21.9894L21.923 0.180994ZM14.508 35.5111L35.6119 14.4078L32.5587 5.24825L30.1673 7.63971C31.0401 8.96044 30.7715 10.7281 29.545 11.7293C28.3186 12.7308 26.5331 12.641 25.4133 11.5212C24.2937 10.4016 24.204 8.61618 25.2051 7.38972C26.2066 6.16327 27.974 5.8943 29.295 6.76746L31.6853 4.376L22.5257 1.32131L1.42242 22.4234L14.508 35.5111ZM28.0291 9.77637C27.7873 10.0101 27.4023 10.0068 27.1644 9.76884C26.9264 9.5309 26.9231 9.14627 27.1569 8.90412L28.3851 7.67495C27.6809 7.33159 26.8361 7.47466 26.284 8.03066C25.6093 8.69539 25.5428 9.76131 26.1298 10.5047C26.7168 11.2477 27.7692 11.4302 28.5722 10.9275C29.3748 10.4248 29.6706 9.39867 29.2586 8.546L28.0291 9.77637Z" fill="#FFC582"/>
</svg>
