<svg width="50" height="35" viewBox="0 0 50 35" fill="none" xmlns="http://www.w3.org/2000/svg">
<path d="M12.4062 4C14.4225 4 16.0625 5.55756 16.0625 7.47141C16.0614 8.28752 15.7594 9.07457 15.2143 9.68191C15.7579 10.2946 16.0595 11.0845 16.0625 11.9036C16.0625 13.8174 14.4225 15.375 12.4062 15.375C10.39 15.375 8.75 13.8174 8.75 11.9036C8.75109 11.0875 9.05311 10.3004 9.59825 9.69309C9.05456 9.08042 8.75297 8.29051 8.75 7.47141C8.75 5.55756 10.39 4 12.4062 4ZM10.8177 10.7562C10.5335 11.0709 10.3758 11.4796 10.375 11.9036C10.375 12.9217 11.2863 13.75 12.4062 13.75C13.5262 13.75 14.4375 12.9217 14.4375 11.9036C14.4365 11.4795 14.2787 11.0707 13.9944 10.7559C13.7353 10.4603 13.5925 10.0806 13.5925 9.68755C13.5925 9.29447 13.7353 8.91479 13.9944 8.61916C14.2788 8.30448 14.4367 7.8956 14.4375 7.47141C14.4375 6.45334 13.5262 5.625 12.4062 5.625C11.2863 5.625 10.375 6.45334 10.375 7.47141C10.376 7.89555 10.5338 8.30434 10.8181 8.61906C11.0772 8.91476 11.2201 9.29456 11.22 9.68773C11.2199 10.0809 11.0769 10.4606 10.8177 10.7562Z" fill="#FFC582"/>
<path d="M42.0625 12.8344V16.1876C42.0625 16.4031 41.9769 16.6097 41.8245 16.7621C41.6721 16.9145 41.4655 17.0001 41.25 17.0001H38C37.7845 17.0001 37.5778 16.9145 37.4255 16.7621C37.2731 16.6097 37.1875 16.4031 37.1875 16.1876V12.9376H35.5625V16.1876C35.5625 16.4031 35.4769 16.6097 35.3245 16.7621C35.1721 16.9145 34.9655 17.0001 34.75 17.0001H31.5C31.2845 17.0001 31.0778 16.9145 30.9255 16.7621C30.7731 16.6097 30.6875 16.4031 30.6875 16.1876V12.9376H19.1962C19.0088 13.9992 18.5735 15.0016 17.9256 15.8631L16.6256 14.8871C17.2398 14.0714 17.6011 13.0934 17.6645 12.0743C17.6775 11.868 17.7685 11.6744 17.9192 11.5329C18.0699 11.3913 18.2688 11.3126 18.4755 11.3126H31.5C31.7155 11.3126 31.9221 11.3982 32.0745 11.5506C32.2269 11.7029 32.3125 11.9096 32.3125 12.1251V15.3751H33.9375V12.1251C33.9375 11.9096 34.0231 11.7029 34.1755 11.5506C34.3278 11.3982 34.5345 11.3126 34.75 11.3126H38C38.2155 11.3126 38.4221 11.3982 38.5745 11.5506C38.7269 11.7029 38.8125 11.9096 38.8125 12.1251V15.3751H40.4375V12.1251C40.4375 11.9096 40.5231 11.7029 40.6755 11.5506C40.8278 11.3982 41.0345 11.3126 41.25 11.3126C41.681 11.3126 42.0943 11.1414 42.399 10.8366C42.7038 10.5319 42.875 10.1186 42.875 9.68759C42.875 9.25662 42.7038 8.84329 42.399 8.53854C42.0943 8.2338 41.681 8.06259 41.25 8.06259H18.4758C18.2692 8.06262 18.0704 7.98397 17.9198 7.84262C17.7691 7.70127 17.678 7.50785 17.6648 7.30169C17.5746 5.93499 16.9563 4.65698 15.9408 3.73789C14.9253 2.81879 13.5921 2.33067 12.2232 2.37673C10.8543 2.42279 9.55701 2.99943 8.60558 3.98471C7.65414 4.96999 7.12319 6.28667 7.12499 7.65634V11.7188C7.12309 13.0495 7.6263 14.3313 8.53295 15.3052L7.34203 16.411C6.156 15.1367 5.49768 13.4597 5.49999 11.7188V7.65634C5.49886 5.93106 6.14397 4.26791 7.3082 2.99465C8.47242 1.72139 10.0713 0.930352 11.7898 0.777424C13.5083 0.624497 15.2218 1.12077 16.5925 2.16844C17.9633 3.21612 18.8919 4.73922 19.1955 6.43759H41.25C42.041 6.43758 42.8049 6.72607 43.3985 7.24899C43.992 7.77191 44.3745 8.49335 44.4741 9.27808C44.5738 10.0628 44.3839 10.857 43.9399 11.5117C43.4959 12.1664 42.8284 12.6367 42.0625 12.8344Z" fill="#FFC582"/>
<path d="M7.50564 17.8157C7.5097 17.8131 7.51245 17.8095 7.51651 17.807C9.54838 16.5693 11.9226 16.0135 14.2927 16.2206C16.6628 16.4277 18.9047 17.3869 20.6911 18.9583L21.2426 19.4407H30.2812C30.9132 19.4407 31.5343 19.6046 32.084 19.9162C32.6338 20.2279 33.0933 20.6767 33.4179 21.2189C33.7425 21.761 33.9211 22.3781 33.9361 23.0099C33.9512 23.6416 33.8022 24.2665 33.5038 24.8235L43.4419 19.593C44.3919 19.0931 45.5016 18.9911 46.5269 19.3094C47.5521 19.6276 48.409 20.3402 48.9089 21.2902C49.4088 22.2402 49.5108 23.3499 49.1925 24.3752C48.8743 25.4004 48.1617 26.2572 47.2117 26.7571L35.2797 33.0342C33.996 33.7084 32.5679 34.0613 31.1179 34.0625H0.624985V32.4375H7.12498V19.4407H0.624985V17.8157H7.50564ZM34.5231 31.5965L46.4551 25.3194C46.7387 25.1724 46.9904 24.9708 47.1958 24.7262C47.4012 24.4815 47.5561 24.1986 47.6518 23.8939C47.7475 23.5891 47.7819 23.2684 47.7532 22.9503C47.7244 22.6322 47.6331 22.3228 47.4844 22.0401C47.3356 21.7574 47.1325 21.5069 46.8866 21.3031C46.6407 21.0992 46.3569 20.9459 46.0515 20.8521C45.7462 20.7583 45.4253 20.7258 45.1073 20.7565C44.7894 20.7872 44.4806 20.8804 44.1989 21.0309L33.5035 26.6595C33.3869 26.7212 33.2569 26.7534 33.125 26.7532H20.9375C20.722 26.7532 20.5153 26.6676 20.363 26.5152C20.2106 26.3628 20.125 26.1562 20.125 25.9407C20.125 25.7252 20.2106 25.5185 20.363 25.3662C20.5153 25.2138 20.722 25.1282 20.9375 25.1282H30.2812C30.82 25.1282 31.3366 24.9142 31.7175 24.5332C32.0985 24.1523 32.3125 23.6357 32.3125 23.0969C32.3125 22.5582 32.0985 22.0416 31.7175 21.6606C31.3366 21.2797 30.82 21.0657 30.2812 21.0657H20.9375C20.7408 21.0657 20.5508 20.9944 20.4027 20.865L19.6211 20.1818C18.1522 18.889 16.3211 18.0795 14.3763 17.863C12.4315 17.6466 10.4672 18.0337 8.74998 18.9718V32.4375H31.1179C32.3042 32.4363 33.4726 32.1477 34.5231 31.5965Z" fill="#FFC582"/>
<path d="M5.5 28.375C5.5 28.8571 5.35704 29.3284 5.08921 29.7292C4.82137 30.1301 4.44068 30.4425 3.99529 30.627C3.54989 30.8115 3.05979 30.8597 2.58696 30.7657C2.11413 30.6716 1.67981 30.4395 1.33892 30.0986C0.998032 29.7577 0.765881 29.3234 0.671829 28.8505C0.577777 28.3777 0.62605 27.8876 0.810538 27.4422C0.995027 26.9968 1.30745 26.6161 1.70829 26.3483C2.10914 26.0805 2.5804 25.9375 3.0625 25.9375C3.70874 25.9382 4.32831 26.1953 4.78527 26.6522C5.24223 27.1092 5.49927 27.7288 5.5 28.375ZM2.25 28.375C2.25 28.5357 2.29765 28.6928 2.38693 28.8264C2.4762 28.96 2.6031 29.0642 2.75157 29.1257C2.90003 29.1872 3.0634 29.2032 3.22101 29.1719C3.37862 29.1405 3.52339 29.0632 3.63702 28.9495C3.75065 28.8359 3.82804 28.6911 3.85939 28.5335C3.89074 28.3759 3.87464 28.2125 3.81315 28.0641C3.75165 27.9156 3.64751 27.7887 3.5139 27.6994C3.38028 27.6102 3.22319 27.5625 3.0625 27.5625C2.84707 27.5627 2.64054 27.6484 2.48821 27.8007C2.33588 27.953 2.25021 28.1596 2.25 28.375Z" fill="#FFC582"/>
</svg>
