<svg width="48" height="36" viewBox="0 0 48 36" fill="none" xmlns="http://www.w3.org/2000/svg">
<path d="M47.2086 19.7914L37.5102 10.093C37.293 9.87447 37.0347 9.70125 36.7501 9.58336C36.4655 9.46548 36.1604 9.40528 35.8523 9.40626H22.4375V10.9688H26.3438V22.6875H27.9062V10.9688H35.8523C35.9551 10.9687 36.0568 10.9889 36.1517 11.0281C36.2466 11.0674 36.3328 11.125 36.4055 11.1977L37.7391 12.5313H34.1562C33.7418 12.5313 33.3444 12.6959 33.0514 12.9889C32.7584 13.2819 32.5938 13.6794 32.5938 14.0938V21.125C32.5938 21.5394 32.7584 21.9368 33.0514 22.2299C33.3444 22.5229 33.7418 22.6875 34.1562 22.6875H45.875V28.9375C45.875 29.1447 45.7927 29.3434 45.6462 29.4899C45.4997 29.6365 45.3009 29.7188 45.0938 29.7188H43.4688C43.282 28.4181 42.6325 27.2284 41.6395 26.3678C40.6465 25.5072 39.3765 25.0335 38.0625 25.0335C36.7485 25.0335 35.4785 25.5072 34.4855 26.3678C33.4925 27.2284 32.843 28.4181 32.6562 29.7188H21.5938C21.407 28.4181 20.7575 27.2284 19.7645 26.3678C18.7715 25.5072 17.5015 25.0335 16.1875 25.0335C14.8735 25.0335 13.6035 25.5072 12.6105 26.3678C11.6175 27.2284 10.968 28.4181 10.7812 29.7188H9.15625C8.94905 29.7188 8.75034 29.6365 8.60382 29.4899C8.45731 29.3434 8.375 29.1447 8.375 28.9375V21.9063H6.8125V28.9375C6.8125 29.5591 7.05943 30.1553 7.49897 30.5948C7.93851 31.0343 8.53465 31.2813 9.15625 31.2813H10.7812C10.9518 32.4692 11.5095 33.5676 12.368 34.4063H0.5625V35.9688H38.0625C39.3762 35.9662 40.6451 35.4913 41.6377 34.6308C42.6302 33.7702 43.2801 32.5813 43.4688 31.2813H45.0938C45.7154 31.2813 46.3115 31.0343 46.751 30.5948C47.1906 30.1553 47.4375 29.5591 47.4375 28.9375V20.3438C47.4375 20.1366 47.3551 19.9379 47.2086 19.7914ZM12.2812 30.5C12.2812 29.7274 12.5103 28.9722 12.9396 28.3298C13.3688 27.6874 13.9789 27.1868 14.6926 26.8911C15.4064 26.5955 16.1918 26.5181 16.9496 26.6688C17.7073 26.8195 18.4033 27.1916 18.9496 27.7379C19.4959 28.2842 19.868 28.9802 20.0187 29.7379C20.1694 30.4957 20.0921 31.2811 19.7964 31.9949C19.5007 32.7086 19.0001 33.3187 18.3577 33.7479C17.7153 34.1772 16.9601 34.4063 16.1875 34.4063C15.1519 34.405 14.159 33.9931 13.4267 33.2608C12.6944 32.5285 12.2825 31.5356 12.2812 30.5ZM20.007 34.4063C20.8655 33.5676 21.4232 32.4692 21.5938 31.2813H32.6562C32.8268 32.4692 33.3845 33.5676 34.243 34.4063H20.007ZM38.0625 34.4063C37.2899 34.4063 36.5347 34.1772 35.8923 33.7479C35.2499 33.3187 34.7493 32.7086 34.4536 31.9949C34.1579 31.2811 34.0806 30.4957 34.2313 29.7379C34.382 28.9802 34.7541 28.2842 35.3004 27.7379C35.8467 27.1916 36.5427 26.8195 37.3004 26.6688C38.0582 26.5181 38.8436 26.5955 39.5574 26.8911C40.2711 27.1868 40.8812 27.6874 41.3104 28.3298C41.7397 28.9722 41.9688 29.7274 41.9688 30.5C41.9675 31.5356 41.5556 32.5285 40.8233 33.2608C40.091 33.9931 39.0981 34.405 38.0625 34.4063ZM34.1562 21.125V14.0938H39.3016L45.875 20.6672V21.125H34.1562Z" fill="#FFC582"/>
<path d="M16.9688 29.7188H15.4062V31.2812H16.9688V29.7188Z" fill="#FFC582"/>
<path d="M38.8438 29.7188H37.2812V31.2812H38.8438V29.7188Z" fill="#FFC582"/>
<path d="M4.46875 27.375H0.5625V28.9375H4.46875V27.375Z" fill="#FFC582"/>
<path d="M4.46875 24.25H2.125V25.8125H4.46875V24.25Z" fill="#FFC582"/>
<path d="M4.46875 21.125H2.90625V22.6875H4.46875V21.125Z" fill="#FFC582"/>
<path d="M10.7188 20.3437C12.7275 20.3437 14.6911 19.7481 16.3613 18.6321C18.0314 17.5161 19.3332 15.9299 20.1019 14.0741C20.8706 12.2183 21.0717 10.1762 20.6798 8.20611C20.288 6.23599 19.3207 4.42633 17.9003 3.00595C16.4799 1.58557 14.6703 0.618285 12.7001 0.226404C10.73 -0.165477 8.68793 0.0356505 6.83212 0.804353C4.97631 1.57305 3.39012 2.87481 2.27414 4.54499C1.15815 6.21518 0.5625 8.17878 0.5625 10.1875C0.565602 12.8802 1.63663 15.4616 3.54062 17.3656C5.44462 19.2696 8.0261 20.3406 10.7188 20.3437ZM10.7188 1.59375C12.4184 1.59375 14.0799 2.09777 15.4932 3.04206C16.9064 3.98635 18.0079 5.32851 18.6583 6.89881C19.3088 8.46912 19.479 10.197 19.1474 11.8641C18.8158 13.5311 17.9973 15.0623 16.7955 16.2642C15.5936 17.4661 14.0623 18.2845 12.3953 18.6161C10.7283 18.9477 9.00037 18.7775 7.43006 18.1271C5.85976 17.4766 4.5176 16.3752 3.57331 14.9619C2.62901 13.5487 2.125 11.8872 2.125 10.1875C2.12769 7.90912 3.03396 5.72483 4.64502 4.11377C6.25608 2.50271 8.44037 1.59644 10.7188 1.59375Z" fill="#FFC582"/>
<path d="M10.7188 17.2188C10.9259 17.2187 11.1246 17.1364 11.2711 16.9898C11.7742 16.4867 16.1875 11.9766 16.1875 8.625C16.1875 7.1746 15.6113 5.7836 14.5857 4.75801C13.5602 3.73242 12.1692 3.15625 10.7188 3.15625C9.26835 3.15625 7.87735 3.73242 6.85176 4.75801C5.82617 5.7836 5.25 7.1746 5.25 8.625C5.25 11.9766 9.66328 16.4867 10.1664 16.9898C10.3129 17.1364 10.5116 17.2187 10.7188 17.2188ZM10.7188 4.71875C11.7544 4.71999 12.7472 5.13194 13.4795 5.86423C14.2118 6.59653 14.6238 7.58938 14.625 8.625C14.625 10.6297 12.1664 13.7273 10.7188 15.3055C9.27109 13.7273 6.8125 10.6297 6.8125 8.625C6.81374 7.58938 7.22569 6.59653 7.95798 5.86423C8.69028 5.13194 9.68313 4.71999 10.7188 4.71875Z" fill="#FFC582"/>
<path d="M13.0625 8.625C13.0625 8.16145 12.925 7.70831 12.6675 7.32288C12.41 6.93746 12.0439 6.63705 11.6157 6.45966C11.1874 6.28227 10.7162 6.23585 10.2615 6.32629C9.80686 6.41672 9.38925 6.63994 9.06147 6.96772C8.73369 7.2955 8.51047 7.71311 8.42004 8.16776C8.3296 8.6224 8.37602 9.09365 8.55341 9.52191C8.7308 9.95018 9.03121 10.3162 9.41663 10.5738C9.80206 10.8313 10.2552 10.9687 10.7187 10.9687C11.3404 10.9687 11.9365 10.7218 12.376 10.2823C12.8156 9.84274 13.0625 9.2466 13.0625 8.625ZM9.9375 8.625C9.9375 8.47048 9.98332 8.31944 10.0692 8.19096C10.155 8.06248 10.277 7.96235 10.4198 7.90322C10.5625 7.84409 10.7196 7.82862 10.8712 7.85876C11.0227 7.88891 11.1619 7.96331 11.2712 8.07257C11.3804 8.18183 11.4548 8.32104 11.485 8.47258C11.5151 8.62413 11.4997 8.78122 11.4405 8.92397C11.3814 9.06673 11.2813 9.18874 11.1528 9.27459C11.0243 9.36043 10.8733 9.40625 10.7187 9.40625C10.5115 9.40625 10.3128 9.32394 10.1663 9.17743C10.0198 9.03091 9.9375 8.8322 9.9375 8.625Z" fill="#FFC582"/>
<path d="M33.375 24.25H30.25V25.8125H33.375V24.25Z" fill="#FFC582"/>
</svg>
