<svg width="47" height="47" viewBox="0 0 47 47" fill="none" xmlns="http://www.w3.org/2000/svg">
<g clip-path="url(#clip0)">
<path d="M20.2874 37.4499C18.3956 36.9013 16.5711 35.9977 15.003 34.8427C13.9441 34.0624 12.9727 33.1555 12.1096 32.1339C11.2942 31.1683 10.5509 30.0524 9.97571 28.9236C9.66374 28.3115 9.38979 27.6796 9.15599 27.0335C8.67621 25.7092 8.36604 24.3251 8.22942 22.9234C7.96084 20.1706 8.37787 17.3815 9.4321 14.8453C9.5429 14.8241 9.57948 14.817 9.62322 14.804C10.1331 14.652 10.6194 14.3971 11.0292 14.0675C12.1086 13.199 12.7099 11.9519 12.7221 10.5556C12.7332 9.30807 12.2613 7.99709 11.4276 6.959C11.2444 6.73094 10.9371 6.64345 10.6613 6.74062C9.40521 7.18275 8.31297 8.04729 7.66429 9.11336C6.93852 10.306 6.7915 11.683 7.25049 12.99C7.42476 13.4863 7.70338 13.9592 8.05658 14.3576C8.07415 14.3773 8.09064 14.3942 8.11718 14.4189C7.89665 14.959 7.70302 15.5087 7.53628 16.067C7.03319 15.2957 6.30383 14.6997 5.40523 14.3415C4.24629 13.88 2.85356 13.8456 1.58418 14.2472C1.3052 14.3354 1.11229 14.5903 1.10296 14.8826C1.06065 16.2133 1.47194 17.5447 2.2307 18.5347C3.07982 19.6431 4.31048 20.2785 5.69496 20.3237C5.73763 20.3248 5.7803 20.3255 5.82297 20.3255C6.15036 20.3255 6.48169 20.2842 6.8037 20.2057C6.75851 20.9613 6.76067 21.7204 6.81015 22.4784C5.93557 21.7917 4.85731 21.4597 3.70734 21.5361C2.46235 21.6189 1.19082 22.1883 0.218343 23.0977C0.00462854 23.2978 -0.0595576 23.6108 0.0580572 23.8783C0.593778 25.0975 1.53828 26.1216 2.64989 26.6882C3.3147 27.027 4.01967 27.197 4.72536 27.197C5.34032 27.197 5.95601 27.0679 6.54659 26.809C6.87003 26.6674 7.17841 26.4787 7.45882 26.2554C7.70768 27.1382 8.02251 27.9981 8.40082 28.8296C7.58791 28.6317 6.73126 28.6672 5.89433 28.9451C4.70994 29.3377 3.622 30.2076 2.90914 31.3321C2.75244 31.5792 2.76893 31.8983 2.94966 32.1278C3.77404 33.1735 4.94553 33.9279 6.16363 34.1972C6.50607 34.2729 6.8478 34.3105 7.18487 34.3105C8.1889 34.3105 9.15097 33.9778 9.96603 33.3363C10.2389 33.1218 10.4863 32.8669 10.6993 32.5861C10.8162 32.7335 10.9349 32.8794 11.0565 33.0236C11.5061 33.5557 11.9827 34.0588 12.4836 34.5318C11.736 34.6569 11.0249 34.9732 10.3981 35.4727C9.42206 36.2497 8.70131 37.442 8.42018 38.7433C8.35851 39.0295 8.48401 39.3231 8.73322 39.4763C9.66303 40.0475 10.7438 40.3544 11.784 40.3544C12.0132 40.3544 12.2405 40.3394 12.4639 40.3092C13.8473 40.1217 15.0095 39.3687 15.7352 38.1889C15.9188 37.891 16.0641 37.5632 16.167 37.2233C17.3435 37.8738 18.5949 38.3948 19.9034 38.7745C19.9676 38.7928 20.0321 38.8018 20.096 38.8018C20.3947 38.8018 20.67 38.606 20.7575 38.3044C20.8637 37.9387 20.6532 37.556 20.2874 37.4499ZM8.38755 11.2735C8.4166 10.8754 8.51915 10.4835 8.68553 10.121C9.0771 9.26755 9.80718 8.62282 10.6506 8.23125C11.8712 10.0934 11.3559 12.0351 10.165 12.9932C9.871 13.2299 9.38835 13.6028 9.02188 13.3697C8.41409 12.9832 8.34165 11.9089 8.38755 11.2735ZM6.73951 24.6317C6.73377 24.7027 6.72015 24.7705 6.69935 24.835C6.59321 25.1649 6.30455 25.4098 5.99294 25.5464C4.59268 26.1596 2.63303 25.7196 1.54545 23.7768C1.48485 23.6682 2.71766 23.1522 2.84244 23.1135C3.34804 22.9557 3.88627 22.8854 4.41482 22.9331C4.9319 22.9797 5.44037 23.1414 5.86744 23.4416C6.23498 23.6997 6.77824 24.1419 6.73951 24.6317ZM6.35009 18.8955C6.1561 18.9457 5.9388 18.9521 5.73942 18.9453C4.21187 18.8958 2.63267 17.6541 2.48852 15.4319C4.66691 14.9672 6.29021 16.1509 6.75242 17.6074C6.93279 18.1751 7.02602 18.7205 6.35009 18.8955ZM9.74873 31.4648C9.69924 31.7793 9.34676 32.0694 9.11368 32.2526C7.91243 33.1978 5.90473 33.2642 4.36391 31.6563C4.94409 30.9112 5.75162 30.3392 6.68823 30.1578C7.49504 30.0018 9.50597 30.2675 9.74299 31.292C9.75662 31.3501 9.75769 31.4078 9.74873 31.4648ZM14.5613 37.466C13.7602 38.7677 11.8988 39.5229 9.8979 38.5454C10.2192 37.5396 10.9008 36.6689 11.869 36.22C12.5274 35.9148 14.0112 35.5602 14.6484 36.0826C14.8026 36.2092 14.8757 36.3526 14.8958 36.5036C14.9378 36.8235 14.7398 37.1763 14.5613 37.466Z" fill="#FFC582"/>
<path d="M30.3288 32.7256C30.6594 32.4857 30.8219 32.0863 30.753 31.6832L29.6629 25.3288L34.28 20.8282C34.5726 20.5431 34.6759 20.1247 34.5497 19.736C34.4235 19.3473 34.0939 19.069 33.6895 19.0106L27.3089 18.0833L24.4556 12.3019C24.2745 11.9354 23.9084 11.7077 23.4996 11.7077C23.0912 11.7077 22.7247 11.9354 22.544 12.3019L21.3711 14.6782C21.2026 15.0195 21.3428 15.433 21.6841 15.6015C22.0259 15.7701 22.439 15.6299 22.6075 15.2885L23.4996 13.4802L26.1453 18.841C26.3005 19.1554 26.6007 19.3734 26.9478 19.424L32.8636 20.2835L28.5825 24.4563C28.3315 24.7013 28.2171 25.0537 28.2763 25.3994L29.2868 31.2916L23.9956 28.5098C23.685 28.3462 23.3143 28.3462 23.0037 28.5098L17.7125 31.2916L18.723 25.3998C18.7825 25.0541 18.6678 24.7013 18.4164 24.4563L14.1356 20.2835L20.0515 19.424C20.3986 19.3734 20.6988 19.1554 20.854 18.841L21.1882 18.164C21.3568 17.8222 21.2166 17.4091 20.8752 17.2406C20.5338 17.0721 20.1204 17.2123 19.9518 17.5536L19.6904 18.0833L13.3102 19.0102C12.9057 19.069 12.5762 19.3469 12.4499 19.7356C12.3234 20.1243 12.427 20.5428 12.7192 20.8282L17.3363 25.3284L16.2466 31.6832C16.1774 32.0859 16.3398 32.4854 16.6705 32.7256C16.8573 32.8612 17.0757 32.9304 17.2958 32.9304C17.4654 32.9304 17.6354 32.8895 17.7928 32.8066L23.4996 29.8064L29.2065 32.8066C29.5683 32.9971 29.9982 32.9659 30.3288 32.7256Z" fill="#FFC582"/>
<path d="M20.9362 9.40953C20.9864 9.75234 21.2811 9.99868 21.6171 9.99868C21.6504 9.99868 21.6845 9.99617 21.7182 9.99115C22.0951 9.93593 22.3554 9.5856 22.3002 9.20909L22.0291 7.36849C21.9739 6.99162 21.6232 6.73129 21.2467 6.78687C20.8702 6.84209 20.6099 7.19242 20.6651 7.56893L20.9362 9.40953Z" fill="#FFC582"/>
<path d="M17.7778 11.4334C17.9083 11.6442 18.1338 11.7601 18.3648 11.7601C18.4885 11.7601 18.614 11.7267 18.7269 11.6568C19.0504 11.4563 19.1504 11.0314 18.9503 10.7076L18.0191 9.20336C17.8186 8.87956 17.3937 8.77951 17.0699 8.97996C16.7461 9.18041 16.6464 9.60497 16.8469 9.92877L17.7778 11.4334Z" fill="#FFC582"/>
<path d="M25.3883 9.99115C25.4224 9.99617 25.4561 9.99868 25.4898 9.99868C25.8258 9.99868 26.1202 9.75234 26.1707 9.40953L26.4414 7.56893C26.497 7.19242 26.2367 6.84209 25.8598 6.78687C25.484 6.73129 25.133 6.99162 25.0774 7.36849L24.8067 9.20909C24.7511 9.5856 25.0114 9.93593 25.3883 9.99115Z" fill="#FFC582"/>
<path d="M28.3799 11.6568C28.4929 11.7267 28.618 11.76 28.7421 11.76C28.9727 11.76 29.1982 11.6442 29.3287 11.4334L30.26 9.92875C30.4604 9.60495 30.3604 9.18039 30.0369 8.97994C29.7135 8.7795 29.2882 8.87954 29.0878 9.20298L28.1566 10.7076C27.9561 11.0314 28.0561 11.4563 28.3799 11.6568Z" fill="#FFC582"/>
<path d="M46.7816 23.0977C45.8092 22.1879 44.5376 21.6189 43.2926 21.536C42.1416 21.4593 41.0637 21.7917 40.1895 22.478C40.2393 21.72 40.2411 20.9609 40.1963 20.2057C40.5179 20.2842 40.8493 20.3255 41.1767 20.3255C41.2197 20.3255 41.2624 20.3248 41.305 20.3233C42.6895 20.2781 43.9198 19.6431 44.7693 18.5347C45.528 17.5443 45.9393 16.2133 45.897 14.8822C45.8877 14.59 45.6948 14.3354 45.4158 14.2472C44.1464 13.8452 42.7537 13.8796 41.5948 14.3415C40.6962 14.6993 39.9668 15.2953 39.4637 16.0666C39.297 15.5086 39.103 14.9586 38.8828 14.4189C38.9093 14.3938 38.9262 14.377 38.9434 14.3572C39.2966 13.9589 39.5752 13.4859 39.7495 12.9896C40.2085 11.6826 40.0615 10.306 39.3357 9.11299C38.687 8.04728 37.5944 7.18238 36.3387 6.74025C36.0629 6.64308 35.7556 6.73057 35.5724 6.95899C34.7383 7.99672 34.2668 9.3077 34.2779 10.5552C34.2901 11.9515 34.8914 13.199 35.9708 14.0672C36.3806 14.397 36.8669 14.652 37.3764 14.804C37.4205 14.8169 37.4571 14.8241 37.5679 14.8449C38.6221 17.3815 39.0391 20.1706 38.7706 22.923C38.5113 25.5791 37.6421 28.0956 36.2311 30.3113C35.8345 30.9338 35.3762 31.5584 34.8904 32.1336C34.2876 32.8471 33.6264 33.5112 32.9146 34.1158C32.353 34.5931 31.7929 35.0496 31.1611 35.4261C30.5372 35.7976 29.9 36.1777 29.2441 36.4889C28.428 36.8765 27.5803 37.1982 26.7125 37.4499C26.3468 37.556 26.1363 37.9383 26.2424 38.304C26.3299 38.6056 26.6053 38.8014 26.904 38.8014C26.9678 38.8014 27.0324 38.7924 27.0966 38.7741C28.405 38.3944 29.6565 37.8734 30.833 37.2229C30.9359 37.5632 31.0811 37.8906 31.2647 38.1886C31.6853 38.8724 32.2422 39.4085 32.9196 39.7814C33.2531 39.965 33.6723 39.8438 33.8562 39.5103C34.0398 39.1768 33.9182 38.7576 33.5848 38.5741C33.119 38.3173 32.7331 37.9444 32.4387 37.466C32.1042 36.9224 31.9959 36.3182 32.6822 36.0489C34.6038 35.2959 36.5219 36.7313 37.101 38.5421C36.7969 38.6866 36.4796 38.7964 36.1526 38.8706C35.7814 38.9545 35.5487 39.3238 35.6326 39.695C35.7054 40.0152 35.9894 40.2321 36.3042 40.2321C36.3548 40.2321 36.4061 40.2268 36.4574 40.2149C37.0946 40.0708 37.7034 39.8219 38.2668 39.4759C38.516 39.3228 38.6415 39.0291 38.5798 38.7433C38.299 37.4417 37.5779 36.2494 36.6019 35.4723C35.9751 34.9732 35.2644 34.6566 34.5164 34.5314C35.0173 34.0584 35.4942 33.5553 35.9435 33.0236C36.0654 32.8794 36.1841 32.7331 36.301 32.5857C36.5137 32.8669 36.7614 33.1215 37.034 33.3363C37.849 33.9778 38.8111 34.3102 39.8155 34.3102C40.1522 34.3102 40.4939 34.2729 40.8364 34.1968C42.0545 33.9276 43.226 33.1731 44.0503 32.1278C44.2314 31.898 44.2475 31.5788 44.0912 31.3318C43.378 30.2073 42.2901 29.3374 41.1057 28.9447C40.2687 28.6668 39.4121 28.6317 38.5992 28.8292C38.9775 27.9977 39.2923 27.1378 39.5412 26.255C39.8216 26.4787 40.1303 26.6674 40.4534 26.809C41.0443 27.0679 41.6597 27.1966 42.2746 27.1966C42.9803 27.1966 43.6853 27.0266 44.3501 26.6878C45.4617 26.1212 46.4066 25.0971 46.9419 23.8779C47.0592 23.6104 46.995 23.2974 46.7816 23.0977ZM38.5601 12.1261C38.4722 12.5636 38.3718 13.3001 37.816 13.3833C37.4291 13.4414 37.1222 13.2245 36.8346 12.9932C35.6441 12.0347 35.1285 10.0933 36.3494 8.23124C36.4513 8.07561 37.6912 9.18578 37.7992 9.31343C38.1366 9.71325 38.3869 10.1855 38.5171 10.6929C38.6368 11.1598 38.6547 11.6532 38.5601 12.1261ZM42.6357 31.6563C41.0953 33.2642 39.0876 33.1978 37.8863 32.2526C37.6184 32.0418 37.3854 31.7725 37.2107 31.4709C37.2018 31.4512 37.1889 31.4218 37.1745 31.3888C37.2333 31.3006 37.2914 31.2117 37.3488 31.1227C37.5292 30.9097 37.7411 30.7233 37.9724 30.577C39.264 29.7598 41.2681 29.8992 42.6357 31.6563ZM40.2472 17.6074C40.7098 16.1505 42.3327 14.9675 44.5111 15.4319C44.3673 17.654 42.7878 18.8958 41.2602 18.9453C40.8916 18.9578 40.2985 18.9618 40.1386 18.5544C40.0245 18.264 40.1586 17.8875 40.2472 17.6074ZM41.0067 25.5464C40.7005 25.412 40.3297 25.2502 40.1823 24.9279C39.861 24.2261 40.9328 23.5965 41.3904 23.3354C41.7633 23.1224 42.1785 22.9862 42.6038 22.9313C43.629 22.799 44.6452 23.1547 45.4545 23.7768C44.3666 25.72 42.4066 26.1596 41.0067 25.5464Z" fill="#FFC582"/>
</g>
<defs>
<clipPath id="clip0">
<rect width="47" height="47" fill="white"/>
</clipPath>
</defs>
</svg>
