<svg width="46" height="46" viewBox="0 0 46 46" fill="none" xmlns="http://www.w3.org/2000/svg">
<path d="M19.7358 7.73267C18.1637 7.7326 16.627 8.19871 15.3198 9.07205C14.0127 9.9454 12.9939 11.1867 12.3922 12.6391C11.7906 14.0915 11.6332 15.6897 11.9399 17.2315C12.2465 18.7734 13.0035 20.1897 14.1151 21.3013C15.2268 22.4129 16.643 23.1699 18.1849 23.4766C19.7267 23.7832 21.3249 23.6258 22.7773 23.0242C24.2297 22.4225 25.471 21.4037 26.3444 20.0966C27.2177 18.7894 27.6838 17.2527 27.6837 15.6806C27.6813 13.5734 26.8431 11.5533 25.3531 10.0633C23.8631 8.57331 21.843 7.73515 19.7358 7.73267ZM19.7358 22.3711C18.4125 22.3712 17.119 21.9788 16.0187 21.2437C14.9184 20.5086 14.0608 19.4637 13.5543 18.2412C13.0479 17.0187 12.9154 15.6734 13.1735 14.3756C13.4316 13.0777 14.0688 11.8856 15.0044 10.9499C15.9401 10.0141 17.1322 9.37689 18.4301 9.11871C19.7279 8.86053 21.0731 8.993 22.2957 9.49938C23.5182 10.0058 24.5632 10.8633 25.2983 11.9635C26.0335 13.0638 26.4259 14.3573 26.4259 15.6806C26.4239 17.4544 25.7184 19.1549 24.4642 20.4092C23.2101 21.6634 21.5096 22.369 19.7358 22.3711Z" fill="#FFC582"/>
<path d="M21.0824 13.7109C21.0824 13.8777 21.1486 14.0376 21.2666 14.1556C21.3845 14.2735 21.5445 14.3398 21.7113 14.3398C21.8781 14.3398 22.0381 14.2735 22.156 14.1556C22.2739 14.0376 22.3402 13.8777 22.3402 13.7109C22.3391 13.1305 22.1439 12.5673 21.7857 12.1106C21.4276 11.654 20.927 11.3303 20.3636 11.1909V10.35C20.3636 10.1832 20.2974 10.0232 20.1794 9.90529C20.0615 9.78735 19.9015 9.72109 19.7347 9.72109C19.5679 9.72109 19.408 9.78735 19.29 9.90529C19.1721 10.0232 19.1058 10.1832 19.1058 10.35V11.1935C18.5446 11.3339 18.0464 11.6579 17.6904 12.114C17.3344 12.57 17.1411 13.132 17.1411 13.7105C17.1411 14.2891 17.3344 14.851 17.6904 15.3071C18.0464 15.7631 18.5446 16.0871 19.1058 16.2276V18.8241C18.8933 18.7103 18.7155 18.5412 18.5912 18.3346C18.467 18.1281 18.4009 17.8918 18.4 17.6507C18.4 17.4839 18.3337 17.3239 18.2158 17.206C18.0979 17.0881 17.9379 17.0218 17.7711 17.0218C17.6043 17.0218 17.4443 17.0881 17.3264 17.206C17.2085 17.3239 17.1422 17.4839 17.1422 17.6507C17.1436 18.2287 17.3375 18.7897 17.6932 19.2452C18.0489 19.7007 18.5462 20.0248 19.1065 20.1663V21.0098C19.1065 21.1766 19.1728 21.3365 19.2907 21.4545C19.4087 21.5724 19.5686 21.6387 19.7354 21.6387C19.9022 21.6387 20.0622 21.5724 20.1802 21.4545C20.2981 21.3365 20.3644 21.1766 20.3644 21.0098V20.1706C20.9281 20.0321 21.4292 19.7086 21.7874 19.2517C22.1456 18.7949 22.3403 18.2311 22.3403 17.6505C22.3403 17.07 22.1456 16.5062 21.7874 16.0493C21.4292 15.5925 20.9281 15.2689 20.3644 15.1304V12.531C20.5801 12.6436 20.7611 12.8131 20.8876 13.021C21.0142 13.2289 21.0815 13.4675 21.0824 13.7109ZM18.4004 13.7109C18.4013 13.4697 18.4674 13.2332 18.5918 13.0266C18.7162 12.82 18.8942 12.6508 19.1069 12.5372V14.885C18.8941 14.7712 18.7161 14.602 18.5916 14.3954C18.4672 14.1887 18.401 13.9521 18.4 13.7109H18.4004ZM21.0824 17.6507C21.0814 17.8942 21.014 18.1328 20.8873 18.3407C20.7606 18.5487 20.5796 18.718 20.3636 18.8305V16.4705C20.5796 16.5831 20.7607 16.7525 20.8874 16.9605C21.014 17.1685 21.0815 17.4072 21.0824 17.6507Z" fill="#FFC582"/>
<path d="M24.0483 25.3086H10.9023C10.7355 25.3086 10.5756 25.3749 10.4576 25.4928C10.3397 25.6108 10.2734 25.7707 10.2734 25.9375C10.2734 26.1043 10.3397 26.2643 10.4576 26.3822C10.5756 26.5002 10.7355 26.5664 10.9023 26.5664H24.0483C24.2151 26.5664 24.375 26.5002 24.493 26.3822C24.6109 26.2643 24.6772 26.1043 24.6772 25.9375C24.6772 25.7707 24.6109 25.6108 24.493 25.4928C24.375 25.3749 24.2151 25.3086 24.0483 25.3086Z" fill="#FFC582"/>
<path d="M10.9023 30.3374H18.7784C18.9452 30.3374 19.1052 30.2711 19.2231 30.1532C19.341 30.0352 19.4073 29.8752 19.4073 29.7085C19.4073 29.5417 19.341 29.3817 19.2231 29.2637C19.1052 29.1458 18.9452 29.0795 18.7784 29.0795H10.9023C10.7355 29.0795 10.5756 29.1458 10.4576 29.2637C10.3397 29.3817 10.2734 29.5417 10.2734 29.7085C10.2734 29.8752 10.3397 30.0352 10.4576 30.1532C10.5756 30.2711 10.7355 30.3374 10.9023 30.3374Z" fill="#FFC582"/>
<path d="M24.0483 32.8505H10.9023C10.7355 32.8505 10.5756 32.9167 10.4576 33.0347C10.3397 33.1526 10.2734 33.3126 10.2734 33.4794C10.2734 33.6462 10.3397 33.8061 10.4576 33.9241C10.5756 34.042 10.7355 34.1083 10.9023 34.1083H24.0483C24.2151 34.1083 24.375 34.042 24.493 33.9241C24.6109 33.8061 24.6772 33.6462 24.6772 33.4794C24.6772 33.3126 24.6109 33.1526 24.493 33.0347C24.375 32.9167 24.2151 32.8505 24.0483 32.8505Z" fill="#FFC582"/>
<path d="M18.7784 36.6203H10.9023C10.7355 36.6203 10.5756 36.6866 10.4576 36.8045C10.3397 36.9225 10.2734 37.0824 10.2734 37.2492C10.2734 37.416 10.3397 37.576 10.4576 37.6939C10.5756 37.8119 10.7355 37.8781 10.9023 37.8781H18.7784C18.9452 37.8781 19.1052 37.8119 19.2231 37.6939C19.341 37.576 19.4073 37.416 19.4073 37.2492C19.4073 37.0824 19.341 36.9225 19.2231 36.8045C19.1052 36.6866 18.9452 36.6203 18.7784 36.6203Z" fill="#FFC582"/>
<path d="M40.5888 24.9863C40.5084 24.9282 40.4153 24.8898 40.3171 24.8745C40.219 24.8591 40.1187 24.8671 40.0243 24.8979C37.5108 25.722 34.9175 24.8767 34.3203 23.8978V11.8228C34.3202 11.656 34.2539 11.4961 34.1359 11.3782L29.0734 6.31824C28.9555 6.20027 28.7956 6.13396 28.6288 6.13388H5.77978C5.61299 6.13388 5.45302 6.20014 5.33508 6.31808C5.21714 6.43602 5.15088 6.59599 5.15088 6.76278V43.419C5.15088 43.5858 5.21714 43.7458 5.33508 43.8637C5.45302 43.9817 5.61299 44.0479 5.77978 44.0479H33.6914C33.8582 44.0479 34.0181 43.9817 34.1361 43.8637C34.254 43.7458 34.3203 43.5858 34.3203 43.419V40.7212C34.5431 40.456 35.3265 39.6711 37.5841 38.4827C40.8117 36.7825 40.849 33.8827 40.849 33.7601V25.4945C40.8489 25.3953 40.8252 25.2975 40.78 25.2091C40.7348 25.1208 40.6693 25.0445 40.5888 24.9863ZM29.2592 8.28114L32.1734 11.195H29.2592V8.28114ZM6.40869 42.7901V7.39169H28.0014V11.8239C28.0013 11.9065 28.0176 11.9883 28.0491 12.0646C28.0807 12.1409 28.1271 12.2103 28.1855 12.2687C28.2439 12.3271 28.3132 12.3734 28.3896 12.405C28.4659 12.4366 28.5477 12.4528 28.6303 12.4528H33.0625V23.8981C32.4652 24.8767 29.8723 25.7223 27.3584 24.8979C27.2639 24.8667 27.1633 24.8584 27.0649 24.8736C26.9665 24.8888 26.8731 24.9272 26.7924 24.9855C26.7118 25.0439 26.6461 25.1205 26.6008 25.2092C26.5555 25.2978 26.5319 25.396 26.5319 25.4956V33.7612C26.5319 33.8837 26.5678 36.7835 29.7968 38.4837C32.0796 39.6858 32.8555 40.475 33.0607 40.7169V42.7912L6.40869 42.7901ZM39.5912 33.7558C39.5912 33.8482 39.5319 36.035 36.998 37.3697C35.8035 37.9498 34.6917 38.6864 33.6917 39.5601C32.6917 38.6864 31.5799 37.9498 30.3855 37.3697C27.8515 36.035 27.7933 33.8478 27.7922 33.7601V26.3128C30.0376 26.7764 32.4828 26.2596 33.6921 25.1067C34.9014 26.2596 37.3458 26.7771 39.5919 26.3128L39.5912 33.7558Z" fill="#FFC582"/>
<path d="M36.7195 27.3006C36.5893 27.1966 36.423 27.1485 36.2574 27.1669C36.0917 27.1853 35.9401 27.2687 35.8358 27.3987L33.5358 30.2737L32.4444 29.6556C32.3725 29.6129 32.2927 29.585 32.2099 29.5734C32.127 29.5619 32.0427 29.567 31.9618 29.5885C31.881 29.6099 31.8052 29.6473 31.739 29.6984C31.6727 29.7495 31.6174 29.8134 31.5761 29.8861C31.5349 29.9589 31.5085 30.0392 31.4987 30.1222C31.4888 30.2053 31.4956 30.2895 31.5187 30.3699C31.5418 30.4503 31.5807 30.5253 31.6332 30.5905C31.6856 30.6557 31.7505 30.7098 31.8241 30.7496L33.3813 31.6329C33.5113 31.7067 33.6634 31.7318 33.8102 31.7035C33.9571 31.6753 34.089 31.5956 34.1823 31.4787L36.8176 28.1847C36.8693 28.1202 36.9077 28.0462 36.9307 27.9669C36.9538 27.8875 36.9609 27.8044 36.9518 27.7223C36.9427 27.6402 36.9175 27.5607 36.8776 27.4884C36.8378 27.416 36.784 27.3522 36.7195 27.3006Z" fill="#FFC582"/>
</svg>
