<svg width="44" height="47" viewBox="0 0 44 47" fill="none" xmlns="http://www.w3.org/2000/svg">
<g clip-path="url(#clip0)">
<path d="M28.9302 28.4516H20.6713V20.5632C20.6713 20.1406 20.4049 19.8589 20.0052 19.8589C19.6056 19.8589 19.3391 20.1406 19.3391 20.5632V32.8889L19.2059 32.8184L14.8767 24.437C14.3438 23.0989 13.1449 22.2537 11.8129 22.2537H2.95459C2.55493 22.2537 2.28852 22.5354 2.28852 22.958V29.4378C0.956451 29.7194 0.0240479 30.9872 0.0240479 32.4663C0.0240479 35.9879 0.0240479 38.7347 0.0240479 42.4677C0.0240479 42.8903 0.290461 43.172 0.690124 43.172H2.35523C2.48848 45.0737 4.02033 46.6232 5.95185 46.6232C7.81674 46.6232 9.34868 45.0737 9.54847 43.172H11.8796C12.0794 45.1441 13.6113 46.6232 15.4762 46.6232C17.3411 46.6232 18.873 45.0737 19.0728 43.172H20.0053C20.405 43.172 20.6714 42.8199 20.6714 42.4677C20.6714 35.4245 20.6714 36.974 20.6714 29.8603H28.9303C29.3299 29.8603 29.5963 29.5786 29.5963 29.156C29.5963 28.7334 29.3298 28.4516 28.9302 28.4516ZM3.62067 23.5919H11.8129V23.7328C12.6122 23.7328 13.3448 24.2258 13.6778 25.0709C13.6778 25.0709 13.6778 25.1414 13.7445 25.1414L17.0747 31.6211L17.008 31.5507C16.675 31.4098 16.2754 31.4098 16.009 31.6211C15.676 31.8324 15.5428 32.1846 15.5428 32.5368V34.1567H10.2811V30.7055C10.2811 29.9308 9.68164 29.2969 8.94902 29.2969H3.62067V23.5919ZM5.95176 45.2145C4.68632 45.2145 3.68721 44.158 3.68721 42.8198C3.68721 41.4816 4.68624 40.4251 5.95176 40.4251C7.21729 40.4251 8.21632 41.4815 8.21632 42.8198C8.21632 44.1579 7.15067 45.2145 5.95176 45.2145ZM15.4762 45.2145C14.2107 45.2145 13.2116 44.158 13.2116 42.8198C13.2116 41.4816 14.2107 40.4251 15.4762 40.4251C16.7417 40.4251 17.7407 41.4815 17.7407 42.8198C17.7407 44.1579 16.7416 45.2145 15.4762 45.2145ZM19.3392 41.7633H18.873C18.4068 40.1434 17.0748 39.0164 15.4097 39.0164C13.7445 39.0164 12.3459 40.2138 11.9463 41.7633H9.34868C8.88248 40.1434 7.55042 39.0164 5.88531 39.0164C4.22021 39.0164 2.82152 40.2138 2.42194 41.7633H1.35611V38.1008H19.3392V41.7633ZM19.4058 36.6922H1.35611V32.5367C1.35611 31.5506 2.08873 30.7759 2.95459 30.7759H8.88231V34.9314C8.88231 35.354 9.14872 35.6357 9.54839 35.6357H16.1422C16.5418 35.6357 16.8083 35.354 16.8083 34.9314V33.1001L19.4058 34.5792V36.6922H19.4058Z" fill="#FFC582"/>
<path d="M43.7162 15.6321L22.4029 0.277861C22.2031 0.136953 21.8701 0.136953 21.6703 0.277861L0.290444 15.6321C0.0240313 15.773 -0.0425934 16.1251 0.0240313 16.4068C0.0906561 16.6885 0.357069 16.8998 0.690107 16.8998H1.08977V20.9144C1.08977 21.337 1.35618 21.6188 1.75585 21.6188C2.15551 21.6188 2.42192 21.337 2.42192 20.9144V16.8998H41.5851V45.2135H20.8044C20.4048 45.2135 20.1383 45.4952 20.1383 45.9178C20.1383 46.3405 20.4048 46.6222 20.8044 46.6222H42.2509C42.6506 46.6222 42.917 46.3405 42.917 45.9178V16.8998H43.3166C43.583 16.8998 43.8495 16.6885 43.9827 16.4068C44.0493 16.1251 43.916 15.7729 43.7162 15.6321ZM2.82141 15.4912L22.0033 1.68658L41.1852 15.4913H2.82141V15.4912Z" fill="#FFC582"/>
<path d="M29.6628 34.7906H22.736C22.3363 34.7906 22.0699 35.0723 22.0699 35.495V42.8203C22.0699 43.243 22.3363 43.5247 22.736 43.5247H29.6628C30.0624 43.5247 30.3289 43.243 30.3289 42.8203V35.495C30.3289 35.0723 29.9958 34.7906 29.6628 34.7906ZM28.9967 42.1158H23.402V36.1992H28.9967V42.1158Z" fill="#FFC582"/>
<path d="M39.387 34.7906H32.4602C32.0605 34.7906 31.7941 35.0723 31.7941 35.495V42.8203C31.7941 43.243 32.0605 43.5247 32.4602 43.5247H39.387C39.7867 43.5247 40.0531 43.243 40.0531 42.8203V35.495C40.053 35.0723 39.7866 34.7906 39.387 34.7906ZM38.7209 42.1158H33.1262V36.1992H38.7209V42.1158Z" fill="#FFC582"/>
<path d="M39.387 24.5075H32.4602C32.0605 24.5075 31.7941 24.7892 31.7941 25.2119V32.5372C31.7941 32.8894 32.0605 33.2416 32.4602 33.2416H39.387C39.7867 33.2416 40.0531 32.9599 40.0531 32.5372V25.2119C40.053 24.7892 39.7866 24.5075 39.387 24.5075ZM38.7209 31.8328H33.1262V25.9162H38.7209V31.8328Z" fill="#FFC582"/>
<path d="M29.6628 18.8026H22.736C22.3363 18.8026 22.0699 19.0843 22.0699 19.5069V26.8323C22.0699 27.2549 22.3363 27.5366 22.736 27.5366H29.6628C30.0624 27.5366 30.3289 27.2549 30.3289 26.8323V19.5069C30.3289 19.0843 30.0624 18.8026 29.6628 18.8026ZM28.9967 26.0574H23.402V20.1408H28.9967V26.0574Z" fill="#FFC582"/>
<path d="M22.1365 5.20911C19.8719 5.20911 18.007 7.18128 18.007 9.57611C18.007 11.9709 19.8719 13.9431 22.1365 13.9431C24.4011 13.9431 26.266 11.9709 26.266 9.57611C26.266 7.18137 24.4011 5.20911 22.1365 5.20911ZM22.1365 12.5344C20.6046 12.5344 19.3391 11.1962 19.3391 9.57611C19.3391 7.95614 20.6046 6.6178 22.1365 6.6178C23.6684 6.6178 24.9339 7.95604 24.9339 9.57611C24.9339 11.1962 23.6684 12.5344 22.1365 12.5344Z" fill="#FFC582"/>
</g>
<defs>
<clipPath id="clip0">
<rect width="44" height="46.5288" fill="white" transform="translate(0 0.133789)"/>
</clipPath>
</defs>
</svg>
