<svg width="41" height="44" viewBox="0 0 41 44" fill="none" xmlns="http://www.w3.org/2000/svg">
<g clip-path="url(#clip0)">
<path d="M4.77148 5.05653V42.6132C4.77148 43.0122 5.07729 43.3355 5.45455 43.3355H31.4082C31.7852 43.3355 32.091 43.0122 32.091 42.6132V12.2792C32.091 12.2631 32.0837 12.2494 32.0823 12.2337C32.0789 12.1703 32.0671 12.1078 32.0474 12.048C32.0398 12.0248 32.0344 12.0025 32.0249 11.9799C31.9917 11.9014 31.9455 11.8297 31.8882 11.7684L25.0583 4.54602C25.0004 4.48504 24.9323 4.43625 24.8575 4.40144C24.8369 4.39222 24.8161 4.38448 24.7947 4.37764C24.7376 4.35682 24.6783 4.34432 24.6178 4.34016C24.6063 4.34224 24.5927 4.3345 24.5784 4.3345H5.45455C5.07729 4.3345 4.77148 4.65759 4.77148 5.05653ZM29.7593 11.5569H25.2612V6.80016L29.7593 11.5569ZM6.13733 5.77885H23.8953V12.2792C23.8953 12.6778 24.2011 13.0012 24.5781 13.0012H30.7251V41.8912H6.13733V5.77885Z" fill="#FFC582"/>
<path d="M33.4571 37.5567V39.001H35.506C35.8833 39.001 36.1891 38.6779 36.1891 38.279V0.722324C36.1891 0.32338 35.8833 0 35.506 0H9.55239C9.17513 0 8.86932 0.32338 8.86932 0.722324V2.889H10.2355V1.44435H34.823V37.5567H33.4571Z" fill="#FFC582"/>
<path d="M10.2355 14.445H26.6271V15.8897H10.2355V14.445Z" fill="#FFC582"/>
<path d="M10.2355 10.1114H15.6994V11.5564H10.2355V10.1114Z" fill="#FFC582"/>
<path d="M10.2355 18.7783H21.1634V20.2233H10.2355V18.7783Z" fill="#FFC582"/>
<path d="M22.5292 18.7783H26.6271V20.2233H22.5292V18.7783Z" fill="#FFC582"/>
<path d="M10.2355 23.1117H26.6271V24.5567H10.2355V23.1117Z" fill="#FFC582"/>
<path d="M10.2355 31.7787H26.6271V33.2237H10.2355V31.7787Z" fill="#FFC582"/>
<path d="M16.3822 27.4453H26.6271V28.89H16.3822V27.4453Z" fill="#FFC582"/>
<path d="M10.2355 27.4453H15.0164V28.89H10.2355V27.4453Z" fill="#FFC582"/>
<path d="M10.2355 36.1123H12.9675V37.557H10.2355V36.1123Z" fill="#FFC582"/>
<path d="M14.3333 36.1123H26.627V37.557H14.3333V36.1123Z" fill="#FFC582"/>
</g>
<defs>
<clipPath id="clip0">
<rect width="41" height="43.3564" fill="white"/>
</clipPath>
</defs>
</svg>
