<svg width="44" height="40" viewBox="0 0 44 40" fill="none" xmlns="http://www.w3.org/2000/svg">
<g clip-path="url(#clip0)">
<path d="M43.3348 32.5958L25.2425 4.28524C24.4107 3.00914 23.2149 2.25293 21.9672 2.25293C20.6675 2.25293 19.4717 3.00914 18.6919 4.28524L0.703551 32.5958C-0.128279 33.8719 -0.232257 35.1953 0.443604 36.1878C1.06748 37.1803 2.36721 37.7475 4.03087 37.7475H40.0075C41.6192 37.7475 42.9189 37.1803 43.5947 36.1878C44.2186 35.1953 44.1146 33.8719 43.3348 32.5958ZM41.6192 35.1953C41.3592 35.5734 40.7873 35.7624 39.9555 35.7624H3.97888C3.14705 35.7624 2.52318 35.5261 2.31522 35.1953C2.05527 34.8172 2.15925 34.25 2.57517 33.5883L20.5635 5.27776C20.9794 4.61608 21.4993 4.23798 21.9672 4.23798C22.4351 4.23798 22.955 4.61608 23.3709 5.27776L41.3592 33.5883C41.7751 34.25 41.8791 34.8172 41.6192 35.1953Z" fill="#FFC582"/>
<path d="M21.9672 11.5637C21.3433 11.5637 20.8754 11.9891 20.8754 12.5562V25.6954C20.8754 26.2625 21.3433 26.6879 21.9672 26.6879C22.591 26.6879 23.0589 26.2625 23.0589 25.6954V12.5562C23.0589 11.9891 22.591 11.5637 21.9672 11.5637Z" fill="#FFC582"/>
<path d="M21.9671 32.4066C23.0295 32.4066 23.8907 31.6237 23.8907 30.6579C23.8907 29.6921 23.0295 28.9092 21.9671 28.9092C20.9048 28.9092 20.0435 29.6921 20.0435 30.6579C20.0435 31.6237 20.9048 32.4066 21.9671 32.4066Z" fill="#FFC582"/>
</g>
<defs>
<clipPath id="clip0">
<rect width="44" height="40" fill="white"/>
</clipPath>
</defs>
</svg>
