<svg width="43" height="40" viewBox="0 0 43 40" fill="none" xmlns="http://www.w3.org/2000/svg">
<path d="M21.5 29.75C21.3135 29.75 21.1347 29.6759 21.0028 29.5441C20.871 29.4122 20.7969 29.2334 20.7969 29.0469V27.6406C20.7969 27.4541 20.871 27.2753 21.0028 27.1434C21.1347 27.0116 21.3135 26.9375 21.5 26.9375C21.6865 26.9375 21.8653 27.0116 21.9972 27.1434C22.129 27.2753 22.2031 27.4541 22.2031 27.6406V29.0469C22.2031 29.2334 22.129 29.4122 21.9972 29.5441C21.8653 29.6759 21.6865 29.75 21.5 29.75Z" fill="#FFC582"/>
<path d="M37.9032 11.4687L42.4194 6.30709C42.4963 6.21928 42.5502 6.11369 42.5761 5.99985C42.6021 5.88601 42.5992 5.76751 42.5679 5.65504C42.5366 5.54256 42.4777 5.43966 42.3967 5.35562C42.3157 5.27158 42.215 5.20904 42.1037 5.17365L26.6349 0.251777C26.5046 0.21035 26.365 0.207841 26.2332 0.244558C26.1015 0.281275 25.9833 0.355623 25.8931 0.458496L21.5 5.47881L17.1069 0.458496C17.0169 0.356023 16.8991 0.281923 16.7678 0.24522C16.6364 0.208517 16.4973 0.210795 16.3672 0.251777L0.898455 5.17365C0.787194 5.20904 0.686496 5.27158 0.60545 5.35562C0.524405 5.43966 0.465563 5.54256 0.434235 5.65504C0.402907 5.76751 0.40008 5.88601 0.426009 5.99985C0.451938 6.11369 0.505806 6.21928 0.582752 6.30709L5.09681 11.4687L0.580642 16.6304C0.503726 16.7183 0.44994 16.8241 0.424146 16.938C0.398353 17.052 0.401365 17.1706 0.43291 17.2831C0.464456 17.3956 0.52354 17.4984 0.604822 17.5824C0.686105 17.6663 0.787023 17.7287 0.898455 17.7638L5.32814 19.1743V33.2656C5.3281 33.4099 5.37248 33.5508 5.45525 33.669C5.53801 33.7873 5.65517 33.8772 5.7908 33.9265L21.2596 39.5515C21.2647 39.5512 21.2699 39.5512 21.275 39.5515C21.4204 39.6041 21.5796 39.6041 21.725 39.5515C21.7302 39.5512 21.7353 39.5512 21.7405 39.5515L37.2092 33.9265C37.3449 33.8772 37.462 33.7873 37.5448 33.669C37.6276 33.5508 37.6719 33.4099 37.6719 33.2656V19.1743L42.1016 17.7638C42.2128 17.7284 42.3135 17.6659 42.3946 17.5818C42.4756 17.4978 42.5345 17.3949 42.5658 17.2824C42.5971 17.17 42.6 17.0514 42.574 16.9376C42.5481 16.8238 42.4942 16.7182 42.4173 16.6304L37.9032 11.4687ZM21.5 15.6523L8.35158 11.4687L20.7969 7.50873V13.5781C20.7969 13.7646 20.871 13.9434 21.0028 14.0753C21.1347 14.2072 21.3135 14.2812 21.5 14.2812C21.6865 14.2812 21.8653 14.2072 21.9972 14.0753C22.1291 13.9434 22.2031 13.7646 22.2031 13.5781V7.50873L34.6485 11.4687L21.5 15.6523ZM26.6476 1.73045L40.6546 6.18826L36.7431 10.6594L22.7361 6.20232L26.6476 1.73045ZM16.3524 1.73045L20.2639 6.20162L6.25697 10.6594L2.34549 6.18826L16.3524 1.73045ZM6.25697 12.2773L20.2639 16.7351L16.3524 21.2063L2.34549 16.7492L6.25697 12.2773ZM36.2656 32.7734L22.2031 37.8865V31.8594C22.2031 31.6729 22.1291 31.494 21.9972 31.3622C21.8653 31.2303 21.6865 31.1562 21.5 31.1562C21.3135 31.1562 21.1347 31.2303 21.0028 31.3622C20.871 31.494 20.7969 31.6729 20.7969 31.8594V37.8865L6.73439 32.7734V19.625L16.3672 22.6892C16.4356 22.7099 16.5067 22.7198 16.5781 22.7187C16.6783 22.7187 16.7772 22.6973 16.8684 22.656C16.9596 22.6146 17.0409 22.5543 17.1069 22.479L20.7969 18.2602V24.8281C20.7969 25.0146 20.871 25.1934 21.0028 25.3253C21.1347 25.4572 21.3135 25.5312 21.5 25.5312C21.6865 25.5312 21.8653 25.4572 21.9972 25.3253C22.1291 25.1934 22.2031 25.0146 22.2031 24.8281V18.2616L25.8931 22.4804C25.9593 22.5554 26.0406 22.6155 26.1318 22.6566C26.223 22.6977 26.3219 22.7189 26.4219 22.7187C26.4935 22.7187 26.5646 22.7075 26.6328 22.6857L36.2656 19.625V32.7734ZM26.6476 21.2063L22.7361 16.7351L36.7431 12.278L40.6546 16.7492L26.6476 21.2063Z" fill="#FFC582"/>
</svg>
