<svg width="37" height="43" viewBox="0 0 37 43" fill="none" xmlns="http://www.w3.org/2000/svg">
<path d="M0.707404 43H2.71362C3.08517 43 3.3855 42.6997 3.3855 42.3281V40.9703H33.6145V42.3281C33.6145 42.6997 33.9148 43 34.2864 43H36.302C36.6735 43 36.9739 42.6997 36.9739 42.3281V1.67969C36.9739 0.753844 36.2207 0 35.2942 0C34.3677 0 33.6145 0.753844 33.6145 1.67969V12.0964H31.6002V2.69287C31.6002 2.322 31.2999 2.021 30.9283 2.021H20.181C19.8095 2.021 19.5092 2.322 19.5092 2.69287V12.0958H17.4922V2.69287C17.4922 2.322 17.1919 2.021 16.8203 2.021H6.073C5.70145 2.021 5.40112 2.322 5.40112 2.69287V12.0958H3.3855V1.67969C3.3855 0.753844 2.63233 0 1.70581 0C0.779295 0 0.026123 0.753844 0.026123 1.67969L0.0355293 42.3281C0.0355293 42.6997 0.335857 43 0.707404 43ZM34.9582 1.67969C34.9582 1.49425 35.1094 1.34375 35.2942 1.34375C35.479 1.34375 35.6301 1.49425 35.6301 1.67969V41.6562H34.9582V1.67969ZM24.8815 3.36475H26.2266V4.042H24.8815V3.36475ZM20.8529 3.36475H23.5377V4.71387C23.5377 5.08475 23.838 5.38575 24.2096 5.38575H26.8984C27.27 5.38575 27.5703 5.08475 27.5703 4.71387V3.36475H30.2565V12.0958H20.8529V3.36475ZM10.7734 3.36475H12.1172V4.042H10.7734V3.36475ZM6.74487 3.36475H9.42969V4.71387C9.42969 5.08475 9.73001 5.38575 10.1016 5.38575H12.7891C13.1606 5.38575 13.4609 5.08475 13.4609 4.71387V3.36475H16.1484V12.0958H6.74487V3.36475ZM3.3855 13.4395H6.073H16.8203H20.181H30.9283H33.6145V14.1114H3.3855V13.4395ZM3.3855 15.4551H33.6145V24.8419H31.6016V17.458C31.6016 17.0871 31.3012 16.7861 30.9297 16.7861H6.07031C5.69876 16.7861 5.39844 17.0871 5.39844 17.458V24.8426H3.3855V15.4551ZM16.8203 20.1455H20.1797C20.5512 20.1455 20.8516 19.8445 20.8516 19.4736V18.1299H30.2578V24.8426H6.74219V18.1299H16.1484V19.4736C16.1484 19.8445 16.4488 20.1455 16.8203 20.1455ZM17.4922 18.8018V18.1299H19.5078V18.8018H17.4922ZM3.3855 26.1863H6.07031H30.9297H33.6145V26.8595H3.3855V26.1863ZM3.3855 28.2033H33.6145V37.6095H31.6029V29.5538C31.6029 29.1822 31.3026 28.8819 30.931 28.8819H21.5234C21.1519 28.8819 20.8516 29.1822 20.8516 29.5538V37.6095H18.84V31.5707C18.84 31.1992 18.5396 30.8989 18.1681 30.8989H13.469C13.4663 30.8989 13.465 30.8975 13.4623 30.8975C13.4596 30.8975 13.4582 30.8989 13.4556 30.8989H10.7802C10.7775 30.8989 10.7761 30.8975 10.7734 30.8975C10.7707 30.8975 10.7694 30.8989 10.7667 30.8989H6.073C5.70145 30.8989 5.40112 31.1992 5.40112 31.5707V37.6095H3.3855V28.2033ZM24.8828 32.246H27.5717C27.9432 32.246 28.2435 31.9456 28.2435 31.5741V30.225H30.2592V37.6089H22.1953V30.225H24.2109V31.5741C24.2109 31.9456 24.5113 32.246 24.8828 32.246ZM25.5547 30.9022V30.225H26.8998V30.9022H25.5547ZM10.7734 34.2616H13.4623C13.8338 34.2616 14.1342 33.9613 14.1342 33.5897V32.2419H17.4962V37.6089H6.74487V32.2419H10.1016V33.5897C10.1016 33.9613 10.4019 34.2616 10.7734 34.2616ZM11.4453 32.9178V32.2419H12.7904V32.9178H11.4453ZM3.3855 38.9533H6.073H18.1681H21.5234H30.931H33.6145V39.6265H3.3855V38.9533ZM1.70581 1.34375C1.89058 1.34375 2.04175 1.49425 2.04175 1.67969V41.6562H1.37928L1.36987 1.67969C1.36987 1.49425 1.52104 1.34375 1.70581 1.34375Z" fill="#FFC582"/>
</svg>
