<svg width="37" height="37" viewBox="0 0 37 37" fill="none" xmlns="http://www.w3.org/2000/svg">
<path d="M9.82812 6.35938C9.82812 4.44636 8.27239 2.89062 6.35938 2.89062C4.44636 2.89062 2.89062 4.44636 2.89062 6.35938C2.89062 8.27239 4.44636 9.82812 6.35938 9.82812C8.27239 9.82812 9.82812 8.27239 9.82812 6.35938ZM4.04688 6.35938C4.04688 5.08403 5.08403 4.04688 6.35938 4.04688C7.63472 4.04688 8.67188 5.08403 8.67188 6.35938C8.67188 7.63472 7.63472 8.67188 6.35938 8.67188C5.08403 8.67188 4.04688 7.63472 4.04688 6.35938Z" fill="#FFC582"/>
<path d="M31.7229 4.45874L32.5403 3.64127L33.3578 4.45874L32.5403 5.27621L31.7229 4.45874Z" fill="#FFC582"/>
<path d="M30.0875 6.09351L30.905 5.27603L31.7225 6.09351L30.905 6.91098L30.0875 6.09351Z" fill="#FFC582"/>
<path d="M28.4941 7.6875L29.2703 6.91131L30.0877 7.72878L29.3115 8.50497L28.4941 7.6875Z" fill="#FFC582"/>
<path d="M34.6875 24.8594H31.4806C32.4455 22.8897 32.9531 20.7113 32.9531 18.5C32.9531 15.5631 32.0767 12.7656 30.4319 10.3623C30.8684 10.0576 31.2945 9.73794 31.709 9.40205L35.2656 12.9581L36.5051 11.7186L34.7707 6.51489L34.9557 6.32989C35.5287 5.75812 35.8437 4.99731 35.8437 4.18678C35.8437 2.516 34.484 1.15625 32.8126 1.15625C32.0038 1.15625 31.2424 1.47133 30.6695 2.04309L30.4834 2.22925L25.2808 0.494873L24.0419 1.73437L27.5985 5.291C27.2621 5.70494 26.9429 6.13159 26.6383 6.5675C24.2344 4.92331 21.4369 4.04687 18.5 4.04687C16.2655 4.04687 14.0635 4.56545 12.0776 5.55058C11.6822 2.74551 9.27197 0.578123 6.35937 0.578123C3.17159 0.578123 0.578125 3.17159 0.578125 6.35937V6.51836C0.578125 7.66304 0.914016 8.77189 1.54937 9.72522L4.65217 14.3791C4.25558 15.7117 4.04687 17.0957 4.04687 18.5C4.04687 20.3014 4.37352 22.0474 5.01408 23.7031H4.625C3.66878 23.7031 2.89062 24.4813 2.89062 25.4375C2.89062 26.1902 3.37567 26.8262 4.04687 27.0655V28.3281H0.578125V30.2643C0.578125 33.6596 3.34041 36.4219 6.73573 36.4219H13.135C15.5105 36.4219 17.6577 35.0355 18.674 32.9485C20.4136 32.9283 22.1011 32.6057 23.7037 31.9859V34.6875C23.7037 35.6437 24.4819 36.4219 25.4381 36.4219H34.6881C35.6443 36.4219 36.4224 35.6437 36.4224 34.6875V26.5937C36.4219 25.6375 35.6437 24.8594 34.6875 24.8594ZM28.3281 26.0156H31.7969V27.1719H28.3281V26.0156ZM25.4375 24.8594H23.7112C24.0459 23.1111 24.2442 21.1571 24.2755 19.0781H31.7778C31.6899 21.1056 31.1401 23.0857 30.1723 24.8594H25.4375ZM19.0602 31.6801L19.0781 30.6406H16.5448L14.7011 26.9528C15.0723 26.7498 15.359 26.4186 15.503 26.0156H22.2734C21.4918 29.1294 20.2748 31.1875 19.0602 31.6801ZM15.503 24.8594C15.3076 24.3113 14.848 23.8904 14.2745 23.754C14.0409 22.2676 13.9114 20.6998 13.8866 19.0781H23.1192C23.0863 21.2155 22.8718 23.1637 22.533 24.8594H15.503ZM5.22509 17.9219C5.26152 17.0709 5.3702 16.2285 5.56619 15.4059C5.80611 15.5371 6.07725 15.6094 6.35937 15.6094C6.91495 15.6094 7.43064 15.333 7.73936 14.8711L9.5593 12.1406H13.2888C12.954 13.8889 12.7557 15.8429 12.7245 17.9219H5.22509ZM14.4705 12.1406H22.537C22.8874 13.9085 23.0828 15.8765 23.1146 17.9219H13.886C13.9195 15.7851 14.1311 13.8351 14.4705 12.1406ZM18.5 5.20312C19.5273 5.20312 20.5841 6.36631 21.4322 8.3909L20.9929 8.83028L21.7467 9.20722C21.9433 9.76511 22.122 10.3565 22.2786 10.9844H14.73C15.6337 7.39364 17.116 5.20312 18.5 5.20312ZM24.9056 9.49397L22.9446 8.51347L23.3025 8.15619L25.334 8.66378C25.1849 8.93665 25.0438 9.21416 24.9056 9.49397ZM24.42 10.5438C24.4154 10.5542 24.4102 10.5647 24.4055 10.5751C24.3489 10.7063 24.3188 10.8445 24.3009 10.9844H23.4649C23.3794 10.6219 23.2863 10.271 23.188 9.92814L24.42 10.5438ZM31.7743 17.9219H24.2708C24.2402 15.888 24.05 13.9253 23.7112 12.1406H24.627C24.9091 12.4904 25.3352 12.7187 25.8185 12.7187C26.0266 12.7187 26.2301 12.6771 26.4244 12.5945C26.4353 12.5898 26.4452 12.5846 26.4562 12.58L28.1697 16.0071L30.1244 14.0519L29.3763 11.059C29.4075 11.0399 29.4375 11.0191 29.4688 10.9994C30.8788 13.0558 31.6679 15.4261 31.7743 17.9219ZM28.3362 11.666L28.8438 13.6975L28.486 14.0548L27.5054 12.0938C27.7858 11.9562 28.0633 11.8151 28.3362 11.666ZM35.0991 11.1567L32.5912 8.64875C32.882 8.38686 33.1676 8.11861 33.4451 7.84053L33.8562 7.42948L35.0991 11.1567ZM32.8126 2.3125C33.8463 2.3125 34.6875 3.15309 34.6875 4.18678C34.6875 4.68801 34.4927 5.15861 34.1383 5.51242L32.6276 7.02306C30.7065 8.94417 28.4657 10.4612 25.97 11.5313C25.7254 11.6342 25.4375 11.4434 25.4375 11.1815C25.4375 11.1295 25.4479 11.0786 25.4681 11.0306C26.5388 8.5337 28.0552 6.29347 29.9764 4.37178L31.4864 2.86114V2.86172C31.8414 2.50733 32.3126 2.3125 32.8126 2.3125ZM25.8439 1.90087L29.5705 3.14326L29.1595 3.55489C28.8814 3.83297 28.6131 4.11856 28.3512 4.40878L25.8439 1.90087ZM25.9405 7.62373L22.9481 6.87506L22.3133 7.50984C21.9335 6.68486 21.5132 5.99573 21.0605 5.4575C22.8273 5.80033 24.4975 6.49986 26.0006 7.53065C25.9804 7.56245 25.9595 7.59251 25.9405 7.62373ZM12.1169 6.8398C13.3246 6.17784 14.6266 5.70667 15.9765 5.44651C14.9567 6.65479 14.1109 8.58284 13.5368 10.9844H10.3299L11.1694 9.72522C11.7446 8.86208 12.0597 7.86944 12.1169 6.8398ZM1.73437 6.51836V6.35937C1.73437 3.80926 3.80927 1.73437 6.35937 1.73437C8.90948 1.73437 10.9844 3.80926 10.9844 6.35937V6.51836C10.9844 7.43469 10.7155 8.32153 10.2074 9.08408L6.77678 14.2294C6.59005 14.5092 6.12812 14.5092 5.94139 14.2294L2.5108 9.08408C2.0032 8.32211 1.73437 7.43469 1.73437 6.51836ZM5.21816 19.0781H12.7303C12.7546 20.6772 12.8777 22.2266 13.0986 23.7031H6.26456C5.63845 22.2335 5.28637 20.6824 5.21816 19.0781ZM4.625 24.8594H13.875C14.1935 24.8594 14.4531 25.1184 14.4531 25.4375C14.4531 25.7566 14.1935 26.0156 13.875 26.0156H4.625C4.30645 26.0156 4.04687 25.7566 4.04687 25.4375C4.04687 25.1184 4.30645 24.8594 4.625 24.8594ZM5.20312 27.1719H13.5177L15.2521 30.6406H7.29478L6.13853 28.3281H5.20312V27.1719ZM13.135 35.2656H6.73573C3.97808 35.2656 1.73437 33.0219 1.73437 30.2643V29.4844H5.42397L6.58022 31.7969H17.8959C17.2351 33.8475 15.3007 35.2656 13.135 35.2656ZM21.0229 31.5541C22.0427 30.3458 22.8891 28.4172 23.4632 26.0156H23.8095C23.7447 26.1972 23.7031 26.3902 23.7031 26.5937V30.7349C22.8359 31.1049 21.941 31.3783 21.0229 31.5541ZM35.2656 34.6875C35.2656 35.0066 35.006 35.2656 34.6875 35.2656H25.4375C25.1189 35.2656 24.8594 35.0066 24.8594 34.6875V26.5937C24.8594 26.2746 25.1189 26.0156 25.4375 26.0156H27.1719V28.3281H32.9531V26.0156H34.6875C35.006 26.0156 35.2656 26.2746 35.2656 26.5937V34.6875Z" fill="#FFC582"/>
<path d="M32.9531 32.9531H34.1094V34.1094H32.9531V32.9531Z" fill="#FFC582"/>
<path d="M30.6406 32.9531H31.7969V34.1094H30.6406V32.9531Z" fill="#FFC582"/>
<path d="M9.82812 28.3281H10.9844V29.4844H9.82812V28.3281Z" fill="#FFC582"/>
<path d="M12.1406 28.3281H13.2969V29.4844H12.1406V28.3281Z" fill="#FFC582"/>
<path d="M7.51562 28.3281H8.67188V29.4844H7.51562V28.3281Z" fill="#FFC582"/>
<path d="M15.6094 20.2344H16.7656V21.3906H15.6094V20.2344Z" fill="#FFC582"/>
<path d="M20.2344 20.2344H21.3906V21.3906H20.2344V20.2344Z" fill="#FFC582"/>
<path d="M17.9219 20.2344H19.0781V21.3906H17.9219V20.2344Z" fill="#FFC582"/>
<path d="M20.2344 15.6094H21.3906V16.7656H20.2344V15.6094Z" fill="#FFC582"/>
<path d="M17.9219 15.6094H19.0781V16.7656H17.9219V15.6094Z" fill="#FFC582"/>
<path d="M15.6094 15.6094H16.7656V16.7656H15.6094V15.6094Z" fill="#FFC582"/>
</svg>
