<svg width="45" height="42" viewBox="0 0 45 42" fill="none" xmlns="http://www.w3.org/2000/svg">
<path d="M43.929 24.7141C43.7916 24.339 43.5786 23.9962 43.3032 23.7069C43.0278 23.4176 42.6959 23.188 42.3281 23.0323V2.60937C42.3263 2.02561 42.0937 1.46625 41.6809 1.05346C41.2681 0.640668 40.7087 0.407993 40.125 0.40625H16.625C16.0412 0.407993 15.4818 0.640668 15.069 1.05346C14.6563 1.46625 14.4236 2.02561 14.4218 2.60937V23.1939C13.5886 23.5726 12.7921 24.0274 12.0425 24.5525L9.73653 26.1681L8.892 24.9637C8.77995 24.8054 8.61014 24.6973 8.41919 24.663C8.22823 24.6287 8.03143 24.6707 7.87122 24.7802L0.65231 29.8327C0.493423 29.946 0.385242 30.1171 0.350928 30.3093C0.316614 30.5014 0.358894 30.6994 0.468716 30.8608L8.05481 41.6855C8.166 41.845 8.33589 41.9539 8.52725 41.9883C8.7186 42.0227 8.9158 41.9798 9.07559 41.8691L16.2945 36.8166C16.4531 36.7029 16.561 36.5319 16.5953 36.3398C16.6296 36.1478 16.5875 35.9499 16.4781 35.7884L16.0595 35.1936C17.4765 34.2255 19.2175 33.8536 20.9064 34.1581L22.2136 34.3784C23.865 34.6718 25.5646 34.5249 27.1412 33.9525L42.1739 28.4814C42.5366 28.3494 42.8697 28.1473 43.1543 27.8865C43.4388 27.6257 43.6692 27.3113 43.8322 26.9615C43.9952 26.6116 44.0877 26.233 44.1043 25.8474C44.1209 25.4618 44.0613 25.0767 43.929 24.7141ZM32.0468 1.875H40.125C40.3197 1.875 40.5065 1.95237 40.6442 2.09009C40.782 2.22782 40.8593 2.41461 40.8593 2.60937V4.8125H32.0468V1.875ZM26.1718 1.875H30.5781V8.18328L28.8964 6.49422C28.7577 6.35663 28.5703 6.27943 28.375 6.27943C28.1796 6.27943 27.9922 6.35663 27.8536 6.49422L26.1718 8.18328V1.875ZM15.8906 2.60937C15.8906 2.41461 15.968 2.22782 16.1057 2.09009C16.2434 1.95237 16.4302 1.875 16.625 1.875H24.7031V4.8125H15.8906V2.60937ZM15.8906 6.28125H24.7031V9.95312C24.7025 10.0984 24.7457 10.2405 24.8268 10.361C24.908 10.4814 25.0235 10.5747 25.1584 10.6287C25.2921 10.685 25.4395 10.7004 25.582 10.6729C25.7245 10.6455 25.8556 10.5764 25.9589 10.4745L28.375 8.05109L30.7911 10.4745C30.93 10.6115 31.1174 10.6881 31.3125 10.6875C31.4088 10.69 31.5044 10.6699 31.5915 10.6287C31.7264 10.5747 31.8419 10.4814 31.9231 10.361C32.0043 10.2405 32.0474 10.0984 32.0468 9.95312V6.28125H40.8593V22.812C40.624 22.8319 40.3921 22.8813 40.169 22.9589L37.5693 23.9062H32.4067C32.0192 23.5754 31.55 23.3548 31.0481 23.2673L23.6676 21.9675C21.283 21.5457 18.8325 21.6916 16.5148 22.3934L16.3826 22.4375C16.2137 22.4816 16.0522 22.5477 15.8906 22.6064V6.28125ZM8.83325 40.2461L2.09903 30.6184L8.11356 26.4031L14.8478 36.0308L8.83325 40.2461ZM42.6218 25.9772C42.5765 26.2312 42.4651 26.4687 42.2988 26.666C42.1325 26.8632 41.9172 27.0132 41.6745 27.1008L26.6418 32.5719C25.3073 33.0567 23.8685 33.1808 22.4706 32.9317L21.1561 32.7114C19.0847 32.3385 16.9498 32.7976 15.215 33.9892L10.5811 27.3652L12.887 25.7569C14.0767 24.9166 15.3932 24.272 16.7865 23.8475L16.9187 23.8108C19.0241 23.1721 21.2496 23.0338 23.4179 23.4069L30.7911 24.7067C31.1766 24.7777 31.5191 24.9964 31.7457 25.3162C31.8743 25.5052 31.9572 25.7214 31.9881 25.9478C32.0257 26.1534 32.0131 26.365 31.9514 26.5647C31.8501 26.916 31.622 27.2172 31.3113 27.4098C31.0005 27.6025 30.6294 27.6729 30.2697 27.6075L22.3311 26.2048L22.0814 27.6442L30.0126 29.0469C30.1842 29.0821 30.3589 29.0994 30.534 29.0983C31.1663 29.0977 31.7817 28.894 32.2894 28.5171C32.7971 28.1403 33.1703 27.6103 33.354 27.0053L40.6684 24.3395C41.0346 24.2073 41.4383 24.2258 41.7908 24.391C42.1433 24.5563 42.4158 24.8547 42.5484 25.2208C42.6424 25.4613 42.6678 25.7231 42.6218 25.9772Z" fill="#FFC582"/>
</svg>
