<svg width="40" height="40" viewBox="0 0 40 40" fill="none" xmlns="http://www.w3.org/2000/svg">
<g clip-path="url(#clip0)">
<path d="M38.1763 24.9745L39.3208 23.8303C40.041 23.1098 40.041 21.9376 39.3208 21.2171C38.9716 20.8683 38.5078 20.676 38.014 20.676C37.6435 20.676 37.2895 20.7844 36.9886 20.9861L36.7475 20.1768L37.9862 18.9378C38.7067 18.2172 38.7067 17.0451 37.9862 16.3248C37.3231 15.6614 36.2775 15.6104 35.5533 16.1686L34.0855 11.2406C34.6717 10.676 35.2332 10.1267 35.7624 9.59754C37.2874 8.07227 38.5273 6.45819 39.2539 5.05194C40.4816 2.67523 39.9677 1.40478 39.3204 0.757498C38.6735 0.11022 37.403 -0.403392 35.026 0.824332C33.6201 1.55065 32.0057 2.79058 30.4807 4.31585C29.9515 4.84503 29.4019 5.40625 28.8376 5.99249L23.9093 4.52459C24.4675 3.80072 24.4165 2.75518 23.7534 2.09173C23.0329 1.37151 21.8607 1.37121 21.1405 2.09173L19.9015 3.33074L19.0918 3.08965C19.2936 2.78845 19.4019 2.43444 19.4019 2.06396C19.4019 1.57049 19.2096 1.10631 18.8608 0.757498C18.1406 0.0369774 16.9681 0.0369774 16.2479 0.757498L15.1038 1.9016L9.27218 0.164541C9.06435 0.102896 8.83974 0.159658 8.68685 0.312857L7.18569 1.81402C6.93361 2.06579 6.96687 2.49639 7.25435 2.70666L21.9681 13.4766C18.6505 17.2172 15.4547 20.9623 13.1986 23.6381L8.87056 21.9733C8.65297 21.8897 8.4067 21.9419 8.2419 22.1067L6.46272 23.8859C6.23262 24.1163 6.23262 24.4895 6.46272 24.7196L15.3583 33.6152C15.5854 33.8426 15.965 33.8426 16.1924 33.6152L17.9712 31.8363C18.136 31.6715 18.1885 31.425 18.1046 31.2074L16.4402 26.8797C19.1159 24.6235 22.8608 21.4277 26.6016 18.1098L27.7704 19.7071C27.978 19.9906 28.3988 20.0272 28.6533 19.7855C28.8654 19.5841 28.8947 19.2463 28.7223 19.0107L27.4866 17.3225C29.4428 15.5765 31.3746 13.8151 33.1272 12.1552L38.6829 30.8061L37.9166 31.5721L30.2808 21.1399C30.0886 20.8772 29.7196 20.8201 29.4568 21.0123C29.1938 21.2049 29.1367 21.5739 29.3293 21.8366L37.3716 32.8239C37.5819 33.1114 38.0125 33.1446 38.2642 32.8926L39.7654 31.3914C39.9186 31.2385 39.9754 31.0136 39.9137 30.8061L38.1763 24.9745ZM21.9745 2.92578C22.2321 2.66821 22.6621 2.66821 22.9197 2.92578C23.1803 3.1864 23.1803 3.61029 22.9197 3.87091L22.6432 4.1474L21.1866 3.71343L21.9745 2.92578ZM17.0819 1.59154C17.3423 1.33092 17.7665 1.33092 18.0271 1.59154C18.2877 1.85217 18.2877 2.27606 18.0271 2.53668L17.8452 2.71826L16.3889 2.2846L17.0819 1.59154ZM8.50588 2.16131L9.27218 1.39532L27.923 6.95074C26.2632 8.70368 24.5017 10.6354 22.7555 12.5916L8.50588 2.16131ZM8.80495 23.2118L12.3954 24.5927C11.4948 25.6651 10.8042 26.4948 10.3968 26.9859L7.71364 24.3028L8.80495 23.2118ZM11.2345 27.8236C13.2901 25.3434 24.1559 12.3084 31.3148 5.14959C32.735 3.729 34.2853 2.53454 35.5674 1.87231C36.5299 1.37487 37.8178 0.922599 38.4867 1.59154C39.1557 2.26049 38.7031 3.54833 38.2059 4.51086C37.5437 5.79291 36.3489 7.3429 34.9283 8.76349C27.7701 15.9217 14.7348 26.7878 12.2547 28.8438L11.2345 27.8236ZM16.8665 31.2733L15.7755 32.3643L13.0924 29.6812C13.5831 29.2741 14.4132 28.5835 15.4856 27.6829L16.8665 31.2733ZM37.5416 22.0512C37.8022 21.7905 38.2261 21.7905 38.4867 22.0512C38.7473 22.3118 38.7473 22.7357 38.4867 22.9963L37.7936 23.6894L37.3597 22.2331L37.5416 22.0512ZM36.2073 17.1586C36.4677 16.898 36.8919 16.8983 37.1525 17.1586C37.41 17.4162 37.41 17.8461 37.1525 18.1037L36.3645 18.8917L35.9305 17.4351L36.2073 17.1586Z" fill="#FFC582"/>
<path d="M35.3971 34.0393L30.365 39.0713C30.1505 39.2862 30.1362 39.6408 30.3336 39.8715C30.5542 40.1291 30.9592 40.1452 31.1991 39.9054L36.2311 34.8733C36.4615 34.6429 36.4615 34.2697 36.2311 34.0393C36.001 33.8092 35.6275 33.8092 35.3971 34.0393Z" fill="#FFC582"/>
<path d="M33.715 32.3574C33.9454 32.1273 33.9454 31.7537 33.715 31.5236C33.4849 31.2932 33.1113 31.2932 32.8812 31.5236L29.7361 34.6685C29.5215 34.8833 29.5072 35.2379 29.7046 35.4686C29.9253 35.7262 30.3302 35.7424 30.5701 35.5025L33.715 32.3574Z" fill="#FFC582"/>
<path d="M31.8281 29.2124C32.0585 28.982 32.0585 28.6085 31.8281 28.3784C31.5976 28.148 31.2244 28.148 30.994 28.3784L28.7925 30.5799C28.5779 30.7945 28.5636 31.1494 28.7613 31.3801C28.9817 31.6377 29.3866 31.6538 29.6265 31.414L31.8281 29.2124Z" fill="#FFC582"/>
<path d="M6.03883 4.16135C5.80842 3.93124 5.43488 3.93124 5.20478 4.16135L0.17273 9.19371C-0.0576783 9.42381 -0.0576783 9.79735 0.17273 10.0274C0.399781 10.2545 0.77942 10.2545 1.00678 10.0274L6.03883 4.99539C6.26893 4.76499 6.26893 4.39176 6.03883 4.16135Z" fill="#FFC582"/>
<path d="M8.55469 6.67744C8.32429 6.44704 7.95106 6.44704 7.72095 6.67744L4.57581 9.82259C4.36097 10.0371 4.34693 10.3917 4.54438 10.6225C4.76502 10.88 5.16968 10.8962 5.40955 10.6563L8.55469 7.51149C8.7851 7.28108 8.7851 6.90755 8.55469 6.67744Z" fill="#FFC582"/>
<path d="M8.66426 11.6C8.89162 11.8271 9.27095 11.8271 9.49831 11.6L11.6998 9.39847C11.93 9.16806 11.93 8.79483 11.6998 8.56442C11.4694 8.33432 11.0962 8.33432 10.8658 8.56442L8.66426 10.766C8.43416 10.9964 8.43416 11.3696 8.66426 11.6Z" fill="#FFC582"/>
</g>
<defs>
<clipPath id="clip0">
<rect width="40" height="40" fill="white"/>
</clipPath>
</defs>
</svg>
