<svg width="42" height="40" viewBox="0 0 42 40" fill="none" xmlns="http://www.w3.org/2000/svg">
<g filter="url(#filter0_d)">
<path d="M26.1562 6C24.9624 6 23.8679 6.38956 22.9032 7.15788C21.9783 7.89447 21.3625 8.83265 21 9.51487C20.6375 8.83261 20.0217 7.89447 19.0968 7.15788C18.1321 6.38956 17.0376 6 15.8438 6C12.5123 6 10 8.80606 10 12.5272C10 16.5473 13.1343 19.2977 17.8791 23.4616C18.6849 24.1687 19.5982 24.9702 20.5475 25.825C20.6726 25.9379 20.8333 26 21 26C21.1667 26 21.3274 25.9379 21.4525 25.8251C22.4019 24.9701 23.3152 24.1687 24.1214 23.4612C28.8657 19.2977 32 16.5473 32 12.5272C32 8.80606 29.4877 6 26.1562 6Z" fill="#EB4159"/>
</g>
<defs>
<filter id="filter0_d" x="0" y="0" width="42" height="40" filterUnits="userSpaceOnUse" color-interpolation-filters="sRGB">
<feFlood flood-opacity="0" result="BackgroundImageFix"/>
<feColorMatrix in="SourceAlpha" type="matrix" values="0 0 0 0 0 0 0 0 0 0 0 0 0 0 0 0 0 0 127 0"/>
<feOffset dy="4"/>
<feGaussianBlur stdDeviation="5"/>
<feColorMatrix type="matrix" values="0 0 0 0 0.921569 0 0 0 0 0.254902 0 0 0 0 0.34902 0 0 0 0.5 0"/>
<feBlend mode="normal" in2="BackgroundImageFix" result="effect1_dropShadow"/>
<feBlend mode="normal" in="SourceGraphic" in2="effect1_dropShadow" result="shape"/>
</filter>
</defs>
</svg>
