<svg width="19" height="19" viewBox="0 0 19 19" fill="none" xmlns="http://www.w3.org/2000/svg">
<path d="M17.9864 4.33474H15.3508C15.7811 3.86827 16.0445 3.24565 16.0445 2.5625C16.0445 2.5625 16.044 2.45822 16.043 2.42846C16.0145 1.58541 15.5548 0.833572 14.8132 0.417129C14.0567 -0.00762545 13.1554 -0.00751411 12.4023 0.417538L11.2037 1.09401C10.453 1.51768 9.86551 2.15626 9.50002 2.90714C9.13453 2.15626 8.54705 1.51768 7.7964 1.09404L6.59776 0.4175C5.8447 -0.00751411 4.94342 -0.00766253 4.18687 0.417092C3.44532 0.833497 2.98557 1.58537 2.9571 2.42842C2.9561 2.45819 2.95558 2.56246 2.95558 2.56246C2.95558 3.24561 3.21902 3.86823 3.64931 4.33474H1.01368C0.454739 4.33474 0 4.78951 0 5.34846V7.75441C0 8.31335 0.454739 8.76809 1.01368 8.76809H1.47777V17.8878C1.47777 18.4467 1.93251 18.9015 2.49145 18.9015H16.5085C17.0675 18.9015 17.5222 18.4467 17.5222 17.8878V8.76805H17.9863C18.5453 8.76805 19 8.31332 19 7.75437V5.34842C19 4.78951 18.5453 4.33474 17.9864 4.33474ZM11.6187 1.8294L12.8173 1.15294C13.3112 0.874169 13.9028 0.874392 14.3998 1.15346C14.8818 1.42409 15.1806 1.91138 15.199 2.457C15.1997 2.47726 15.2 2.5625 15.2 2.5625C15.2 3.53974 14.405 4.33477 13.4277 4.33477H9.94637C10.073 3.29022 10.6896 2.35376 11.6187 1.8294ZM3.80101 2.45696C3.81945 1.91138 4.11822 1.42409 4.60024 1.15342C4.84894 1.01378 5.12118 0.944009 5.39312 0.944009C5.66465 0.944009 5.93588 1.01363 6.18262 1.15294L7.38126 1.8294C8.3104 2.35376 8.92701 3.29022 9.05356 4.3347H5.57221C4.595 4.3347 3.79997 3.53967 3.79997 2.56246C3.80001 2.5625 3.80034 2.47722 3.80101 2.45696ZM7.60005 10.0525H5.86177C5.62858 10.0525 5.43954 10.2416 5.43954 10.4748C5.43954 10.7079 5.62858 10.897 5.86177 10.897H7.60005V18.057H2.49145C2.39812 18.057 2.32224 17.9811 2.32224 17.8878V8.76805H7.60005V10.0525ZM7.60005 7.92367H1.01368C0.920351 7.92363 0.844463 7.84774 0.844463 7.75445V5.34849C0.844463 5.25513 0.920389 5.17924 1.01368 5.17924H7.60005V7.92367ZM10.5555 18.057H8.44452V5.17916H10.5555V18.057ZM16.6778 17.8878C16.6778 17.9811 16.6019 18.057 16.5086 18.057H11.3999V10.8969H13.0088C13.242 10.8969 13.4311 10.7079 13.4311 10.4747C13.4311 10.2416 13.242 10.0525 13.0088 10.0525H11.3999V8.76805H16.6778V17.8878H16.6778ZM18.1556 7.75445C18.1556 7.84774 18.0796 7.92367 17.9864 7.92367H11.3999V5.1792H17.9864C18.0797 5.1792 18.1556 5.25513 18.1556 5.34846V7.75445H18.1556Z" fill="#FFC582"/>
<path d="M15.0144 10.897H15.0566C15.2898 10.897 15.4789 10.7079 15.4789 10.4747C15.4789 10.2416 15.2898 10.0525 15.0566 10.0525H15.0144C14.7812 10.0525 14.5922 10.2416 14.5922 10.4747C14.5922 10.7079 14.7812 10.897 15.0144 10.897Z" fill="#FFC582"/>
<path d="M3.81405 10.897H3.85628C4.08947 10.897 4.27851 10.7079 4.27851 10.4747C4.27851 10.2416 4.08944 10.0525 3.85628 10.0525H3.81405C3.58085 10.0525 3.39182 10.2416 3.39182 10.4747C3.39182 10.7079 3.58085 10.897 3.81405 10.897Z" fill="#FFC582"/>
</svg>
