<svg width="16" height="16" viewBox="0 0 16 16" fill="none" xmlns="http://www.w3.org/2000/svg">
<g clip-path="url(#clip0)">
<path d="M10.7467 1.28591L3.48601 5.00324L0.600006 3.58324L7.73267 0.0612441C7.89267 -0.0200892 8.08467 -0.0200892 8.25267 0.0612441L10.7467 1.28591Z" fill="#A7A5AE"/>
<path d="M15.392 3.58329L8.00401 7.24329L5.23734 5.87996L4.83734 5.67663L12.106 1.95996L12.506 2.16263L15.392 3.58329Z" fill="#A7A5AE"/>
<path d="M7.412 8.29794L7.404 15.9999L0.328 12.3073C0.128 12.2019 0 11.9906 0 11.7633V4.63794L2.99867 6.11527V8.71261C2.99867 9.04527 3.27067 9.32127 3.59867 9.32127C3.92667 9.32127 4.19867 9.04527 4.19867 8.71261V6.71594L4.59867 6.91061L7.412 8.29794Z" fill="#A7A5AE"/>
<path d="M15.992 4.646L8.612 8.29L8.604 15.992L16 12.13L15.992 4.646Z" fill="#A7A5AE"/>
</g>
<defs>
<clipPath id="clip0">
<rect width="16" height="16" fill="white"/>
</clipPath>
</defs>
</svg>
