<svg width="18" height="18" viewBox="0 0 18 18" fill="none" xmlns="http://www.w3.org/2000/svg">
<path d="M4.12499 15.819V12.9863C4.12499 12.0135 4.545 11.0873 5.27773 10.446L6.93074 9L5.27773 7.55399C4.54496 6.91274 4.12499 5.98648 4.12499 5.01374V2.18099C3.68926 2.02574 3.375 1.61325 3.375 1.125C3.375 0.504738 3.87974 0 4.5 0H13.5C14.1203 0 14.625 0.504738 14.625 1.125C14.625 1.61325 14.3107 2.02574 13.875 2.18099V5.01374C13.875 5.98648 13.455 6.91274 12.7223 7.55399L11.0693 9L12.7223 10.446C13.455 11.0873 13.875 12.0135 13.875 12.9863V15.819C14.3107 15.9743 14.625 16.3867 14.625 16.875C14.625 17.4953 14.1203 18 13.5 18H4.5C3.87974 18 3.375 17.4953 3.375 16.875C3.375 16.3867 3.68926 15.9743 4.12499 15.819ZM4.87501 15.75H13.125V12.9863C13.125 12.2295 12.798 11.5095 12.2287 11.0108L10.2532 9.28202C10.1715 9.21076 10.125 9.10804 10.125 9.00004C10.125 8.89204 10.1715 8.78927 10.2532 8.71805L12.2287 6.98931C12.798 6.49055 13.125 5.77055 13.125 5.01381V2.25H4.87498V5.01374C4.87498 5.77048 5.20196 6.49048 5.77121 6.98924L7.74672 8.71798C7.82849 8.78924 7.875 8.892 7.875 9C7.875 9.108 7.82849 9.21076 7.74675 9.28199L5.77125 11.0107C5.20126 11.5095 4.87501 12.2295 4.87501 12.9862V15.75Z" fill="#A7A5AE"/>
<path d="M5.70674 14.3911L8.70673 10.6411C8.84922 10.4634 9.14998 10.4634 9.29247 10.6411L12.2925 14.3911C12.3825 14.5036 12.3997 14.6582 12.3375 14.7879C12.2752 14.9176 12.144 15.0001 12 15.0001H5.99995C5.85595 15.0001 5.72471 14.9176 5.66171 14.7879C5.59952 14.6582 5.61674 14.5036 5.70674 14.3911Z" fill="#A7A5AE"/>
<path d="M7.15349 6.23175C7.21125 6.09151 7.3485 6 7.49999 6H10.5C10.6515 6 10.7887 6.09151 10.8465 6.23175C10.905 6.37199 10.8727 6.53251 10.7655 6.64051L9.26546 8.14052C9.19195 8.21326 9.09597 8.25004 8.99996 8.25004C8.90395 8.25004 8.80797 8.2133 8.73446 8.14052L7.23445 6.64051C7.12726 6.53325 7.09499 6.37199 7.15349 6.23175Z" fill="#A7A5AE"/>
</svg>
