<svg width="20" height="21" viewBox="0 0 20 21" fill="none" xmlns="http://www.w3.org/2000/svg">
<path d="M17.9644 8.68069H17.9124V7.40718C17.9124 3.31631 14.5962 0 10.5053 0C6.41434 0 3.09808 3.31631 3.09808 7.40718V8.68069H2.78622C1.64264 8.68069 0.758992 9.69428 0.758992 10.8639V14.1126C0.730188 15.2462 1.62583 16.1885 2.7594 16.2173C2.76836 16.2176 2.77726 16.2177 2.78622 16.2178H4.70947C4.98189 16.205 5.19236 15.9737 5.17953 15.7013C5.17908 15.6915 5.17834 15.6817 5.17729 15.672V9.30441C5.17729 8.99255 4.99537 8.68064 4.70947 8.68064H4.13769V7.40713C4.13769 3.89044 6.98857 1.03956 10.5053 1.03956C14.0219 1.03956 16.8728 3.89044 16.8728 7.40713V8.68064H16.301C16.0151 8.68064 15.8332 8.9925 15.8332 9.30441V15.672C15.8042 15.9432 16.0005 16.1865 16.2717 16.2155C16.2814 16.2166 16.2912 16.2173 16.301 16.2178H16.8988L16.8468 16.2957C16.0669 17.3322 14.8432 17.9392 13.5461 17.9331C13.2621 16.5407 11.9031 15.6421 10.5108 15.9261C9.32009 16.169 8.46162 17.2117 8.45201 18.4269C8.46624 19.8521 9.62574 21 11.051 20.9999C11.7566 20.9885 12.4291 20.6989 12.9223 20.1942C13.2551 19.8534 13.4731 19.4173 13.5461 18.9467C15.1704 18.9528 16.7022 18.1917 17.6785 16.8935L18.1723 16.1657C19.2899 16.0878 19.9916 15.386 19.9916 14.3724V11.1236C19.9916 10.0062 19.16 8.68069 17.9644 8.68069ZM4.13769 15.1782H2.78622C2.22657 15.1646 1.78392 14.6999 1.79755 14.1402C1.7978 14.131 1.79815 14.1218 1.7986 14.1126V10.8638C1.7986 10.2661 2.21443 9.72025 2.78622 9.72025H4.13769V15.1782ZM12.1686 19.4666C11.8806 19.7789 11.4759 19.9577 11.0511 19.9604C10.2055 19.947 9.51928 19.2722 9.49167 18.427C9.49132 17.5801 10.1776 16.8933 11.0245 16.8929C11.8714 16.8926 12.5582 17.5788 12.5585 18.4257C12.5585 18.4261 12.5585 18.4266 12.5585 18.427C12.5801 18.8128 12.4387 19.1901 12.1686 19.4666ZM18.952 14.3725C18.952 15.0742 18.2763 15.1782 17.9644 15.1782H16.8728V9.7203H17.9644C18.5362 9.7203 18.952 10.526 18.952 11.1237V14.3725Z" fill="#FFC582"/>
</svg>
