<svg width="20" height="20" viewBox="0 0 20 20" fill="none" xmlns="http://www.w3.org/2000/svg">
<path d="M10 20C15.514 20 20 15.514 20 10C20 4.48597 15.514 0 10 0C4.48597 0 0 4.48597 0 10C0 15.514 4.48597 20 10 20ZM10 0.89172C15.0224 0.89172 19.1083 4.97761 19.1083 10C19.1083 15.0224 15.0224 19.1083 10 19.1083C4.97761 19.1083 0.89172 15.0224 0.89172 10C0.89172 4.97761 4.97761 0.89172 10 0.89172Z" fill="#FFC582"/>
<path d="M7.53508 9.10123C8.55493 9.10123 9.38146 8.27444 9.38146 7.25484C9.38171 6.23498 8.55493 5.4082 7.53508 5.4082C6.51522 5.4082 5.68869 6.23498 5.68869 7.25459C5.68969 8.27395 6.51572 9.09998 7.53508 9.10123ZM7.53508 6.29992C8.0623 6.29992 8.48974 6.72737 8.48974 7.25459C8.48999 7.78206 8.06255 8.20951 7.53508 8.20951C7.00786 8.20951 6.58041 7.78206 6.58041 7.25459C6.58091 6.72762 7.00811 6.30067 7.53508 6.29992Z" fill="#FFC582"/>
<path d="M10.5066 12.8574C10.5066 13.8772 11.3334 14.7038 12.353 14.7038C13.3728 14.7038 14.1996 13.8772 14.1996 12.8574C14.1996 11.8375 13.3728 11.0107 12.353 11.0107C11.3336 11.012 10.5078 11.838 10.5066 12.8574ZM13.3079 12.8574C13.3079 13.3846 12.8804 13.812 12.353 13.812C11.8257 13.812 11.3983 13.3846 11.3983 12.8574C11.3983 12.3302 11.8257 11.9027 12.353 11.9025C12.8802 11.9032 13.3071 12.3302 13.3079 12.8574Z" fill="#FFC582"/>
<path d="M6.60504 15.2057C6.8113 15.3403 7.08773 15.2821 7.22208 15.0759L13.5248 5.41176C13.6122 5.27815 13.6216 5.10821 13.5497 4.9659C13.4776 4.82358 13.335 4.73053 13.1758 4.72207C13.0165 4.71361 12.8647 4.79074 12.7779 4.92459L6.47517 14.5887C6.34056 14.7952 6.39878 15.0714 6.60504 15.2057Z" fill="#FFC582"/>
</svg>
