<svg width="14" height="14" viewBox="0 0 14 14" fill="none" xmlns="http://www.w3.org/2000/svg">
<path d="M10.3873 3.58374C9.61026 3.58374 8.9781 4.21593 8.9781 4.99296C8.9781 5.76998 9.61026 6.40217 10.3873 6.40217C11.1643 6.40217 11.7965 5.77001 11.7965 4.99296C11.7965 4.21587 11.1644 3.58374 10.3873 3.58374ZM10.3873 5.85529C9.91181 5.85529 9.52498 5.46846 9.52498 4.99296C9.52498 4.51745 9.91181 4.13062 10.3873 4.13062C10.8628 4.13062 11.2497 4.51745 11.2497 4.99296C11.2497 5.46841 10.8628 5.85529 10.3873 5.85529Z" fill="white"/>
<path d="M10.3969 12.3371C10.3901 12.3204 10.3816 12.3045 10.3718 12.2898C10.3619 12.2747 10.3504 12.2608 10.3379 12.2482C10.3253 12.2356 10.3113 12.2241 10.2963 12.2143C10.2815 12.2044 10.2657 12.196 10.249 12.1891C10.2326 12.1823 10.2154 12.1768 10.1979 12.1735C10.1626 12.1664 10.1265 12.1664 10.0912 12.1735C10.0737 12.1768 10.0565 12.1823 10.0401 12.1891C10.0234 12.196 10.0075 12.2044 9.99277 12.2143C9.97773 12.2241 9.96379 12.2356 9.95121 12.2482C9.93863 12.2608 9.92715 12.2747 9.9173 12.2898C9.90746 12.3045 9.89898 12.3204 9.89215 12.3371C9.88531 12.3535 9.87984 12.3707 9.87656 12.3882C9.87301 12.4057 9.87109 12.4237 9.87109 12.4415C9.87109 12.4593 9.87301 12.4773 9.87656 12.4948C9.87984 12.5123 9.88531 12.5296 9.89215 12.546C9.89898 12.5626 9.90746 12.5785 9.9173 12.5933C9.92715 12.6083 9.93863 12.6223 9.95121 12.6348C9.95747 12.6411 9.96409 12.6471 9.97098 12.6527C9.97795 12.6584 9.98523 12.6638 9.99277 12.6687C10.0075 12.6786 10.0234 12.6871 10.0401 12.6939C10.0565 12.7007 10.0737 12.7062 10.0912 12.7095C10.1087 12.713 10.1268 12.7149 10.1445 12.7149C10.1623 12.7149 10.1804 12.713 10.1979 12.7095C10.2154 12.7062 10.2326 12.7007 10.249 12.6939C10.2657 12.6871 10.2815 12.6786 10.2963 12.6687C10.3038 12.6638 10.3111 12.6584 10.3181 12.6527C10.325 12.6471 10.3316 12.6411 10.3379 12.6348C10.3504 12.6223 10.3619 12.6083 10.3718 12.5933C10.3816 12.5785 10.3901 12.5626 10.3969 12.546C10.4038 12.5296 10.4092 12.5123 10.4128 12.4948C10.4163 12.4773 10.418 12.4593 10.418 12.4415C10.418 12.4237 10.4163 12.4057 10.4128 12.3882C10.4092 12.3707 10.4038 12.3534 10.3969 12.3371Z" fill="white"/>
<path d="M6.09355 1.51626C6.08672 1.49985 6.07824 1.48399 6.0684 1.46896C6.05855 1.45419 6.04707 1.43997 6.03449 1.42739C6.02191 1.41481 6.00797 1.40333 5.99293 1.39349C5.97816 1.38364 5.9623 1.37517 5.94562 1.36833C5.92922 1.36149 5.91199 1.3563 5.89449 1.35274C5.85922 1.34563 5.82312 1.34563 5.78785 1.35274C5.77035 1.3563 5.75312 1.36149 5.73644 1.36833C5.72004 1.37517 5.70418 1.38364 5.68941 1.39349C5.67437 1.40333 5.66043 1.41481 5.64785 1.42739C5.63527 1.43997 5.62379 1.45419 5.61367 1.46896C5.60383 1.48399 5.59562 1.49985 5.58879 1.51626C5.58195 1.53267 5.57648 1.54989 5.5732 1.56739C5.56965 1.58517 5.56773 1.60294 5.56773 1.62099C5.56773 1.63876 5.56965 1.65653 5.5732 1.67431C5.57648 1.69181 5.58195 1.70903 5.58879 1.72544C5.59562 1.74185 5.60383 1.75771 5.61367 1.77274C5.62379 1.78751 5.63527 1.80173 5.64785 1.81431C5.66043 1.82688 5.67437 1.83837 5.68941 1.84821C5.70418 1.85806 5.72004 1.86653 5.73644 1.87337C5.75312 1.88021 5.77035 1.8854 5.78785 1.88896C5.80535 1.89251 5.8234 1.89442 5.84117 1.89442C5.85894 1.89442 5.87699 1.89251 5.89449 1.88896C5.91199 1.8854 5.92922 1.88021 5.94562 1.87337C5.9623 1.86653 5.97816 1.85806 5.99293 1.84821C6.00797 1.83837 6.02191 1.82688 6.03449 1.81431C6.04707 1.80173 6.05855 1.78751 6.0684 1.77274C6.07824 1.75771 6.08672 1.74185 6.09355 1.72544C6.10039 1.70903 6.10586 1.69181 6.10914 1.67431C6.11269 1.65653 6.11461 1.63876 6.11461 1.62099C6.11461 1.60294 6.11269 1.58517 6.10914 1.56739C6.10586 1.54989 6.10039 1.53267 6.09355 1.51626Z" fill="white"/>
<path d="M12.4722 1.34856C12.3083 0.65542 11.6847 0.137939 10.9422 0.137939H2.36296C1.06004 0.137912 0 1.19795 0 2.50088V11.0801C0 11.9322 0.681324 12.6276 1.52775 12.6515C1.6917 13.3446 2.31525 13.8621 3.0578 13.8621H12.4275C13.2946 13.8621 14 13.1567 14 12.2896V10.2263V2.91992C14 2.06789 13.3187 1.37243 12.4722 1.34856ZM13.4531 12.2896C13.4531 12.8552 12.993 13.3153 12.4275 13.3153H3.0578C2.62002 13.3153 2.24563 13.0395 2.09871 12.6527C2.05581 12.5398 2.03213 12.4174 2.03213 12.2896V12.1058V10.839L5.16914 5.51998C5.26466 5.35805 5.43498 5.2635 5.62185 5.26651C5.80984 5.26973 5.97573 5.37019 6.06564 5.53532L7.41631 8.01545L9.37962 11.6205C9.42922 11.7116 9.52309 11.7632 9.62 11.7632C9.66418 11.7632 9.709 11.7525 9.75054 11.7299C9.88315 11.6576 9.93213 11.4916 9.85991 11.359L9.2228 10.1891C9.50253 10.202 9.77766 10.1114 9.99677 9.92963L11.2264 8.90954C11.4236 8.74594 11.7148 8.75313 11.9037 8.9263L11.9679 8.98515L12.5148 9.48644L13.4531 10.3466V12.2896ZM13.4531 9.6047L12.5148 8.74452L11.9679 8.3281C11.6116 8.17908 11.1879 8.23092 10.8773 8.48861L9.64759 9.5087C9.51234 9.62092 9.33576 9.66625 9.16316 9.63308C8.99057 9.59994 8.84338 9.49237 8.75932 9.33804L7.89657 7.75386L7.41483 6.86926V6.86923L6.54593 5.27372C6.36059 4.93343 6.01863 4.7263 5.6312 4.71969C5.24388 4.71361 4.89494 4.90838 4.69809 5.24214L2.03211 9.76247V2.91992C2.03211 2.35437 2.49222 1.89426 3.05777 1.89426H4.74739C4.89841 1.89426 5.02083 1.77184 5.02083 1.62082C5.02083 1.4698 4.89841 1.34738 4.74739 1.34738H3.05777C2.19067 1.34738 1.48523 2.05282 1.48523 2.91992V10.7643V12.1018C0.960422 12.0573 0.546875 11.6162 0.546875 11.0801V2.50088C0.546875 1.49947 1.36158 0.684787 2.36296 0.684787H10.9422C11.38 0.684787 11.7544 0.960549 11.9013 1.34741H6.93489C6.78387 1.34741 6.66146 1.46983 6.66146 1.62085C6.66146 1.77187 6.78387 1.89428 6.93489 1.89428H11.9679L12.5147 1.89828C13.0396 1.94274 13.4531 2.38379 13.4531 2.91992V9.6047Z" fill="white"/>
</svg>
