<svg width="21" height="19" viewBox="0 0 21 19" fill="none" xmlns="http://www.w3.org/2000/svg">
<path d="M18.8999 0.640625H2.10013C1.61293 0.641082 1.14582 0.834823 0.801318 1.17932C0.456817 1.52382 0.263076 1.99094 0.262619 2.47813V13.4012C0.263141 13.8884 0.456903 14.3554 0.801389 14.6999C1.14588 15.0444 1.61295 15.2382 2.10013 15.2387H8.21432L10.1398 18.1652C10.179 18.2249 10.2325 18.2739 10.2954 18.3078C10.3583 18.3417 10.4286 18.3594 10.5 18.3594C10.5714 18.3594 10.6417 18.3417 10.7046 18.3078C10.7675 18.2739 10.8209 18.2249 10.8602 18.1652L12.7857 15.2387H18.8999C19.387 15.2382 19.8541 15.0444 20.1986 14.6999C20.5431 14.3554 20.7369 13.8884 20.7374 13.4012V2.47813C20.7369 1.99094 20.5432 1.52382 20.1987 1.17932C19.8542 0.834823 19.3871 0.641082 18.8999 0.640625ZM19.875 13.4012C19.8747 13.6597 19.7719 13.9076 19.5891 14.0904C19.4062 14.2732 19.1584 14.376 18.8999 14.3764H12.5531C12.4817 14.3764 12.4114 14.3941 12.3486 14.428C12.2858 14.4619 12.2323 14.5108 12.1931 14.5705L10.5 17.1437L8.80686 14.5705C8.76766 14.5108 8.71423 14.4619 8.6514 14.428C8.58857 14.3941 8.51829 14.3764 8.4469 14.3764H2.10013C1.8416 14.376 1.59375 14.2732 1.41094 14.0904C1.22812 13.9076 1.12528 13.6597 1.12495 13.4012V2.47813C1.12528 2.21962 1.22813 1.9718 1.41095 1.78903C1.59377 1.60626 1.84162 1.50347 2.10013 1.5032H18.8999C19.1584 1.50347 19.4062 1.60626 19.589 1.78903C19.7719 1.9718 19.8747 2.21962 19.875 2.47813V13.4012Z" fill="#FFC582"/>
<path d="M14.6757 6.16067L12.3215 5.82239L11.2655 3.68307C11.195 3.54024 11.0859 3.42 10.9507 3.33592C10.8154 3.25183 10.6593 3.20728 10.5 3.20728C10.3407 3.20728 10.1846 3.25183 10.0493 3.33592C9.91405 3.42 9.80499 3.54024 9.73449 3.68307L8.68515 5.81771L6.32433 6.16067C6.16669 6.18361 6.0186 6.25019 5.89682 6.35289C5.77503 6.45558 5.6844 6.59029 5.63516 6.74179C5.58593 6.89329 5.58005 7.05555 5.6182 7.21021C5.65634 7.36488 5.73699 7.5058 5.85103 7.61703L7.55722 9.27443L7.15365 11.6256C7.12669 11.7827 7.14421 11.9441 7.20422 12.0917C7.26424 12.2393 7.36436 12.3671 7.49325 12.4608C7.62215 12.5544 7.77468 12.6101 7.93358 12.6216C8.09249 12.6331 8.25144 12.5998 8.39245 12.5257L10.4958 11.4155L12.6075 12.5257C12.7485 12.5998 12.9075 12.6331 13.0664 12.6216C13.2253 12.6101 13.3778 12.5544 13.5067 12.4608C13.6356 12.3671 13.7357 12.2393 13.7958 12.0917C13.8558 11.9441 13.8733 11.7827 13.8463 11.6256L13.4405 9.28207L15.149 7.61678C15.2629 7.50554 15.3435 7.36464 15.3816 7.21001C15.4197 7.05538 15.4138 6.89317 15.3646 6.74172C15.3154 6.59026 15.2248 6.45559 15.103 6.35291C14.9813 6.25024 14.8332 6.18365 14.6757 6.16067ZM12.8386 8.66439C12.7393 8.76096 12.665 8.88023 12.6221 9.01192C12.5792 9.14361 12.5689 9.28376 12.5923 9.42029L13.0081 11.7626L10.8964 10.6524C10.7739 10.588 10.6376 10.5543 10.4993 10.5543C10.3609 10.5543 10.2246 10.588 10.1021 10.6524L8.00292 11.7715L8.40625 9.42004C8.42954 9.28355 8.41928 9.14344 8.37636 9.0118C8.33343 8.88015 8.25913 8.76093 8.15986 8.66439L6.44678 7.01364L8.8076 6.67068C8.94472 6.65075 9.07491 6.5977 9.18691 6.51614C9.29892 6.43457 9.38936 6.32694 9.45041 6.20256L10.4899 4.06175V4.06323L11.5456 6.20231C11.6068 6.32668 11.6973 6.4343 11.8093 6.51586C11.9213 6.59743 12.0515 6.65048 12.1887 6.67043L14.5446 6.99861L12.8386 8.66439Z" fill="#FFC582"/>
</svg>
