<svg width="16" height="16" viewBox="0 0 16 16" fill="none" xmlns="http://www.w3.org/2000/svg">
<path d="M10.4772 5.9917V14.1251H14.4938V0.5354C14.4938 0.276733 14.2837 0.0666504 14.025 0.0666504H8C7.74121 0.0666504 7.53125 0.276733 7.53125 0.5354V4.58545H9.07092C9.84619 4.58545 10.4772 5.21643 10.4772 5.9917ZM11.5479 2.54382C11.5479 2.28503 11.7578 2.07507 12.0166 2.07507C12.2755 2.07507 12.4854 2.28503 12.4854 2.54382V3.0459C12.4854 3.30481 12.2755 3.51465 12.0166 3.51465C11.7578 3.51465 11.5479 3.30481 11.5479 3.0459V2.54382ZM11.5479 5.05432C11.5479 4.79541 11.7578 4.58557 12.0166 4.58557C12.2755 4.58557 12.4854 4.79541 12.4854 5.05432V5.5564C12.4854 5.81531 12.2755 6.02515 12.0166 6.02515C11.7578 6.02515 11.5479 5.81531 11.5479 5.5564V5.05432ZM11.5479 7.5647C11.5479 7.30579 11.7578 7.09595 12.0166 7.09595C12.2755 7.09595 12.4854 7.30579 12.4854 7.5647V8.06677C12.4854 8.32568 12.2755 8.53552 12.0166 8.53552C11.7578 8.53552 11.5479 8.32568 11.5479 8.06677V7.5647ZM11.5479 10.0751C11.5479 9.81628 11.7578 9.60632 12.0166 9.60632C12.2755 9.60632 12.4854 9.81628 12.4854 10.0751V10.5771C12.4854 10.8361 12.2755 11.0459 12.0166 11.0459C11.7578 11.0459 11.5479 10.8361 11.5479 10.5771V10.0751ZM9.53955 2.54382C9.53955 2.28503 9.74951 2.07507 10.0083 2.07507C10.2672 2.07507 10.4771 2.28503 10.4771 2.54382V3.0459C10.4771 3.30481 10.2672 3.51465 10.0083 3.51465C9.74951 3.51465 9.53955 3.30481 9.53955 3.0459V2.54382Z" fill="#A7A5AE"/>
<path d="M1.4729 4.45215H4.98755C5.79968 4.45215 6.46045 3.79138 6.46045 2.97925C6.46045 2.15771 5.7937 1.50623 4.98755 1.50623H4.94055C4.83313 0.658081 4.10706 0 3.23022 0C2.35339 0 1.62732 0.658081 1.5199 1.50623H1.4729C0.650024 1.50623 0 2.17432 0 2.97913C0 3.79138 0.660767 4.45215 1.4729 4.45215Z" fill="#A7A5AE"/>
<path d="M15.5312 15.0625H0.46875C0.209839 15.0625 0 15.2723 0 15.5312C0 15.7902 0.209839 16 0.46875 16H15.5312C15.7902 16 16 15.7902 16 15.5312C16 15.2723 15.7902 15.0625 15.5312 15.0625Z" fill="#A7A5AE"/>
<path d="M9.53967 14.1249V5.99146C9.53967 5.73267 9.32971 5.52271 9.07092 5.52271H1.97498C1.71631 5.52271 1.50623 5.73267 1.50623 5.99146V14.1249H4.05005V12.5521C4.05005 12.293 4.26001 12.0834 4.5188 12.0834H6.52722C6.78589 12.0834 6.99597 12.293 6.99597 12.5521V14.1249H9.53967ZM3.9834 10.5436C3.9834 10.8025 3.77344 11.0123 3.51465 11.0123C3.25574 11.0123 3.0459 10.8025 3.0459 10.5436V10.0415C3.0459 9.78271 3.25574 9.57275 3.51465 9.57275C3.77344 9.57275 3.9834 9.78271 3.9834 10.0415V10.5436ZM3.9834 8.0332C3.9834 8.29211 3.77344 8.50195 3.51465 8.50195C3.25574 8.50195 3.0459 8.29211 3.0459 8.0332V7.53113C3.0459 7.27222 3.25574 7.06238 3.51465 7.06238C3.77344 7.06238 3.9834 7.27222 3.9834 7.53113V8.0332ZM5.9917 10.5436C5.9917 10.8025 5.78174 11.0123 5.52295 11.0123C5.26404 11.0123 5.0542 10.8025 5.0542 10.5436V10.0415C5.0542 9.78271 5.26404 9.57275 5.52295 9.57275C5.78174 9.57275 5.9917 9.78271 5.9917 10.0415V10.5436ZM5.9917 8.0332C5.9917 8.29211 5.78174 8.50195 5.52295 8.50195C5.26404 8.50195 5.0542 8.29211 5.0542 8.0332V7.53113C5.0542 7.27222 5.26404 7.06238 5.52295 7.06238C5.78174 7.06238 5.9917 7.27222 5.9917 7.53113V8.0332ZM7.0625 7.53113C7.0625 7.27222 7.27234 7.06238 7.53125 7.06238C7.79016 7.06238 8 7.27222 8 7.53113V8.0332C8 8.29211 7.79016 8.50195 7.53125 8.50195C7.27234 8.50195 7.0625 8.29211 7.0625 8.0332V7.53113ZM7.0625 10.0415C7.0625 9.78271 7.27234 9.57275 7.53125 9.57275C7.79016 9.57275 8 9.78271 8 10.0415V10.5436C8 10.8025 7.79016 11.0123 7.53125 11.0123C7.27234 11.0123 7.0625 10.8025 7.0625 10.5436V10.0415Z" fill="#A7A5AE"/>
<path d="M4.98755 13.021H6.05847V14.125H4.98755V13.021Z" fill="#A7A5AE"/>
</svg>
