<svg width="21" height="21" viewBox="0 0 21 21" fill="none" xmlns="http://www.w3.org/2000/svg">
<g clip-path="url(#clip0)">
<path d="M20.1854 7.87367C20.0738 7.74904 19.8884 7.72369 19.7475 7.81375L18.8532 8.38994V1.12996C18.8266 0.715854 18.4694 0.401716 18.0553 0.428336C18.0508 0.428624 18.0464 0.42897 18.042 0.429316H2.49409C2.0805 0.395378 1.71773 0.70312 1.68379 1.11665C1.68345 1.12109 1.6831 1.12552 1.68281 1.12996V8.09954L1.25413 7.82297C1.10853 7.71897 0.907322 7.74512 0.793179 7.88289C0.269827 8.52177 -0.0109502 9.32498 0.000343121 10.1508V17.3508C0.0187812 18.9088 0.866931 20.5729 3.24083 20.5729H17.77C19.328 20.5729 20.9967 19.7247 20.9967 17.3462V10.1508C21.0349 9.31478 20.7437 8.49717 20.1854 7.87367ZM2.49409 1.12074H18.0512C18.1249 1.12074 18.1664 1.1484 18.1664 1.12074V8.85089L10.5054 13.8199L2.37885 8.55127L2.36963 1.16223C2.40391 1.13238 2.44868 1.11746 2.49409 1.12074ZM0.825445 18.1206C0.763159 17.8687 0.730662 17.6103 0.728646 17.3508L0.714817 10.1508C0.710092 9.59815 0.86019 9.05526 1.14811 8.58354L7.77659 12.8796L0.825445 18.1206ZM17.77 19.8814L17.7654 19.8768H3.24083C2.03314 19.8768 1.39702 19.3652 1.06975 18.7844L8.38965 13.2668L10.3164 14.516C10.3622 14.5391 10.4127 14.5516 10.4639 14.5529C10.5152 14.5516 10.5656 14.5391 10.6114 14.516L12.4875 13.2991L19.8351 18.8305C19.3564 19.4933 18.5876 19.8846 17.77 19.8814ZM20.3006 10.1462L20.296 17.3462C20.2972 17.626 20.2632 17.9047 20.1946 18.1759L13.1928 12.9073L19.8673 8.57893C20.1701 9.04408 20.3215 9.59158 20.3006 10.1462Z" fill="#FFC582"/>
<path d="M11.9451 3.17522C10.3871 2.37501 8.47539 2.98934 7.67517 4.54735C7.4447 4.99609 7.32462 5.49328 7.32485 5.99773C7.33499 7.74635 8.75674 9.15784 10.5054 9.15524C10.7635 9.15553 11.0206 9.12298 11.2706 9.05844C11.3631 9.04582 11.4446 8.99143 11.4918 8.91094C11.5383 8.83477 11.5485 8.74183 11.5195 8.65742C11.5112 8.58395 11.4728 8.51717 11.4135 8.47304C11.3317 8.41582 11.2289 8.39727 11.1323 8.42233C10.929 8.47309 10.7195 8.49482 10.51 8.48686C9.12515 8.4894 8.00038 7.36877 7.99784 5.9839C7.99531 4.59903 9.11594 3.47426 10.5008 3.47172C11.8857 3.46919 13.0105 4.58982 13.013 5.97468C13.0171 6.37479 12.9204 6.76954 12.7318 7.12245C12.6469 7.29012 12.5069 7.42357 12.3354 7.50043H12.2662C12.1694 7.50043 12.1648 7.24691 12.1648 7.24691V5.9839C12.2132 5.06362 11.5065 4.27833 10.5862 4.22987C9.66591 4.18147 8.88062 4.88822 8.83216 5.80851C8.82911 5.86694 8.82911 5.92542 8.83216 5.98385C8.81413 6.92822 9.56121 7.71034 10.5054 7.73546C10.8744 7.73747 11.2322 7.60841 11.5149 7.37131V7.39435C11.518 7.5698 11.5742 7.74018 11.6762 7.88296C11.815 8.06769 12.0354 8.17273 12.2662 8.16414C12.335 8.17411 12.4049 8.17411 12.4737 8.16414C12.8311 8.04666 13.1319 7.80011 13.3172 7.47272V7.44506C14.1174 5.8871 13.5031 3.97543 11.9451 3.17522ZM10.5054 7.06253L10.51 7.06714C9.94513 7.05014 9.50094 6.57847 9.51794 6.01352C9.51817 6.00516 9.51852 5.99681 9.51898 5.98851C9.49288 5.41642 9.93349 4.93046 10.5054 4.90067C11.0783 4.93288 11.5215 5.41497 11.5057 5.98851C11.5238 6.56049 11.0772 7.04006 10.5054 7.06253Z" fill="#FFC582"/>
</g>
<defs>
<clipPath id="clip0">
<rect width="21" height="21" fill="white"/>
</clipPath>
</defs>
</svg>
