<svg width="28" height="28" viewBox="0 0 28 28" fill="none" xmlns="http://www.w3.org/2000/svg">
<path d="M14 14.4375C13.884 14.4375 13.7727 14.4836 13.6906 14.5656C13.6086 14.6477 13.5625 14.759 13.5625 14.875V23.625C13.5625 23.741 13.6086 23.8523 13.6906 23.9344C13.7727 24.0164 13.884 24.0625 14 24.0625C14.116 24.0625 14.2273 24.0164 14.3094 23.9344C14.3914 23.8523 14.4375 23.741 14.4375 23.625V14.875C14.4375 14.759 14.3914 14.6477 14.3094 14.5656C14.2273 14.4836 14.116 14.4375 14 14.4375Z" fill="#FFC582"/>
<path d="M11.8125 14.4375C11.6965 14.4375 11.5852 14.4836 11.5031 14.5656C11.4211 14.6477 11.375 14.759 11.375 14.875V23.625C11.375 23.741 11.4211 23.8523 11.5031 23.9344C11.5852 24.0164 11.6965 24.0625 11.8125 24.0625C11.9285 24.0625 12.0398 24.0164 12.1219 23.9344C12.2039 23.8523 12.25 23.741 12.25 23.625V14.875C12.25 14.759 12.2039 14.6477 12.1219 14.5656C12.0398 14.4836 11.9285 14.4375 11.8125 14.4375Z" fill="#FFC582"/>
<path d="M9.625 14.4375C9.50897 14.4375 9.39769 14.4836 9.31564 14.5656C9.23359 14.6477 9.1875 14.759 9.1875 14.875V23.625C9.1875 23.741 9.23359 23.8523 9.31564 23.9344C9.39769 24.0164 9.50897 24.0625 9.625 24.0625C9.74103 24.0625 9.85231 24.0164 9.93436 23.9344C10.0164 23.8523 10.0625 23.741 10.0625 23.625V14.875C10.0625 14.759 10.0164 14.6477 9.93436 14.5656C9.85231 14.4836 9.74103 14.4375 9.625 14.4375Z" fill="#FFC582"/>
<path d="M7.4375 14.4375C7.32147 14.4375 7.21019 14.4836 7.12814 14.5656C7.04609 14.6477 7 14.759 7 14.875V23.625C7 23.741 7.04609 23.8523 7.12814 23.9344C7.21019 24.0164 7.32147 24.0625 7.4375 24.0625C7.55353 24.0625 7.66481 24.0164 7.74686 23.9344C7.82891 23.8523 7.875 23.741 7.875 23.625V14.875C7.875 14.759 7.82891 14.6477 7.74686 14.5656C7.66481 14.4836 7.55353 14.4375 7.4375 14.4375Z" fill="#FFC582"/>
<path d="M5.25 14.4375C5.13397 14.4375 5.02269 14.4836 4.94064 14.5656C4.85859 14.6477 4.8125 14.759 4.8125 14.875V23.625C4.8125 23.741 4.85859 23.8523 4.94064 23.9344C5.02269 24.0164 5.13397 24.0625 5.25 24.0625C5.36603 24.0625 5.47731 24.0164 5.55936 23.9344C5.64141 23.8523 5.6875 23.741 5.6875 23.625V14.875C5.6875 14.759 5.64141 14.6477 5.55936 14.5656C5.47731 14.4836 5.36603 14.4375 5.25 14.4375Z" fill="#FFC582"/>
<path d="M3.0625 14.4375C2.94647 14.4375 2.83519 14.4836 2.75314 14.5656C2.67109 14.6477 2.625 14.759 2.625 14.875V23.625C2.625 23.741 2.67109 23.8523 2.75314 23.9344C2.83519 24.0164 2.94647 24.0625 3.0625 24.0625C3.17853 24.0625 3.28981 24.0164 3.37186 23.9344C3.45391 23.8523 3.5 23.741 3.5 23.625V14.875C3.5 14.759 3.45391 14.6477 3.37186 14.5656C3.28981 14.4836 3.17853 14.4375 3.0625 14.4375Z" fill="#FFC582"/>
<path d="M24.9375 14.4375C24.8215 14.4375 24.7102 14.4836 24.6281 14.5656C24.5461 14.6477 24.5 14.759 24.5 14.875V21.875C24.5 21.991 24.5461 22.1023 24.6281 22.1844C24.7102 22.2664 24.8215 22.3125 24.9375 22.3125C25.0535 22.3125 25.1648 22.2664 25.2469 22.1844C25.3289 22.1023 25.375 21.991 25.375 21.875V14.875C25.375 14.759 25.3289 14.6477 25.2469 14.5656C25.1648 14.4836 25.0535 14.4375 24.9375 14.4375Z" fill="#FFC582"/>
<path d="M22.75 14.4375C22.634 14.4375 22.5227 14.4836 22.4406 14.5656C22.3586 14.6477 22.3125 14.759 22.3125 14.875V23.625C22.3125 23.741 22.3586 23.8523 22.4406 23.9344C22.5227 24.0164 22.634 24.0625 22.75 24.0625C22.866 24.0625 22.9773 24.0164 23.0594 23.9344C23.1414 23.8523 23.1875 23.741 23.1875 23.625V14.875C23.1875 14.759 23.1414 14.6477 23.0594 14.5656C22.9773 14.4836 22.866 14.4375 22.75 14.4375Z" fill="#FFC582"/>
<path d="M20.5625 14.4375C20.4465 14.4375 20.3352 14.4836 20.2531 14.5656C20.1711 14.6477 20.125 14.759 20.125 14.875V23.625C20.125 23.741 20.1711 23.8523 20.2531 23.9344C20.3352 24.0164 20.4465 24.0625 20.5625 24.0625C20.6785 24.0625 20.7898 24.0164 20.8719 23.9344C20.9539 23.8523 21 23.741 21 23.625V14.875C21 14.759 20.9539 14.6477 20.8719 14.5656C20.7898 14.4836 20.6785 14.4375 20.5625 14.4375Z" fill="#FFC582"/>
<path d="M18.375 14.4375C18.259 14.4375 18.1477 14.4836 18.0656 14.5656C17.9836 14.6477 17.9375 14.759 17.9375 14.875V23.625C17.9375 23.741 17.9836 23.8523 18.0656 23.9344C18.1477 24.0164 18.259 24.0625 18.375 24.0625C18.491 24.0625 18.6023 24.0164 18.6844 23.9344C18.7664 23.8523 18.8125 23.741 18.8125 23.625V14.875C18.8125 14.759 18.7664 14.6477 18.6844 14.5656C18.6023 14.4836 18.491 14.4375 18.375 14.4375Z" fill="#FFC582"/>
<path d="M16.1875 14.4375C16.0715 14.4375 15.9602 14.4836 15.8781 14.5656C15.7961 14.6477 15.75 14.759 15.75 14.875V23.625C15.75 23.741 15.7961 23.8523 15.8781 23.9344C15.9602 24.0164 16.0715 24.0625 16.1875 24.0625C16.3035 24.0625 16.4148 24.0164 16.4969 23.9344C16.5789 23.8523 16.625 23.741 16.625 23.625V14.875C16.625 14.759 16.5789 14.6477 16.4969 14.5656C16.4148 14.4836 16.3035 14.4375 16.1875 14.4375Z" fill="#FFC582"/>
<path d="M24.9375 22.75C24.8215 22.75 24.7102 22.7961 24.6281 22.8781C24.5461 22.9602 24.5 23.0715 24.5 23.1875V23.625C24.5 23.741 24.5461 23.8523 24.6281 23.9344C24.7102 24.0164 24.8215 24.0625 24.9375 24.0625C25.0535 24.0625 25.1648 24.0164 25.2469 23.9344C25.3289 23.8523 25.375 23.741 25.375 23.625V23.1875C25.375 23.0715 25.3289 22.9602 25.2469 22.8781C25.1648 22.7961 25.0535 22.75 24.9375 22.75Z" fill="#FFC582"/>
<path d="M27.125 11.375H25.0234L15.6625 7.54523C15.7372 7.31789 15.7645 7.07762 15.7427 6.83931C15.7209 6.60099 15.6503 6.36969 15.5355 6.15972C15.4207 5.94975 15.264 5.76558 15.0751 5.6186C14.8863 5.47162 14.6692 5.36497 14.4375 5.30523V4.375H14.875C14.991 4.375 15.1023 4.32891 15.1844 4.24686C15.2664 4.16481 15.3125 4.05353 15.3125 3.9375V3.0625H19.25C19.366 3.0625 19.4773 3.01641 19.5594 2.93436C19.6414 2.85231 19.6875 2.74103 19.6875 2.625V0.875C19.6875 0.758968 19.6414 0.647688 19.5594 0.565641C19.4773 0.483594 19.366 0.4375 19.25 0.4375H8.75C8.63397 0.4375 8.52269 0.483594 8.44064 0.565641C8.35859 0.647688 8.3125 0.758968 8.3125 0.875V2.625C8.3125 2.74103 8.35859 2.85231 8.44064 2.93436C8.52269 3.01641 8.63397 3.0625 8.75 3.0625H12.6875V3.9375C12.6875 4.05353 12.7336 4.16481 12.8156 4.24686C12.8977 4.32891 13.009 4.375 13.125 4.375H13.5625V5.6875C13.5625 5.80353 13.6086 5.91481 13.6906 5.99686C13.7727 6.07891 13.884 6.125 14 6.125C14.1731 6.125 14.3422 6.17632 14.4861 6.27246C14.63 6.36861 14.7422 6.50527 14.8084 6.66515C14.8746 6.82504 14.8919 7.00097 14.8582 7.1707C14.8244 7.34044 14.7411 7.49635 14.6187 7.61872C14.4963 7.74109 14.3404 7.82443 14.1707 7.85819C14.001 7.89195 13.825 7.87462 13.6652 7.80839C13.5053 7.74217 13.3686 7.63002 13.2725 7.48612C13.1763 7.34223 13.125 7.17306 13.125 7C13.125 6.88397 13.0789 6.77269 12.9969 6.69064C12.9148 6.60859 12.8035 6.5625 12.6875 6.5625C12.5715 6.5625 12.4602 6.60859 12.3781 6.69064C12.2961 6.77269 12.25 6.88397 12.25 7C12.2501 7.18524 12.2796 7.36928 12.3375 7.54523L2.97664 11.375H0.875C0.758968 11.375 0.647688 11.4211 0.565641 11.5031C0.483594 11.5852 0.4375 11.6965 0.4375 11.8125V27.125C0.4375 27.241 0.483594 27.3523 0.565641 27.4344C0.647688 27.5164 0.758968 27.5625 0.875 27.5625H27.125C27.241 27.5625 27.3523 27.5164 27.4344 27.4344C27.5164 27.3523 27.5625 27.241 27.5625 27.125V11.8125C27.5625 11.6965 27.5164 11.5852 27.4344 11.5031C27.3523 11.4211 27.241 11.375 27.125 11.375ZM9.1875 2.1875V1.3125H18.8125V2.1875H9.1875ZM13.5625 3.5V3.0625H14.4375V3.5H13.5625ZM3.5 12.1062L12.822 8.29281C13.1438 8.58692 13.564 8.75001 14 8.75001C14.436 8.75001 14.8562 8.58692 15.178 8.29281L24.5 12.1062V12.6875H3.5V12.1062ZM1.3125 12.25H2.625V12.6875H1.3125V12.25ZM26.6875 26.6875H1.3125V25.8125H26.6875V26.6875ZM26.6875 24.9375H1.3125V13.5625H26.6875V24.9375ZM26.6875 12.6875H25.375V12.25H26.6875V12.6875Z" fill="#FFC582"/>
</svg>
