<svg width="28" height="28" viewBox="0 0 28 28" fill="none" xmlns="http://www.w3.org/2000/svg">
<g clip-path="url(#clip0)">
<path d="M25.0833 4.66699H2.91665C1.309 4.66699 0 5.97599 0 7.5837V20.417C0 22.0247 1.309 23.3337 2.91665 23.3337H25.0833C26.6909 23.3337 27.9999 22.0247 27.9999 20.417V7.5837C28 5.97599 26.691 4.66699 25.0833 4.66699ZM26.8333 20.417C26.8333 21.3818 26.0482 22.167 25.0833 22.167H2.91665C1.9518 22.167 1.16665 21.3818 1.16665 20.417V7.5837C1.16665 6.61884 1.9518 5.8337 2.91665 5.8337H25.0833C26.0481 5.8337 26.8333 6.61884 26.8333 7.5837V20.417H26.8333Z" fill="#FFC582"/>
<path d="M27.4166 8.16699H0.583352C0.261352 8.16699 0 8.42834 0 8.75034V12.2503C0 12.5723 0.261352 12.8337 0.583352 12.8337H27.4167C27.7387 12.8337 28.0001 12.5723 28.0001 12.2503V8.75034C28 8.42834 27.7386 8.16699 27.4166 8.16699ZM26.8334 11.667H1.16665V9.33364H26.8333V11.667H26.8334Z" fill="#FFC582"/>
<path d="M11.0834 16.333H4.08335C3.76135 16.333 3.5 16.5944 3.5 16.9164C3.5 17.2384 3.76135 17.4997 4.08335 17.4997H11.0834C11.4054 17.4997 11.6667 17.2383 11.6667 16.9163C11.6667 16.5943 11.4054 16.333 11.0834 16.333Z" fill="#FFC582"/>
<path d="M11.0834 18.667H4.08335C3.76135 18.667 3.5 18.9283 3.5 19.2503C3.5 19.5723 3.76135 19.8337 4.08335 19.8337H11.0834C11.4054 19.8337 11.6667 19.5723 11.6667 19.2503C11.6666 18.9283 11.4054 18.667 11.0834 18.667Z" fill="#FFC582"/>
<path d="M22.75 15.167H21.5833C20.6185 15.167 19.8333 15.9521 19.8333 16.917V18.0836C19.8333 19.0485 20.6185 19.8336 21.5833 19.8336H22.75C23.7148 19.8336 24.5 19.0485 24.5 18.0836V16.917C24.5 15.9522 23.7148 15.167 22.75 15.167ZM23.3333 18.0837C23.3333 18.4057 23.072 18.667 22.75 18.667H21.5833C21.2613 18.667 21 18.4057 21 18.0837V16.917C21 16.595 21.2613 16.3337 21.5833 16.3337H22.75C23.072 16.3337 23.3333 16.595 23.3333 16.917V18.0837Z" fill="#FFC582"/>
</g>
<defs>
<clipPath id="clip0">
<rect width="28" height="28" fill="white"/>
</clipPath>
</defs>
</svg>
