<svg width="26" height="26" viewBox="0 0 26 26" fill="none" xmlns="http://www.w3.org/2000/svg">
<path d="M24.9522 6.16516C24.8627 5.83239 24.6444 5.5487 24.3456 5.3767C24.0467 5.20386 23.6913 5.15711 23.3579 5.2466C23.0249 5.3363 22.7412 5.55441 22.5692 5.85312L22.3526 6.23011C22.1468 6.11185 21.8838 6.18145 21.7634 6.38623L20.6629 8.26207L20.2859 8.04544C20.1861 7.98768 20.0672 7.97203 19.9559 8.00207C19.8444 8.03232 19.7497 8.10552 19.6923 8.2058C19.5749 8.4129 19.6464 8.67608 19.8527 8.79497L20.2297 9.0116L16.547 15.3935L15.6371 17.8242L15.2038 18.6343C14.9502 19.0756 14.9772 19.6241 15.2732 20.0381L14.2984 21.2338L14.0255 20.5495C13.9023 20.2444 13.6174 20.0354 13.2897 20.0098C12.9618 19.984 12.6476 20.146 12.4786 20.428L12.3227 20.6923L12.1754 18.9592C12.1416 18.5492 11.8241 18.2196 11.4158 18.1701C11.0073 18.1208 10.6205 18.3656 10.49 18.7557L9.42421 21.9531C9.34974 22.1793 9.47159 22.423 9.69711 22.4991C9.73942 22.5188 9.7849 22.5307 9.83145 22.5336C10.0176 22.5342 10.1835 22.4156 10.2431 22.2391L11.3045 19.0417L11.4562 20.8006C11.4875 21.1759 11.7572 21.4879 12.124 21.573C12.4909 21.658 12.8704 21.4964 13.0635 21.1733L13.2239 20.9089L13.4926 21.5892C13.6066 21.8759 13.8645 22.0805 14.1698 22.1259C14.475 22.1714 14.7814 22.0511 14.9743 21.8101L15.9838 20.5321C16.0955 20.5613 16.2106 20.5759 16.3261 20.5755C16.7905 20.5791 17.2216 20.3345 17.4569 19.9341L17.8901 19.2105L19.5409 17.2046L23.2625 10.7446L23.6395 10.9613C23.74 11.0188 23.8132 11.1138 23.843 11.2257C23.873 11.3368 23.8574 11.4552 23.7998 11.5549L22.0668 14.5574C22.0014 14.656 21.9792 14.777 22.0054 14.8925C22.0317 15.0078 22.1038 15.1075 22.2054 15.1682C22.3052 15.2262 22.4241 15.2418 22.5354 15.2118C22.6469 15.1815 22.7416 15.1083 22.799 15.0081L24.532 12.0055C24.7049 11.7066 24.7516 11.3512 24.6619 11.0178C24.5722 10.6848 24.3541 10.4011 24.0554 10.2291L23.6784 10.0125L24.7615 8.13641C24.8798 7.93057 24.8102 7.66782 24.6056 7.54723L24.8223 7.17025C24.9998 6.86667 25.0467 6.50407 24.9522 6.16516ZM23.3188 6.28638C23.3761 6.1861 23.4713 6.11269 23.5832 6.08287C23.6945 6.05536 23.8121 6.07081 23.9124 6.12623C24.0129 6.18356 24.0861 6.27876 24.1161 6.39046C24.1436 6.50174 24.1282 6.61936 24.0727 6.71964L23.8561 7.09663L23.1021 6.66337L23.3188 6.28638ZM17.4135 18.3832L17.1969 18.2575L16.5556 17.8847L17.1708 16.2384L18.5356 17.0269L17.4135 18.3832ZM16.1137 19.6351C15.9307 19.5076 15.8744 19.2622 15.9838 19.0675L16.2004 18.6908L16.9542 19.124L16.7376 19.4966C16.6769 19.6019 16.5749 19.6768 16.4562 19.7033C16.3375 19.7295 16.2133 19.7049 16.1137 19.6351ZM19.0295 16.3165L17.5305 15.45L20.9966 9.44486L22.4956 10.3114L19.0295 16.3165ZM22.9289 9.56185L21.4298 8.69533L22.2963 7.19627L23.7954 8.06279L22.9289 9.56185Z" fill="#FFC582"/>
<path d="M5.83677 19.4186L4.30323 20.9481L3.38467 20.0296C3.21564 19.8616 2.94274 19.8616 2.77371 20.0296C2.69163 20.111 2.64551 20.2217 2.64551 20.3372C2.64551 20.4527 2.69163 20.5635 2.77371 20.6448L3.69227 21.5633C3.85474 21.7245 4.07433 21.8149 4.30323 21.8147C4.5334 21.8159 4.75489 21.7256 4.91842 21.5633L6.44773 20.0296C6.59497 19.8576 6.58503 19.6014 6.4251 19.4415C6.26495 19.2813 6.00876 19.2714 5.83677 19.4186Z" fill="#FFC582"/>
<path d="M0.733032 20.584C0.733032 22.618 2.38187 24.2667 4.41574 24.2667C6.44961 24.2667 8.09845 22.618 8.09845 20.584C8.09845 20.3447 7.90445 20.1507 7.66519 20.1507C7.42592 20.1507 7.23193 20.3447 7.23193 20.584C7.23193 22.1393 5.97107 23.4002 4.41574 23.4002C2.8604 23.4002 1.59955 22.1393 1.59955 20.584C1.59955 19.0286 2.8604 17.7678 4.41574 17.7678C5.02543 17.7661 5.61884 17.9639 6.10541 18.3311C6.29686 18.4748 6.5685 18.4359 6.71193 18.2444C6.85557 18.0529 6.81686 17.7815 6.62541 17.6379C5.50947 16.801 4.01633 16.6664 2.7688 17.2901C1.52107 17.914 0.733032 19.1892 0.733032 20.584Z" fill="#FFC582"/>
<path d="M14.5974 3.47101C14.8366 3.47101 15.0306 3.27723 15.0306 3.03775C15.0306 2.79849 14.8366 2.60449 14.5974 2.60449H3.33261C3.09335 2.60449 2.89935 2.79849 2.89935 3.03775V4.77079C2.89935 5.01027 3.09335 5.20405 3.33261 5.20405H14.5974C14.8366 5.20405 15.0306 5.01027 15.0306 4.77079C15.0306 4.53152 14.8366 4.33753 14.5974 4.33753H3.76587V3.47101H14.5974Z" fill="#FFC582"/>
<path d="M4.63236 6.07031C4.39309 6.07031 4.1991 6.2643 4.1991 6.50357C4.1991 6.74304 4.39309 6.93682 4.63236 6.93682H13.2976C13.5368 6.93682 13.7308 6.74304 13.7308 6.50357C13.7308 6.2643 13.5368 6.07031 13.2976 6.07031H4.63236Z" fill="#FFC582"/>
<path d="M15.8971 9.10254H6.36539C6.12612 9.10254 5.93213 9.29653 5.93213 9.53579C5.93213 9.77527 6.12612 9.96905 6.36539 9.96905H15.8971C16.1364 9.96905 16.3303 9.77527 16.3303 9.53579C16.3303 9.29653 16.1364 9.10254 15.8971 9.10254Z" fill="#FFC582"/>
<path d="M11.5645 12.1354C11.5645 11.8961 11.3705 11.7021 11.1312 11.7021H2.46604C2.22677 11.7021 2.03278 11.8961 2.03278 12.1354C2.03278 12.3749 2.22677 12.5687 2.46604 12.5687H11.1312C11.3705 12.5687 11.5645 12.3749 11.5645 12.1354Z" fill="#FFC582"/>
<path d="M15.8971 11.7021H12.8643C12.625 11.7021 12.431 11.8961 12.431 12.1354C12.431 12.3749 12.625 12.5687 12.8643 12.5687H15.8971C16.1364 12.5687 16.3304 12.3749 16.3304 12.1354C16.3304 11.8961 16.1364 11.7021 15.8971 11.7021Z" fill="#FFC582"/>
<path d="M6.79863 14.7356C7.0379 14.7356 7.23189 14.5419 7.23189 14.3024C7.23189 14.0631 7.0379 13.8691 6.79863 13.8691H2.46604C2.22677 13.8691 2.03278 14.0631 2.03278 14.3024C2.03278 14.5419 2.22677 14.7356 2.46604 14.7356H6.79863Z" fill="#FFC582"/>
<path d="M8.53171 14.7356H11.5645C11.8038 14.7356 11.9978 14.5419 11.9978 14.3024C11.9978 14.0631 11.8038 13.8691 11.5645 13.8691H8.53171C8.29244 13.8691 8.09845 14.0631 8.09845 14.3024C8.09845 14.5419 8.29244 14.7356 8.53171 14.7356Z" fill="#FFC582"/>
<path d="M19.4967 19.9338C19.2574 19.9338 19.0634 20.1278 19.0634 20.3671V24.6997C19.0634 24.9392 18.8694 25.133 18.6302 25.133H1.29978C1.06051 25.133 0.866519 24.9392 0.866519 24.6997V1.30368C0.866519 1.06442 1.06051 0.870425 1.29978 0.870425H18.6302C18.8694 0.870425 19.0634 1.06442 19.0634 1.30368V9.44042C19.0634 9.67968 19.2574 9.87368 19.4967 9.87368C19.7359 9.87368 19.9299 9.67968 19.9299 9.44042V1.30368C19.9299 0.585887 19.348 0.00390625 18.6302 0.00390625H1.29978C0.581981 0.00390625 0 0.585887 0 1.30368V24.6997C0 25.4177 0.581981 25.9995 1.29978 25.9995H18.6302C19.348 25.9995 19.9299 25.4177 19.9299 24.6997V20.3671C19.9299 20.1278 19.7359 19.9338 19.4967 19.9338Z" fill="#FFC582"/>
</svg>
