<svg width="34" height="34" viewBox="0 0 34 34" fill="none" xmlns="http://www.w3.org/2000/svg">
<path d="M32.3 16.9999H31.7333V5.09993C31.7315 3.53593 30.464 2.26844 28.9 2.2666H5.1C3.536 2.26844 2.26851 3.53593 2.26667 5.09993V13.5999H1.7C0.761104 13.5999 0 14.361 0 15.2999V30.0333C0 30.9722 0.761104 31.7333 1.7 31.7333H23.2333C23.5463 31.7333 23.8 31.4795 23.8 31.1666C23.7982 29.6026 22.5307 28.3351 20.9667 28.3333H19.2667V24.9333H26.0667V30.0333C26.0667 30.9722 26.8278 31.7333 27.7667 31.7333H32.3C33.2389 31.7333 34 30.9722 34 30.0333V18.6999C34 17.761 33.2389 16.9999 32.3 16.9999ZM12.4667 30.0333C12.4667 30.3462 12.2129 30.5999 11.9 30.5999H1.7C1.38706 30.5999 1.13333 30.3462 1.13333 30.0333V29.4666H12.4667V30.0333ZM12.4667 28.3333H1.13333V15.2999C1.13333 14.987 1.38706 14.7333 1.7 14.7333H11.9C12.2129 14.7333 12.4667 14.987 12.4667 15.2999V28.3333ZM20.9667 29.4666C21.6869 29.4675 22.3287 29.9212 22.5698 30.5999H13.4957C13.5629 30.4185 13.5981 30.2268 13.6 30.0333V29.4666H20.9667ZM13.6 28.3333V24.9333H14.7333V28.3333H13.6ZM15.8667 28.3333V24.9333H18.1333V28.3333H15.8667ZM26.0667 23.7999H13.6V20.3999H26.0667V23.7999ZM26.0667 18.6999V19.2666H13.6V15.2999C13.5981 15.0311 13.5316 14.7666 13.4062 14.5287C13.4147 14.5208 13.426 14.5185 13.434 14.51L19.044 8.9C19.2614 8.67489 19.2552 8.31612 19.0301 8.09873C18.8105 7.88666 18.4624 7.88666 18.2427 8.09873L12.6327 13.7087C12.6191 13.7229 12.6134 13.741 12.6015 13.7558C12.3817 13.6538 12.1423 13.6006 11.9 13.5999H3.4V5.09993C3.4 4.16104 4.1611 3.39993 5.1 3.39993H28.9C29.8389 3.39993 30.6 4.16104 30.6 5.09993V16.9999H27.7667C26.8278 16.9999 26.0667 17.761 26.0667 18.6999ZM32.8667 30.0333C32.8667 30.3462 32.6129 30.5999 32.3 30.5999H27.7667C27.4537 30.5999 27.2 30.3462 27.2 30.0333V29.4666H32.8667V30.0333ZM32.8667 28.3333H27.2V18.6999C27.2 18.387 27.4537 18.1333 27.7667 18.1333H32.3C32.6129 18.1333 32.8667 18.387 32.8667 18.6999V28.3333Z" fill="#FFC582"/>
<path d="M6.77111 20.497C6.54983 20.2758 6.19113 20.2758 5.96984 20.497L3.56604 22.9008C3.34093 23.1182 3.3347 23.4769 3.55216 23.702C3.76962 23.9271 4.12832 23.9334 4.35343 23.7159C4.35817 23.7114 4.36277 23.7067 4.36731 23.702L6.77111 21.2982C6.87226 21.1229 6.66897 20.7896 6.77111 20.497Z" fill="#FFC582"/>
<path d="M10.1572 20.4969C9.93763 20.2849 9.58949 20.2849 9.36983 20.4969L6.96603 22.9007C6.74093 23.1181 6.73469 23.4769 6.95215 23.702C7.16954 23.9271 7.52831 23.9334 7.75342 23.7159C7.75816 23.7114 7.76277 23.7067 7.7673 23.702L10.1711 21.2982C10.3885 21.0731 10.3823 20.7143 10.1572 20.4969Z" fill="#FFC582"/>
<path d="M22.4867 8.09949C22.2672 7.88741 21.919 7.88741 21.6994 8.09949L16.0894 13.7095C15.8643 13.9269 15.858 14.2856 16.0754 14.5108C16.2928 14.7359 16.6516 14.7421 16.8767 14.5247C16.8814 14.5202 16.886 14.5155 16.8906 14.5108L22.5006 8.90075C22.7181 8.67564 22.7119 8.31687 22.4867 8.09949Z" fill="#FFC582"/>
<path d="M31.2213 22.0312C31.0018 21.819 30.6535 21.819 30.434 22.0312L28.8314 23.6337C28.6063 23.8512 28.6001 24.2099 28.8176 24.435C29.035 24.6601 29.3937 24.6663 29.6188 24.4489C29.6235 24.4443 29.6282 24.4396 29.6327 24.435L31.2352 22.8324C31.4527 22.6073 31.4465 22.2486 31.2213 22.0312Z" fill="#FFC582"/>
<path d="M17.0113 21.5332H17.0057C16.6927 21.5348 16.4403 21.7898 16.4418 22.1027C16.4434 22.4156 16.6984 22.6681 17.0113 22.6665C17.3243 22.6665 17.578 22.4128 17.578 22.0999C17.578 21.7869 17.3243 21.5332 17.0113 21.5332Z" fill="#FFC582"/>
<path d="M18.1333 4.5332H15.8667C15.5537 4.5332 15.3 4.78693 15.3 5.09987C15.3 5.41281 15.5537 5.66654 15.8667 5.66654H18.1333C18.4463 5.66654 18.7 5.41281 18.7 5.09987C18.7 4.78693 18.4463 4.5332 18.1333 4.5332Z" fill="#FFC582"/>
</svg>
