<svg width="30" height="30" viewBox="0 0 30 30" fill="none" xmlns="http://www.w3.org/2000/svg">
<path d="M22.1875 1.25C18.8599 1.25 16.1115 4.34082 15 5.79957C13.8885 4.34082 11.1401 1.25 7.81248 1.25C3.50467 1.25 0 5.21059 0 10.0781C0 12.7338 1.0541 15.2087 2.89916 16.9025C2.926 16.9489 2.95898 16.9916 2.99742 17.0301L14.5587 28.5675C14.6808 28.689 14.8401 28.75 15 28.75C15.1599 28.75 15.3198 28.689 15.4419 28.5669L27.3877 16.6254L27.511 16.5058C27.6087 16.4136 27.7051 16.3202 27.8131 16.2006C27.8583 16.1561 27.8955 16.106 27.9242 16.0517C29.2639 14.411 30 12.2949 30 10.0781C30 5.21059 26.4954 1.25 22.1875 1.25ZM26.8842 15.3485C26.8671 15.3687 26.8512 15.39 26.8372 15.412C26.7786 15.4791 26.7145 15.5383 26.651 15.5988L14.9994 27.2418L4.02346 16.2879C3.98807 16.2182 3.93861 16.1548 3.8782 16.1017C2.20764 14.6429 1.24998 12.4475 1.24998 10.0781C1.24998 5.89965 4.19373 2.50004 7.81248 2.50004C11.3904 2.50004 14.4439 7.1668 14.4745 7.21379C14.7052 7.57021 15.2948 7.57021 15.5255 7.21379C15.5561 7.1668 18.6096 2.50004 22.1875 2.50004C25.8063 2.50004 28.75 5.89971 28.75 10.0781C28.75 12.0471 28.0871 13.9191 26.8842 15.3485Z" fill="#FFC582"/>
</svg>
