<svg width="8" height="16" viewBox="0 0 8 16" fill="none" xmlns="http://www.w3.org/2000/svg">
<path d="M3.64657 15.3536C3.84183 15.5488 4.15841 15.5488 4.35368 15.3536L7.53566 12.1716C7.73092 11.9763 7.73092 11.6597 7.53566 11.4645C7.34039 11.2692 7.02381 11.2692 6.82855 11.4645L4.00012 14.2929L1.17169 11.4645C0.976433 11.2692 0.65985 11.2692 0.464588 11.4645C0.269326 11.6597 0.269326 11.9763 0.464588 12.1716L3.64657 15.3536ZM3.50012 6L3.50012 15L4.50012 15L4.50012 6L3.50012 6Z" fill="#FFC582"/>
<path d="M3.64657 15.3536C3.84183 15.5488 4.15841 15.5488 4.35368 15.3536L7.53566 12.1716C7.73092 11.9763 7.73092 11.6597 7.53566 11.4645C7.34039 11.2692 7.02381 11.2692 6.82855 11.4645L4.00012 14.2929L1.17169 11.4645C0.976433 11.2692 0.65985 11.2692 0.464588 11.4645C0.269326 11.6597 0.269326 11.9763 0.464588 12.1716L3.64657 15.3536ZM3.50012 6L3.50012 15L4.50012 15L4.50012 6L3.50012 6Z" fill="#FFC582"/>
<path d="M3.64657 15.3536C3.84183 15.5488 4.15841 15.5488 4.35368 15.3536L7.53566 12.1716C7.73092 11.9763 7.73092 11.6597 7.53566 11.4645C7.34039 11.2692 7.02381 11.2692 6.82855 11.4645L4.00012 14.2929L1.17169 11.4645C0.976433 11.2692 0.65985 11.2692 0.464588 11.4645C0.269326 11.6597 0.269326 11.9763 0.464588 12.1716L3.64657 15.3536ZM3.50012 6L3.50012 15L4.50012 15L4.50012 6L3.50012 6Z" fill="#FFC582"/>
<path d="M3.64657 15.3536C3.84183 15.5488 4.15841 15.5488 4.35368 15.3536L7.53566 12.1716C7.73092 11.9763 7.73092 11.6597 7.53566 11.4645C7.34039 11.2692 7.02381 11.2692 6.82855 11.4645L4.00012 14.2929L1.17169 11.4645C0.976433 11.2692 0.65985 11.2692 0.464588 11.4645C0.269326 11.6597 0.269326 11.9763 0.464588 12.1716L3.64657 15.3536ZM3.50012 6L3.50012 15L4.50012 15L4.50012 6L3.50012 6Z" fill="#FFC582"/>
<path d="M4.35368 0.646447C4.15841 0.451184 3.84183 0.451184 3.64657 0.646447L0.464588 3.82843C0.269326 4.02369 0.269326 4.34027 0.464588 4.53553C0.65985 4.7308 0.976433 4.7308 1.17169 4.53553L4.00012 1.70711L6.82855 4.53553C7.02381 4.7308 7.34039 4.7308 7.53566 4.53553C7.73092 4.34027 7.73092 4.02369 7.53566 3.82843L4.35368 0.646447ZM4.50012 10L4.50012 1L3.50012 1L3.50012 10L4.50012 10Z" fill="#FFC582"/>
</svg>
