<svg width="17" height="8" viewBox="0 0 17 8" fill="none" xmlns="http://www.w3.org/2000/svg">
<path d="M0.646568 3.64645C0.451306 3.84171 0.451306 4.15829 0.646568 4.35355L3.82855 7.53553C4.02381 7.7308 4.34039 7.7308 4.53566 7.53553C4.73092 7.34027 4.73092 7.02369 4.53566 6.82843L1.70723 4L4.53566 1.17157C4.73092 0.976311 4.73092 0.659729 4.53566 0.464467C4.34039 0.269205 4.02381 0.269205 3.82855 0.464467L0.646568 3.64645ZM10.0001 3.5L1.00012 3.5L1.00012 4.5L10.0001 4.5L10.0001 3.5Z" fill="#FFC582"/>
<path d="M0.646568 3.64645C0.451306 3.84171 0.451306 4.15829 0.646568 4.35355L3.82855 7.53553C4.02381 7.7308 4.34039 7.7308 4.53566 7.53553C4.73092 7.34027 4.73092 7.02369 4.53566 6.82843L1.70723 4L4.53566 1.17157C4.73092 0.976311 4.73092 0.659729 4.53566 0.464467C4.34039 0.269205 4.02381 0.269205 3.82855 0.464467L0.646568 3.64645ZM10.0001 3.5L1.00012 3.5L1.00012 4.5L10.0001 4.5L10.0001 3.5Z" fill="#FFC582"/>
<path d="M0.646568 3.64645C0.451306 3.84171 0.451306 4.15829 0.646568 4.35355L3.82855 7.53553C4.02381 7.7308 4.34039 7.7308 4.53566 7.53553C4.73092 7.34027 4.73092 7.02369 4.53566 6.82843L1.70723 4L4.53566 1.17157C4.73092 0.976311 4.73092 0.659729 4.53566 0.464467C4.34039 0.269205 4.02381 0.269205 3.82855 0.464467L0.646568 3.64645ZM10.0001 3.5L1.00012 3.5L1.00012 4.5L10.0001 4.5L10.0001 3.5Z" fill="#FFC582"/>
<path d="M0.646568 3.64645C0.451306 3.84171 0.451306 4.15829 0.646568 4.35355L3.82855 7.53553C4.02381 7.7308 4.34039 7.7308 4.53566 7.53553C4.73092 7.34027 4.73092 7.02369 4.53566 6.82843L1.70723 4L4.53566 1.17157C4.73092 0.976311 4.73092 0.659729 4.53566 0.464467C4.34039 0.269205 4.02381 0.269205 3.82855 0.464467L0.646568 3.64645ZM10.0001 3.5L1.00012 3.5L1.00012 4.5L10.0001 4.5L10.0001 3.5Z" fill="#FFC582"/>
<path d="M16.3537 4.35355C16.5489 4.15829 16.5489 3.84171 16.3537 3.64645L13.1717 0.464466C12.9764 0.269204 12.6599 0.269204 12.4646 0.464466C12.2693 0.659728 12.2693 0.976311 12.4646 1.17157L15.293 4L12.4646 6.82843C12.2693 7.02369 12.2693 7.34027 12.4646 7.53553C12.6599 7.7308 12.9764 7.7308 13.1717 7.53553L16.3537 4.35355ZM8.00012 4.5L16.0001 4.5V3.5L8.00012 3.5V4.5Z" fill="#FFC582"/>
</svg>
