<svg width="18" height="18" viewBox="0 0 18 18" fill="none" xmlns="http://www.w3.org/2000/svg">
<g clip-path="url(#clip0)">
<path d="M16.6261 7.87518H15.7504C15.7005 7.6946 15.5932 7.53518 15.4446 7.42101C15.2961 7.30684 15.1144 7.24413 14.9271 7.24237H13.9923V4.95637C13.9934 4.9136 13.983 4.87133 13.9624 4.83388C13.9417 4.79643 13.9114 4.76515 13.8747 4.74325L7.28017 0.93435C7.24301 0.912747 7.20078 0.901367 7.15779 0.901367C7.1148 0.901367 7.07258 0.912747 7.03542 0.93435L0.438873 4.74325C0.401548 4.76488 0.370586 4.79598 0.349107 4.83339C0.327628 4.87081 0.316392 4.91322 0.31653 4.95637V12.5742C0.316531 12.6174 0.327902 12.6598 0.349501 12.6972C0.371101 12.7347 0.402166 12.7657 0.439576 12.7873L7.03679 16.5962C7.0742 16.6178 7.11663 16.6292 7.15983 16.6292C7.20415 16.6292 7.24773 16.6179 7.2864 16.5962L10.7579 14.5938V16.0413C10.7576 16.1792 10.7846 16.3157 10.8373 16.443C10.8901 16.5703 10.9676 16.6859 11.0653 16.7831C11.163 16.8802 11.2791 16.957 11.4067 17.0091C11.5343 17.0611 11.671 17.0873 11.8088 17.0861H16.6261C16.7642 17.0874 16.9013 17.0613 17.0294 17.0095C17.1574 16.9576 17.2739 16.8809 17.3722 16.7838C17.4705 16.6867 17.5487 16.5711 17.6021 16.4437C17.6556 16.3162 17.6833 16.1795 17.6837 16.0413V8.93626C17.6835 8.65549 17.5722 8.38622 17.374 8.18736C17.1758 7.98851 16.9068 7.87626 16.6261 7.87518ZM14.9359 7.73455C15.0306 7.73455 15.1215 7.77219 15.1885 7.83918C15.2555 7.90617 15.2931 7.99703 15.2931 8.09178V8.11561C15.2931 8.21035 15.2555 8.30121 15.1885 8.36821C15.1215 8.4352 15.0306 8.47283 14.9359 8.47283H13.5058C13.411 8.47283 13.3202 8.4352 13.2532 8.36821C13.1862 8.30121 13.1486 8.21035 13.1486 8.11561V8.09178C13.1486 7.99703 13.1862 7.90617 13.2532 7.83918C13.3202 7.77219 13.411 7.73455 13.5058 7.73455H14.9359ZM7.15983 1.43164L9.90111 3.0143L3.79651 6.53878L1.05527 4.95612L7.15983 1.43164ZM6.9259 15.9568L0.808717 12.4321V5.38207L6.9259 8.9068V15.9568ZM7.15983 8.48057L4.28869 6.82292L10.3933 3.29847L13.2646 4.95612L7.15983 8.48057ZM10.7579 8.93626V14.0255L7.41809 15.9568V8.9068L13.5001 5.38207V7.24237H13.5078C13.3204 7.24413 13.1388 7.30683 12.9902 7.421C12.8417 7.53517 12.7344 7.6946 12.6845 7.87518H11.8088C11.5287 7.87654 11.2607 7.98909 11.0636 8.18808C10.8665 8.38708 10.7566 8.6562 10.7579 8.93626ZM17.1915 16.0413C17.1912 16.1149 17.1762 16.1877 17.1475 16.2554C17.1188 16.3231 17.077 16.3845 17.0244 16.4359C16.9718 16.4873 16.9095 16.5278 16.8411 16.5549C16.7727 16.582 16.6996 16.5953 16.6261 16.5939H11.8088C11.7356 16.5952 11.6629 16.5818 11.595 16.5545C11.527 16.5272 11.4652 16.4867 11.4132 16.4352C11.3611 16.3837 11.3199 16.3224 11.2919 16.2547C11.2639 16.1871 11.2497 16.1145 11.2501 16.0413V8.93626C11.2494 8.86221 11.2632 8.78873 11.2909 8.72004C11.3186 8.65135 11.3596 8.5888 11.4115 8.53596C11.4634 8.48311 11.5252 8.44103 11.5933 8.4121C11.6615 8.38317 11.7347 8.36797 11.8088 8.36737H12.6941C12.7469 8.54156 12.8547 8.69396 13.0014 8.80171C13.1481 8.90946 13.3257 8.96676 13.5078 8.96502H14.9271C15.1091 8.96676 15.2868 8.90946 15.4335 8.80171C15.5802 8.69396 15.688 8.54156 15.7407 8.36737H16.6261C16.7763 8.36831 16.9201 8.42866 17.0261 8.53525C17.132 8.64183 17.1915 8.78599 17.1915 8.93626V16.0413Z" fill="#FFC582"/>
<path d="M12.0921 11.4258H12.3497C12.4149 11.4258 12.4775 11.3999 12.5237 11.3537C12.5698 11.3076 12.5958 11.245 12.5958 11.1797C12.5958 11.1144 12.5698 11.0518 12.5237 11.0057C12.4775 10.9595 12.4149 10.9336 12.3497 10.9336H12.34V10.2656H13.0187C13.0342 10.3151 13.0654 10.3582 13.1077 10.3882C13.15 10.4182 13.2009 10.4335 13.2527 10.4318C13.3181 10.432 13.3808 10.4062 13.4272 10.3602C13.4736 10.3142 13.4998 10.2516 13.5001 10.1863V10.0207C13.4996 9.95503 13.4731 9.89223 13.4266 9.84594C13.38 9.79964 13.317 9.77359 13.2514 9.77344H12.0921C12.0598 9.7736 12.0279 9.78013 11.9981 9.79265C11.9684 9.80517 11.9414 9.82344 11.9187 9.84641C11.896 9.86937 11.878 9.89658 11.8659 9.92649C11.8537 9.9564 11.8476 9.98841 11.8478 10.0207V11.18C11.8476 11.2122 11.8538 11.2441 11.866 11.2739C11.8781 11.3037 11.8961 11.3308 11.9188 11.3537C11.9415 11.3765 11.9685 11.3947 11.9983 11.407C12.028 11.4194 12.0599 11.4258 12.0921 11.4258Z" fill="#FFC582"/>
<path d="M12.0939 13.6758H13.254C13.3193 13.6758 13.3819 13.6499 13.428 13.6037C13.4742 13.5576 13.5001 13.495 13.5001 13.4297V12.2695C13.5001 12.2043 13.4742 12.1417 13.428 12.0955C13.3819 12.0494 13.3193 12.0234 13.254 12.0234H12.0939C12.0286 12.0234 11.966 12.0494 11.9199 12.0955C11.8737 12.1417 11.8478 12.2043 11.8478 12.2695V13.4297C11.8478 13.495 11.8737 13.5576 11.9199 13.6037C11.966 13.6499 12.0286 13.6758 12.0939 13.6758ZM12.34 12.5156H13.0079V13.1836H12.34V12.5156Z" fill="#FFC582"/>
<path d="M12.3497 15.4336H12.34V14.7656H13.0055C13.0067 14.8303 13.0333 14.892 13.0795 14.9373C13.1257 14.9827 13.1878 15.0081 13.2526 15.0082C13.3173 15.0082 13.3795 14.9829 13.4258 14.9377C13.472 14.8924 13.4987 14.8308 13.5001 14.7661V14.529C13.4999 14.4625 13.4738 14.3986 13.4274 14.3509C13.381 14.3033 13.3179 14.2755 13.2514 14.2734H12.0921C12.0261 14.2757 11.9635 14.3036 11.9178 14.3514C11.8722 14.3992 11.847 14.4629 11.8478 14.529V15.6883C11.8478 15.72 11.8541 15.7515 11.8665 15.7808C11.8788 15.8101 11.8969 15.8366 11.9197 15.8587C11.9425 15.8809 11.9695 15.8982 11.9991 15.9097C12.0287 15.9213 12.0603 15.9267 12.0921 15.9258H12.3497C12.415 15.9258 12.4776 15.8999 12.5237 15.8537C12.5699 15.8076 12.5958 15.745 12.5958 15.6797C12.5958 15.6144 12.5699 15.5518 12.5237 15.5057C12.4776 15.4595 12.415 15.4336 12.3497 15.4336Z" fill="#FFC582"/>
<path d="M13.818 10.0751L13.0972 10.7958L12.878 10.5766C12.8552 10.5537 12.828 10.5356 12.7982 10.5232C12.7683 10.5108 12.7363 10.5045 12.704 10.5045C12.6717 10.5045 12.6397 10.5108 12.6098 10.5232C12.58 10.5356 12.5528 10.5537 12.53 10.5766C12.5071 10.5994 12.489 10.6265 12.4766 10.6564C12.4643 10.6863 12.4579 10.7183 12.4579 10.7506C12.4579 10.7829 12.4643 10.8149 12.4766 10.8448C12.489 10.8746 12.5071 10.9017 12.53 10.9246L12.9233 11.3179C12.9461 11.3407 12.9732 11.3588 13.0031 11.3712C13.033 11.3836 13.065 11.3899 13.0973 11.3899C13.1296 11.3899 13.1616 11.3836 13.1915 11.3712C13.2213 11.3588 13.2485 11.3407 13.2713 11.3179L14.1661 10.4231C14.2123 10.3769 14.2382 10.3143 14.2382 10.249C14.2382 10.1838 14.2123 10.1212 14.1661 10.075C14.12 10.0289 14.0574 10.0029 13.9921 10.0029C13.9268 10.0029 13.8642 10.0289 13.8181 10.075L13.818 10.0751Z" fill="#FFC582"/>
<path d="M13.818 14.6191L13.0972 15.3398L12.878 15.1205C12.8552 15.0976 12.828 15.0795 12.7982 15.0671C12.7683 15.0548 12.7363 15.0484 12.704 15.0484C12.6717 15.0484 12.6397 15.0548 12.6098 15.0671C12.58 15.0795 12.5528 15.0976 12.53 15.1205C12.5071 15.1434 12.489 15.1705 12.4766 15.2003C12.4643 15.2302 12.4579 15.2622 12.4579 15.2945C12.4579 15.3268 12.4643 15.3588 12.4766 15.3887C12.489 15.4186 12.5071 15.4457 12.53 15.4685L12.9233 15.8618C12.9461 15.8847 12.9732 15.9028 13.0031 15.9152C13.033 15.9275 13.065 15.9339 13.0973 15.9339C13.1296 15.9339 13.1616 15.9275 13.1915 15.9152C13.2213 15.9028 13.2485 15.8847 13.2713 15.8618L14.1661 14.967C14.2123 14.9209 14.2382 14.8583 14.2382 14.793C14.2382 14.7277 14.2123 14.6651 14.1661 14.619C14.12 14.5728 14.0574 14.5469 13.9921 14.5469C13.9268 14.5469 13.8642 14.5728 13.8181 14.619L13.818 14.6191Z" fill="#FFC582"/>
<path d="M16.3427 10.3711H14.7971C14.7318 10.3711 14.6692 10.397 14.623 10.4432C14.5769 10.4893 14.551 10.5519 14.551 10.6172C14.551 10.6825 14.5769 10.7451 14.623 10.7912C14.6692 10.8374 14.7318 10.8633 14.7971 10.8633H16.3427C16.408 10.8633 16.4706 10.8374 16.5168 10.7912C16.5629 10.7451 16.5888 10.6825 16.5888 10.6172C16.5888 10.5519 16.5629 10.4893 16.5168 10.4432C16.4706 10.397 16.408 10.3711 16.3427 10.3711Z" fill="#FFC582"/>
<path d="M16.3427 12.6211H14.7971C14.7318 12.6211 14.6692 12.647 14.623 12.6932C14.5769 12.7393 14.551 12.8019 14.551 12.8672C14.551 12.9325 14.5769 12.9951 14.623 13.0412C14.6692 13.0874 14.7318 13.1133 14.7971 13.1133H16.3427C16.408 13.1133 16.4706 13.0874 16.5168 13.0412C16.5629 12.9951 16.5888 12.9325 16.5888 12.8672C16.5888 12.8019 16.5629 12.7393 16.5168 12.6932C16.4706 12.647 16.408 12.6211 16.3427 12.6211Z" fill="#FFC582"/>
<path d="M16.3427 14.8711H14.7971C14.7318 14.8711 14.6692 14.897 14.623 14.9432C14.5769 14.9893 14.551 15.0519 14.551 15.1172C14.551 15.1825 14.5769 15.2451 14.623 15.2912C14.6692 15.3374 14.7318 15.3633 14.7971 15.3633H16.3427C16.408 15.3633 16.4706 15.3374 16.5168 15.2912C16.5629 15.2451 16.5888 15.1825 16.5888 15.1172C16.5888 15.0519 16.5629 14.9893 16.5168 14.9432C16.4706 14.897 16.408 14.8711 16.3427 14.8711Z" fill="#FFC582"/>
</g>
<defs>
<clipPath id="clip0">
<rect width="18" height="18" fill="white" transform="translate(0.00012207)"/>
</clipPath>
</defs>
</svg>
