<svg width="32" height="32" viewBox="0 0 32 32" fill="none" xmlns="http://www.w3.org/2000/svg">
<path d="M29.3555 10.7895C30.698 9.83 31.5 8.272 31.5 6.622V6.4145C31.5 5.437 31.1445 4.5145 30.494 3.7945C30.387 1.9595 28.861 0.5 27 0.5H22.9895C21.617 0.5 20.5 1.617 20.5 2.9895C20.5 3.896 21.0015 4.712 21.7655 5.1475C21.298 5.9505 20.5 7.5975 20.5 9.5V9.8605L22 10.3605V11.293C22 11.8825 22.2295 12.437 22.646 12.8535C23.0045 13.212 23.467 13.4215 23.964 13.4765C23.8725 14.152 23.5915 14.7915 23.144 15.3135C21.894 16.7715 21.158 18.5945 21.027 20.5H19.707L19.137 19.93C18.86 19.653 18.491 19.5 18.0985 19.5C17.5385 19.5 17.0355 19.811 16.786 20.3095L16.68 20.5185C16.6205 20.511 16.5615 20.5 16.4995 20.5H15.308L15.214 20.312C14.9635 19.811 14.46 19.5 13.8995 19.5C13.5075 19.5 13.1385 19.6525 12.8605 19.93L12.291 20.5H10.934L10.8335 19.7975C10.599 18.156 9.914 16.6155 8.853 15.342C8.4085 14.8085 8.1355 14.1585 8.0435 13.476C8.538 13.42 8.9975 13.2105 9.354 12.854C9.7705 12.437 10 11.883 10 11.293V10.3605L11.5 9.8605V9.5C11.5 7.597 10.702 5.95 10.2345 5.1475C10.9985 4.712 11.5 3.8965 11.5 2.9895V1.707C11.5 1.0415 10.9585 0.5 10.293 0.5C9.9705 0.5 9.6675 0.6255 9.4395 0.8535C9.0225 1.2705 8.4685 1.5 7.8785 1.5H4C2.6915 1.5 1.615 2.51 1.5085 3.7915C0.8565 4.5115 0.5 5.4355 0.5 6.4145V6.622C0.5 8.2725 1.302 9.8305 2.6445 10.7895L4 11.7575V14.2105C3.528 14.415 3.1245 14.76 2.848 15.2175C2.626 15.585 2.511 16.0285 2.506 16.5H2.5V31.5H11V25.5H11.998C12.5495 25.5 12.998 25.0515 12.998 24.5H19C19 25.0515 19.4485 25.5 20 25.5H21V31.5H28C29.103 31.5 30 30.603 30 29.5V28.361C30.2975 28.1875 30.5 27.8685 30.5 27.5V16.5C30.5 15.1215 29.3785 14 28 14V11.7575L29.3555 10.7895ZM9.8435 19.939L9.9185 20.4645C8.871 20.2985 8.0285 19.489 7.8485 18.4125L7.5175 16.4375C7.836 16.471 8.1555 16.491 8.4745 16.4945C9.194 17.517 9.666 18.695 9.8435 19.939ZM9 9.64V11.2935C9 11.611 8.871 11.9225 8.646 12.147C8.4185 12.375 8.1155 12.5 7.793 12.5H6V13.5H7.032C7.109 14.1945 7.3415 14.863 7.71 15.456C7.55 15.441 7.3915 15.417 7.2325 15.3935C6.821 14.563 5.9715 14.0005 5 14V9.707C5 9.44 4.896 9.189 4.707 9L4.207 8.5C4.0755 8.3685 4 8.186 4 8C4 7.7245 4.2245 7.5 4.5 7.5H5V6.5C5 5.9485 5.4485 5.5 6 5.5H8.8605C8.995 5.5 9.129 5.4905 9.262 5.4725C9.6095 6.039 10.3875 7.4755 10.489 9.1435L9 9.64ZM3.2255 9.9755C2.145 9.2035 1.5 7.95 1.5 6.622V6.4145C1.5 5.636 1.803 4.904 2.3535 4.3535L2.5 4.207V4C2.5 3.173 3.173 2.5 4 2.5H7.8785C8.735 2.5 9.5405 2.1665 10.1465 1.5605C10.2655 1.441 10.5 1.538 10.5 1.707V2.9895C10.5 3.6555 10.052 4.2455 9.411 4.4245C9.232 4.4745 9.047 4.5 8.8605 4.5H6C4.897 4.5 4 5.397 4 6.5V6.5855C3.418 6.792 3 7.348 3 8C3 8.456 3.1775 8.885 3.5 9.207L4 9.707V10.5285L3.2255 9.9755ZM7 30.5C7 29.9485 7.4485 29.5 8 29.5V28.5C6.897 28.5 6 29.397 6 30.5H3.5V27.5H10V30.5H7ZM10 26.5H3.5V21.708C4.5425 23.957 6.8305 25.5 9.4045 25.5H10V26.5ZM11.998 24.5H9.4045C6.693 24.5 4.3525 22.4785 3.9595 19.7965L3.514 16.754C3.469 16.3735 3.5365 16.0115 3.7045 15.734C3.9495 15.3285 4.356 15.065 4.8275 15.0095C4.875 15.0035 4.9375 15 4.999 15C5.7575 15 6.3965 15.57 6.489 16.35L6.862 18.5785C7.1455 20.272 8.5975 21.501 10.315 21.5005H10.3155H11.9975V24.5H11.998ZM22.9895 1.5H27C28.3785 1.5 29.5 2.6215 29.5 4V4.207L29.6465 4.3535C30.197 4.904 30.5 5.6355 30.5 6.4145V6.622C30.5 7.95 29.855 9.204 28.7745 9.9755L28 10.5285V9.707L28.5 9.207C28.8225 8.8845 29 8.456 29 8C29 7.348 28.582 6.792 28 6.5855V6.5C28 5.397 27.103 4.5 26 4.5H23.1395C22.953 4.5 22.768 4.4745 22.589 4.425C21.948 4.2455 21.5 3.6555 21.5 2.9895C21.5 2.168 22.168 1.5 22.9895 1.5ZM23.4865 16.4975C24.172 16.493 24.8535 16.4185 25.5225 16.278C25.516 16.3525 25.5 16.424 25.5 16.5V26.5H22V21.11C22 19.45 22.5245 17.837 23.4865 16.4975ZM29.5005 27.5H26.5V26.5H29.5005V27.5ZM12.998 23.5V21.2075L13.568 20.6375C13.7825 20.4235 14.185 20.489 14.3195 20.759L14.69 21.5H16.4995C16.7755 21.5 17 21.7245 17 22C17 22.827 16.3265 23.5 15.4995 23.5H12.998ZM17.487 23.5C17.8045 23.081 18 22.565 18 22C18 21.596 17.838 21.2305 17.5775 20.9605L17.6795 20.759C17.815 20.4875 18.215 20.4225 18.43 20.637L19 21.207V23.5H17.487ZM20 24.5V21.5H21V24.5H20ZM22 27.5H25.5C25.5 27.8685 25.7025 28.1875 26 28.361V29.5C26 29.866 26.106 30.2045 26.278 30.5H22V27.5ZM28 30.5C27.4485 30.5 27 30.0515 27 29.5V28.5H29V29.5C29 30.0515 28.5515 30.5 28 30.5ZM29.5 16.5L29.5005 25.5H26.5V16.5C26.5 15.673 27.173 15 28 15C28.827 15 29.5 15.673 29.5 16.5ZM27.793 8.5L27.293 9C27.104 9.189 27 9.44 27 9.707V14.212C26.546 14.4115 26.1645 14.7425 25.899 15.156C25.3675 15.304 24.825 15.404 24.2765 15.4555C24.654 14.866 24.892 14.1975 24.969 13.5005L26 13.5V12.5H24.207C23.8845 12.5 23.5815 12.3745 23.3535 12.1465C23.129 11.922 23 11.611 23 11.293V9.64L21.511 9.1435C21.6125 7.4755 22.3905 6.039 22.738 5.4725C22.871 5.4905 23.005 5.5 23.1395 5.5H26C26.5515 5.5 27 5.9485 27 6.5V7.5H27.5C27.7755 7.5 28 7.7245 28 8C28 8.186 27.9245 8.3685 27.793 8.5Z" fill="#FFC582"/>
<path d="M15.3535 26.8535L14.6465 26.1465L12.293 28.5L14.6465 30.8535L15.3535 30.1465L14.207 29H20V28H14.207L15.3535 26.8535Z" fill="#FFC582"/>
<path d="M17.1465 12.6465L17.8535 13.3535L20.207 11L17.8535 8.64648L17.1465 9.35349L18.293 10.5H12.5V11.5H18.293L17.1465 12.6465Z" fill="#FFC582"/>
</svg>
