<svg width="18" height="18" viewBox="0 0 18 18" fill="none" xmlns="http://www.w3.org/2000/svg">
<path d="M14.7392 7.82721L15.802 5.98631C16.5235 4.73676 16.5235 3.24481 15.802 1.99553C15.0806 0.745972 13.7885 0 12.3458 0H5.64967C4.20675 0 2.91462 0.745834 2.19351 1.99525C1.47212 3.24467 1.47212 4.73676 2.19351 5.98631L3.2563 7.82707C3.46778 8.19374 3.45625 8.64432 3.22636 9.0033C2.52159 10.104 2.14915 11.3792 2.14915 12.6914C2.14915 14.497 2.83717 15.8781 4.19426 16.7964C5.35771 17.5838 7.0187 18 8.99762 18C11.0875 18 12.8129 17.5383 13.9869 16.6646C14.1054 16.5764 14.13 16.4089 14.0419 16.2905C13.9537 16.172 13.7861 16.1474 13.6676 16.2356C12.5866 17.0401 10.9717 17.4652 8.99762 17.4652C7.12596 17.4652 5.56865 17.0809 4.49405 16.3536C3.29296 15.5407 2.68391 14.3086 2.68391 12.6914C2.68391 11.4817 3.02723 10.306 3.67666 9.29169C4.0149 8.76393 4.03125 8.10036 3.71951 7.55969L2.79034 5.95047L4.17984 5.14819L4.74989 6.13559C5.14169 6.81454 5.96086 7.09813 6.69763 6.8096C7.43028 6.52286 8.20399 6.37743 8.99762 6.37743C9.79138 6.37743 10.5652 6.52286 11.2979 6.8096C11.4915 6.88541 11.6908 6.9218 11.8866 6.9218C12.4356 6.9218 12.9567 6.63615 13.2456 6.13559L13.8157 5.14819L15.2052 5.95047L14.2761 7.55969C13.9641 8.09967 13.9803 8.76324 14.3184 9.29155C14.9683 10.3059 15.3116 11.4814 15.3116 12.6914C15.3116 13.8399 15.0021 14.8009 14.3918 15.5477C14.2984 15.6621 14.3153 15.8306 14.4297 15.924C14.5441 16.0175 14.7126 16.0005 14.806 15.8862C15.4963 15.0412 15.8465 13.9664 15.8465 12.6914C15.8465 11.379 15.4738 10.1036 14.7689 9.00316C14.539 8.64418 14.5276 8.19347 14.7392 7.82721ZM12.7824 5.86835C12.5237 6.31659 11.9812 6.50294 11.4929 6.31165C10.6979 6.00046 9.85826 5.84267 8.99762 5.84267C8.13697 5.84267 7.29762 6.00046 6.50276 6.31165C6.01414 6.50294 5.47183 6.31659 5.2131 5.86835L4.50929 4.64928C4.2713 4.23701 4.2713 3.74483 4.50929 3.33243C4.6679 3.0575 4.91688 2.84985 5.21022 2.74768C5.34974 2.69907 5.42349 2.54663 5.37487 2.4071C5.32626 2.26758 5.17382 2.19397 5.0343 2.24258C4.6197 2.38692 4.26869 2.67915 4.04608 3.06519C3.75673 3.56644 3.71814 4.15146 3.92907 4.67537L2.53189 5.48218C2.03544 4.4518 2.07678 3.26678 2.65658 2.26263C3.28115 1.18076 4.40011 0.53476 5.64967 0.53476H12.3458C13.5953 0.53476 14.7141 1.18089 15.3389 2.26305C15.9187 3.26706 15.9601 4.45193 15.4636 5.48218L14.0664 4.67551C14.277 4.15256 14.2388 3.56836 13.9508 3.06779C13.6215 2.495 12.9966 2.13931 12.3202 2.13931H6.18443C6.0368 2.13931 5.91705 2.25893 5.91705 2.40669C5.91705 2.55432 6.0368 2.67407 6.18443 2.67407H12.3202C12.8058 2.67407 13.2529 2.92703 13.4872 3.33435C13.7242 3.7462 13.7238 4.23784 13.4862 4.64928L12.7824 5.86835Z" fill="#FFC582"/>
<path d="M8.32819 12.1341L8.89 11.4311C8.91431 11.3998 8.91719 11.368 8.91719 11.3467C8.91719 11.235 8.77629 11.126 8.6711 11.126C8.61974 11.126 8.58128 11.1462 8.55025 11.1897L7.88351 12.097V11.2612C7.88351 11.1679 7.77585 11.126 7.66914 11.126C7.57027 11.126 7.45477 11.1614 7.45477 11.2612V13.3158C7.45477 13.411 7.56587 13.4544 7.66914 13.4544C7.77571 13.4544 7.88351 13.4069 7.88351 13.3158V12.6995L8.04474 12.4965L8.63196 13.3868C8.66478 13.4405 8.71806 13.4702 8.78178 13.4702C8.9084 13.4702 9.03735 13.362 9.03735 13.2558C9.03735 13.2263 9.02925 13.2001 9.01373 13.1782L8.32819 12.1341Z" fill="#FFC582"/>
<path d="M10.1155 11.504C10.3818 11.504 10.4263 11.6669 10.4353 11.8084C10.4382 11.8989 10.5124 11.9467 10.6497 11.9467C10.7821 11.9467 10.8641 11.9123 10.8641 11.7418C10.8641 11.3733 10.557 11.126 10.0997 11.126C9.45947 11.126 9.36389 11.5849 9.36389 11.8586V12.7406C9.36389 13.213 9.62976 13.4732 10.1123 13.4732C10.5971 13.4732 10.8641 13.213 10.8641 12.7406V12.3644C10.8641 12.294 10.8166 12.2227 10.7256 12.2227H10.1883C10.1004 12.2227 10.0529 12.3103 10.0529 12.3928C10.0529 12.4773 10.0994 12.5629 10.1883 12.5629H10.4353V12.7406C10.4353 12.9725 10.3237 13.0951 10.1123 13.0951C9.90016 13.0951 9.7925 12.9758 9.7925 12.7406V11.8586C9.7925 11.6234 9.90126 11.504 10.1155 11.504Z" fill="#FFC582"/>
<path d="M8.99777 8.97168C7.23199 8.97168 5.79553 10.4081 5.79553 12.1739C5.79553 13.9396 7.23199 15.3762 8.99777 15.3762C10.7634 15.3762 12.1999 13.9396 12.1999 12.1739C12.1999 10.4081 10.7634 8.97168 8.99777 8.97168ZM8.99777 14.8413C7.52698 14.8413 6.33029 13.6447 6.33029 12.1739C6.33029 10.7031 7.52698 9.50644 8.99777 9.50644C10.4684 9.50644 11.6651 10.7031 11.6651 12.1739C11.6651 13.6447 10.4686 14.8413 8.99777 14.8413Z" fill="#FFC582"/>
</svg>
