<svg width="49" height="49" viewBox="0 0 49 49" fill="none" xmlns="http://www.w3.org/2000/svg">
<g clip-path="url(#clip0)">
<path d="M11.4997 24.5254C6.89848 24.5254 3.15521 28.2687 3.15521 32.8699C3.15521 37.4711 6.89848 41.2144 11.4997 41.2144C16.1006 41.2144 19.8438 37.4711 19.8438 32.8699C19.8438 28.2687 16.1006 24.5254 11.4997 24.5254ZM11.4997 25.9804C14.7196 25.9804 17.4296 28.201 18.1814 31.191C17.821 32.6288 16.9922 33.9305 15.8318 34.8707C14.6115 35.8591 13.0732 36.4034 11.5001 36.4034C9.92658 36.4034 8.38823 35.8591 7.16764 34.8707C6.00724 33.9305 5.17806 32.6288 4.81768 31.191C5.56947 28.201 8.27944 25.9804 11.4997 25.9804ZM11.4997 39.7594C8.25888 39.7594 5.53545 37.51 4.80422 34.4909C5.21993 35.0501 5.70592 35.5589 6.25211 36.0012C7.73064 37.199 9.59424 37.8584 11.5001 37.8584C13.4055 37.8584 15.2691 37.199 16.7477 36.0012C17.2935 35.5585 17.7791 35.0501 18.1948 34.4912C17.4632 37.51 14.7402 39.7594 11.4997 39.7594Z" fill="#FFC582"/>
<path d="M48.2523 28.7924C48.2516 28.7879 48.1121 28.4392 48.0557 28.3083L41.8578 13.2829C41.094 11.4317 39.7183 9.97256 38.0196 9.09815L37.4367 7.68466C37.058 6.76726 36.4221 5.99004 35.596 5.43676C34.7698 4.88535 33.809 4.59375 32.8176 4.59375C30.0624 4.59375 27.8208 6.8353 27.8208 9.5905V11.2679C26.6836 12.681 26.0006 14.4743 26.0006 16.425V16.9802H22.999V16.425C22.999 14.4743 22.316 12.681 21.1788 11.2679V9.5905C21.1788 6.8353 18.9373 4.59375 16.1821 4.59375C15.1906 4.59375 14.2299 4.88535 13.4029 5.43751C12.5779 5.99004 11.9416 6.76726 11.5629 7.68466L10.9801 9.09815C9.28171 9.97256 7.9056 11.4317 7.14222 13.2829L5.55116 17.1398C5.39788 17.5114 5.57471 17.9365 5.9463 18.0898C6.3179 18.243 6.74296 18.0662 6.89586 17.6946L8.48692 13.8377C9.53891 11.2877 12.001 9.64022 14.7592 9.64022C18.5002 9.64022 21.544 12.6837 21.544 16.425V27.2773C19.5758 23.7564 15.8112 21.3702 11.4993 21.3702C8.79871 21.3702 6.31304 22.3067 4.34851 23.8708L5.91864 20.0644C6.07191 19.6932 5.89471 19.2677 5.52349 19.1145C5.15227 18.9612 4.72684 19.1384 4.57356 19.5096L0.944321 28.3079C0.887497 28.4388 0.732353 28.8261 0.72525 28.8508C0.256828 30.1024 0 31.4568 0 32.8699C0 39.2106 5.15862 44.3692 11.4997 44.3692C17.8404 44.3692 22.999 39.2106 22.999 32.8699V32.4019H26.001V32.8699C26.001 39.2106 31.1596 44.3692 37.5003 44.3692C43.8414 44.3692 49 39.2106 49 32.8699C49 31.4347 48.7349 30.0605 48.2523 28.7924ZM14.7592 8.18523C14.1013 8.18523 13.4575 8.26374 12.8373 8.41103L12.908 8.23944C13.1764 7.58896 13.6276 7.03792 14.2115 6.64688C14.7977 6.25547 15.4792 6.04836 16.1821 6.04836C18.135 6.04836 19.7242 7.63756 19.7242 9.5905V9.85406C18.3425 8.80768 16.6224 8.18523 14.7592 8.18523ZM32.8179 6.04836C33.5208 6.04836 34.2019 6.25547 34.7873 6.64613C35.3724 7.03792 35.8236 7.58896 36.092 8.23944L36.1627 8.41103C35.5425 8.26337 34.8987 8.18523 34.2404 8.18523C32.3776 8.18523 30.6575 8.80768 29.2758 9.85406V9.5905C29.2758 7.63756 30.8646 6.04836 32.8179 6.04836ZM27.456 16.425C27.456 12.6837 30.4994 9.64022 34.2408 9.64022C36.999 9.64022 39.4611 11.2877 40.5127 13.8377L44.6515 23.8708C42.687 22.3067 40.2009 21.3702 37.5003 21.3702C33.1884 21.3702 29.4239 23.7564 27.456 27.2769V16.425ZM26.001 18.4352V25.4185H22.999V18.4352H26.001ZM11.4997 42.9146C5.96088 42.9146 1.45499 38.4087 1.45499 32.8699C1.45499 27.3311 5.96088 22.8252 11.4997 22.8252C17.0381 22.8252 21.544 27.3311 21.544 32.8699C21.544 38.4087 17.0381 42.9146 11.4997 42.9146ZM22.999 30.9469V26.8731H26.001V30.9469H22.999ZM37.5003 42.9146C31.9619 42.9146 27.456 38.4087 27.456 32.8699C27.456 27.3311 31.9619 22.8252 37.5003 22.8252C43.0391 22.8252 47.545 27.3311 47.545 32.8699C47.545 38.4087 43.0391 42.9146 37.5003 42.9146Z" fill="#FFC582"/>
<path d="M43.1509 27.7105C42.8298 27.952 42.7659 28.4081 43.0074 28.7292C43.5666 29.4717 43.9621 30.3023 44.1835 31.185C43.8238 32.625 42.9943 33.9293 41.832 34.8707C40.6122 35.8591 39.0738 36.4034 37.5003 36.4034C35.9272 36.4034 34.3885 35.8591 33.1683 34.8707C32.0079 33.9308 31.1787 32.6291 30.8183 31.1917C31.5697 28.2014 34.2801 25.9804 37.5003 25.9804C38.8809 25.9804 40.2129 26.3871 41.3516 27.1565C41.6847 27.3815 42.1371 27.2941 42.3617 26.961C42.5868 26.6279 42.4993 26.1759 42.1662 25.9508C40.786 25.0185 39.1725 24.5254 37.5003 24.5254C32.8991 24.5254 29.1558 28.2687 29.1558 32.8699C29.1558 37.4711 32.8991 41.2144 37.5003 41.2144C42.1015 41.2144 45.8448 37.4711 45.8448 32.8699C45.8448 31.0437 45.2653 29.3091 44.1692 27.8541C43.9281 27.5329 43.472 27.4686 43.1509 27.7105ZM37.5003 39.7594C34.2602 39.7594 31.5368 37.5104 30.8056 34.4916C31.2209 35.0501 31.7065 35.5589 32.2527 36.0012C33.7313 37.199 35.5948 37.8584 37.5007 37.8584C39.4061 37.8584 41.2697 37.199 42.7483 36.0012C43.2945 35.5585 43.7805 35.0497 44.1958 34.4905C43.4646 37.51 40.7411 39.7594 37.5003 39.7594Z" fill="#FFC582"/>
</g>
<defs>
<clipPath id="clip0">
<rect width="49" height="49" fill="white"/>
</clipPath>
</defs>
</svg>
