<svg width="50" height="50" viewBox="0 0 50 50" fill="none" xmlns="http://www.w3.org/2000/svg">
<g clip-path="url(#clip0)">
<path d="M43.005 14.8736H30.8103L38.9711 8.26729C39.4766 7.85811 39.7861 7.25098 39.8201 6.60157C39.8542 5.95215 39.6101 5.31592 39.1502 4.85606L34.9671 0.673052C34.5072 0.213188 33.87 -0.0308545 33.2217 0.00312988C32.5723 0.0373096 31.9651 0.346685 31.556 0.852153L26.3605 7.27012C26.106 7.58448 26.1545 8.04571 26.4689 8.3002C26.7832 8.55459 27.2444 8.50616 27.4989 8.1918L32.6945 1.77383C32.845 1.5879 33.0596 1.47862 33.2985 1.46602C33.5378 1.45323 33.7621 1.53975 33.9313 1.70889L38.1143 5.8919C38.2834 6.06104 38.3697 6.28585 38.3571 6.52481C38.3445 6.76377 38.2353 6.97823 38.0493 7.12872L30.3659 13.3486C30.2338 12.6214 29.8985 11.9641 29.4197 11.4392L33.7372 7.12169C34.0233 6.83565 34.0233 6.37188 33.7372 6.08594C33.4512 5.79991 32.9874 5.79991 32.7015 6.08594L28.2321 10.5553C27.7273 10.3129 27.1619 10.1769 26.5654 10.1769H25.9922L18.444 0.852153C18.0349 0.346685 17.4277 0.0372119 16.7783 0.00312988C16.1296 -0.0307568 15.4927 0.213188 15.0329 0.673052L10.8499 4.85606C10.39 5.31592 10.1459 5.95215 10.18 6.60157C10.2141 7.25088 10.5235 7.85811 11.029 8.26729L19.1898 14.8736H6.99502C5.72783 14.8736 4.69697 15.9045 4.69697 17.1717V25C4.69697 26.0111 5.35361 26.8711 6.2626 27.1777V47.702C6.2626 48.9691 7.29356 50 8.56065 50H41.4394C42.7066 50 43.7374 48.969 43.7374 47.702V27.1777C44.6464 26.8711 45.303 26.0111 45.303 25V17.1718C45.303 15.9046 44.2722 14.8736 43.005 14.8736ZM28.9646 14.0404V14.8736H21.0356V14.0404C21.0356 12.7177 22.1117 11.6416 23.4344 11.6416H26.5656C27.8884 11.6416 28.9646 12.7177 28.9646 14.0404ZM27.3988 48.5352H22.6011V16.3385H27.3988V48.5352ZM11.6428 6.52481C11.6303 6.28585 11.7165 6.06104 11.8856 5.8919L16.0687 1.70889C16.2378 1.53975 16.4621 1.45313 16.7015 1.46602C16.9403 1.47862 17.1549 1.5879 17.3055 1.77383L24.1078 10.1768H23.4344C22.8379 10.1768 22.2726 10.3128 21.7677 10.5552L17.2983 6.08584C17.0123 5.79981 16.5485 5.79981 16.2626 6.08584C15.9766 6.37188 15.9766 6.83565 16.2626 7.12159L20.5801 11.4391C20.1013 11.964 19.766 12.6212 19.6339 13.3484L11.9505 7.12862C11.7647 6.97823 11.6553 6.76377 11.6428 6.52481ZM7.72744 47.702V27.2981H18.7374C19.1419 27.2981 19.4698 26.9701 19.4698 26.5656C19.4698 26.1611 19.1419 25.8332 18.7374 25.8332H6.99502C6.53555 25.8332 6.16182 25.4594 6.16182 25V17.1718C6.16182 16.7123 6.53564 16.3386 6.99502 16.3386H21.1363V48.5352H8.56065C8.10117 48.5352 7.72744 48.1613 7.72744 47.702ZM41.4394 48.5352H28.8637V27.2981H42.2726V47.702C42.2726 48.1613 41.8987 48.5352 41.4394 48.5352ZM43.8382 25C43.8382 25.4595 43.4644 25.8332 43.005 25.8332H28.8637V16.3385H43.005C43.4645 16.3385 43.8382 16.7122 43.8382 17.1717V25Z" fill="#FFC582"/>
</g>
<defs>
<clipPath id="clip0">
<rect width="50" height="50" fill="white"/>
</clipPath>
</defs>
</svg>
