<svg width="20" height="20" viewBox="0 0 20 20" fill="none" xmlns="http://www.w3.org/2000/svg">
<path d="M14.7917 0.833252C12.5732 0.833252 10.741 2.8938 10 3.8663C9.25902 2.8938 7.42676 0.833252 5.20832 0.833252C2.33645 0.833252 0 3.47364 0 6.71868C0 8.48911 0.702734 10.1391 1.93277 11.2683C1.95066 11.2992 1.97266 11.3277 1.99828 11.3533L9.70582 19.0449C9.78719 19.1259 9.8934 19.1666 10 19.1666C10.1066 19.1666 10.2132 19.1259 10.2946 19.0445L18.2585 11.0835L18.3407 11.0038C18.4058 10.9423 18.4701 10.88 18.5421 10.8003C18.5722 10.7706 18.597 10.7372 18.6161 10.701C19.5093 9.60728 20 8.19653 20 6.71868C20 3.47364 17.6636 0.833252 14.7917 0.833252ZM17.9228 10.2323C17.9114 10.2457 17.9008 10.2599 17.8914 10.2746C17.8524 10.3193 17.8096 10.3588 17.7673 10.3991L9.99961 18.1611L2.6823 10.8585C2.65871 10.8121 2.62574 10.7698 2.58547 10.7344C1.47176 9.76189 0.83332 8.29825 0.83332 6.71868C0.83332 3.93302 2.79582 1.66661 5.20832 1.66661C7.59359 1.66661 9.6293 4.77778 9.64965 4.80911C9.80348 5.04673 10.1965 5.04673 10.3504 4.80911C10.3707 4.77778 12.4064 1.66661 14.7917 1.66661C17.2042 1.66661 19.1667 3.93306 19.1667 6.71868C19.1667 8.03134 18.7248 9.27931 17.9228 10.2323Z" fill="#EB3F57"/>
</svg>
