<svg width="84" height="85" viewBox="0 0 84 85" fill="none" xmlns="http://www.w3.org/2000/svg">
<g clip-path="url(#clip0)">
<path d="M69.2662 47.1533L68.2484 30.1971C68.2396 30.0499 68.1966 29.9068 68.1229 29.7791C68.0492 29.6514 67.9468 29.5427 67.8237 29.4614L53.648 20.1019C53.5009 20.0047 53.3296 19.9505 53.1533 19.9452C52.9771 19.9399 52.8028 19.9838 52.6501 20.072L9.88684 44.7613C9.66873 44.8873 9.50958 45.0947 9.4444 45.3379C9.37921 45.5812 9.41334 45.8404 9.53926 46.0585L24.7327 72.3744C24.8586 72.5925 25.0661 72.7516 25.3093 72.8168C25.5526 72.882 25.8118 72.8479 26.0299 72.7219L68.7931 48.0326C68.9459 47.9444 69.071 47.8154 69.1545 47.6601C69.2381 47.5049 69.2768 47.3294 69.2662 47.1533ZM25.9027 70.6024L11.6588 45.9313L53.0915 22.0101L66.3812 30.7847L67.3353 46.6812L25.9027 70.6024Z" fill="#FFC582"/>
<path d="M60.1196 31.1104C59.6317 31.3921 59.2382 31.8122 58.989 32.3176C58.7398 32.8229 58.6461 33.3908 58.7196 33.9494C58.7931 34.508 59.0307 35.0322 59.4022 35.4559C59.7737 35.8795 60.2624 36.1834 60.8067 36.3292C61.3509 36.4751 61.9262 36.4562 62.4597 36.2751C62.9932 36.094 63.4611 35.7588 63.8041 35.3118C64.1471 34.8648 64.3498 34.3261 64.3867 33.7639C64.4235 33.2016 64.2928 32.6411 64.0111 32.1531C63.6327 31.4995 63.0105 31.0226 62.281 30.8271C61.5514 30.6316 60.7741 30.7335 60.1196 31.1104ZM62.0188 34.3999C61.8561 34.4938 61.6693 34.5374 61.4819 34.5251C61.2945 34.5128 61.1149 34.4452 60.9659 34.3309C60.8169 34.2166 60.7052 34.0606 60.6448 33.8828C60.5844 33.7049 60.5782 33.5132 60.6268 33.3318C60.6754 33.1503 60.7767 32.9874 60.9179 32.8636C61.0591 32.7398 61.2338 32.6606 61.4201 32.6361C61.6063 32.6116 61.7955 32.6428 61.964 32.7259C62.1324 32.8089 62.2725 32.9401 62.3664 33.1027C62.492 33.3209 62.526 33.58 62.4608 33.8232C62.3956 34.0664 62.2367 34.2738 62.0188 34.3999Z" fill="#FFC582"/>
<path d="M17.4495 50.2636L15.0755 46.1517C14.9496 45.9336 14.7422 45.7745 14.4989 45.7093C14.2556 45.6441 13.9965 45.6782 13.7783 45.8041C13.5602 45.9301 13.4011 46.1375 13.3359 46.3807C13.2707 46.624 13.3048 46.8832 13.4308 47.1013L15.8048 51.2132C15.9307 51.4313 16.1381 51.5904 16.3813 51.6556C16.6246 51.7208 16.8838 51.6867 17.1019 51.5607C17.32 51.4348 17.4792 51.2274 17.5444 50.9841C17.6095 50.7409 17.5754 50.4817 17.4495 50.2636Z" fill="#FFC582"/>
<path d="M19.3487 53.5529L18.8739 52.7306C18.748 52.5125 18.5405 52.3533 18.2973 52.2881C18.054 52.223 17.7948 52.2571 17.5767 52.383C17.3586 52.5089 17.1995 52.7163 17.1343 52.9596C17.0691 53.2029 17.1032 53.4621 17.2291 53.6802L17.7039 54.5025C17.8299 54.7206 18.0373 54.8798 18.2805 54.945C18.5238 55.0102 18.783 54.976 19.0011 54.8501C19.2192 54.7242 19.3784 54.5168 19.4435 54.2735C19.5087 54.0302 19.4746 53.771 19.3487 53.5529Z" fill="#FFC582"/>
</g>
<defs>
<clipPath id="clip0">
<rect width="60.7738" height="60.7738" fill="white" transform="translate(52.7519 0.988525) rotate(60)"/>
</clipPath>
</defs>
</svg>
