<svg width="56" height="56" viewBox="0 0 56 56" fill="none" xmlns="http://www.w3.org/2000/svg">
<path d="M14.875 47.25H13.8793C14.5285 46.257 14.8745 45.0965 14.875 43.9101V41.7095C14.8754 41.2256 14.7953 40.7451 14.6379 40.2876L11.9315 32.4187C11.8156 31.9861 11.5911 31.5902 11.2793 31.2687C10.9675 30.9471 10.5788 30.7105 10.15 30.5812L11.7994 24.4186C11.9437 23.8962 11.9209 23.3418 11.7342 22.833C11.5475 22.3243 11.2061 21.8868 10.7581 21.5818C10.5201 21.4109 10.2534 21.2841 9.97062 21.2073C9.74314 21.1417 9.5074 21.109 9.27063 21.1102C8.69896 21.1049 8.14153 21.2885 7.68491 21.6324C7.22828 21.9764 6.89801 22.4615 6.74538 23.0125L2.07637 37.3625C1.8414 38.0922 1.80039 38.8705 1.95737 39.6208L3.30663 44.8638C3.43474 45.3612 3.49971 45.8727 3.5 46.3863V47.25H2.625C2.39294 47.25 2.17038 47.3422 2.00628 47.5062C1.84219 47.6703 1.75 47.8929 1.75 48.125V53.375C1.75 53.607 1.84219 53.8296 2.00628 53.9937C2.17038 54.1578 2.39294 54.25 2.625 54.25H14.875C15.1071 54.25 15.3296 54.1578 15.4937 53.9937C15.6578 53.8296 15.75 53.607 15.75 53.375V48.125C15.75 47.8929 15.6578 47.6703 15.4937 47.5062C15.3296 47.3422 15.1071 47.25 14.875 47.25ZM5.0015 44.4237L3.66275 39.2271C3.57436 38.7853 3.60118 38.3282 3.74063 37.8997L8.4245 23.5025C8.45425 23.3921 8.50559 23.2888 8.57553 23.1984C8.64548 23.108 8.73265 23.0324 8.832 22.976C8.93135 22.9195 9.04092 22.8833 9.15435 22.8694C9.26779 22.8556 9.38285 22.8643 9.49288 22.8952C9.58953 22.9201 9.68045 22.9635 9.76062 23.023C9.91077 23.1236 10.0254 23.269 10.0882 23.4385C10.151 23.6079 10.1589 23.7929 10.1106 23.9671L8.30375 30.7125C7.84596 30.919 7.45775 31.2536 7.18602 31.6759C6.91429 32.0983 6.77067 32.5903 6.7725 33.0925C6.7691 33.3221 6.79856 33.551 6.86 33.7723L8.44375 39.6891C8.50385 39.9133 8.65055 40.1044 8.85157 40.2204C9.05258 40.3364 9.29145 40.3678 9.51562 40.3077C9.7398 40.2476 9.93091 40.1009 10.0469 39.8999C10.1629 39.6989 10.1944 39.46 10.1342 39.2358L8.54787 33.299C8.52963 33.2317 8.52109 33.1622 8.5225 33.0925C8.52081 32.9129 8.57604 32.7375 8.68027 32.5913C8.78449 32.4451 8.93235 32.3357 9.10262 32.2787C9.12275 32.2717 9.20588 32.2437 9.219 32.2411C9.44816 32.1959 9.68591 32.2429 9.88056 32.372C10.0752 32.5012 10.211 32.7019 10.2585 32.9306L12.9824 40.8572C13.077 41.1314 13.1252 41.4194 13.125 41.7095V43.9101C13.1257 44.7741 12.8699 45.6189 12.39 46.3373L11.7819 47.25H5.25V46.3863C5.2497 45.7243 5.16621 45.0649 5.0015 44.4237ZM14 52.5H3.5V49H14V52.5Z" fill="#FFC582"/>
<path d="M40.25 48.1251V53.3751C40.25 53.6072 40.3422 53.8297 40.5063 53.9938C40.6704 54.1579 40.8929 54.2501 41.125 54.2501H53.375C53.6071 54.2501 53.8296 54.1579 53.9937 53.9938C54.1578 53.8297 54.25 53.6072 54.25 53.3751V48.1251C54.25 47.893 54.1578 47.6705 53.9937 47.5064C53.8296 47.3423 53.6071 47.2501 53.375 47.2501H52.5V46.3865C52.4999 45.8714 52.5649 45.3584 52.6934 44.8596L54.0426 39.6166C54.1996 38.8662 54.1586 38.0879 53.9236 37.3582L49.2546 23.0126C49.1015 22.463 48.7716 21.9792 48.316 21.636C47.8603 21.2928 47.3042 21.1093 46.7337 21.1139C46.497 21.1126 46.2612 21.1453 46.0338 21.211C45.751 21.2877 45.4842 21.4146 45.2462 21.5855C44.7982 21.8904 44.4569 22.3279 44.2702 22.8367C44.0834 23.3454 44.0606 23.8999 44.205 24.4222L45.85 30.5849C45.4212 30.7141 45.0325 30.9507 44.7207 31.2723C44.4089 31.5939 44.1844 31.9897 44.0685 32.4224L41.3621 40.2912C41.2051 40.7476 41.125 41.2269 41.125 41.7096V43.9102C41.1255 45.0966 41.4715 46.2571 42.1208 47.2501H41.125C40.8929 47.2501 40.6704 47.3423 40.5063 47.5064C40.3422 47.6705 40.25 47.893 40.25 48.1251ZM50.75 46.3865V47.2501H44.2181L43.61 46.3375C43.1301 45.619 42.8743 44.7742 42.875 43.9102V41.7096C42.8748 41.4196 42.923 41.1315 43.0176 40.8574L45.7415 32.9307C45.789 32.702 45.9248 32.5013 46.1194 32.3722C46.3141 32.2431 46.5518 32.196 46.781 32.2412C46.7941 32.2412 46.8773 32.2719 46.8974 32.2789C47.0677 32.3358 47.2155 32.4452 47.3197 32.5914C47.424 32.7376 47.4792 32.9131 47.4775 33.0926C47.4789 33.1623 47.4704 33.2318 47.4521 33.2991L45.8623 39.236C45.8021 39.4602 45.8336 39.699 45.9496 39.9C46.0656 40.1011 46.2567 40.2477 46.4809 40.3078C46.705 40.368 46.9439 40.3365 47.1449 40.2205C47.3459 40.1045 47.4926 39.9134 47.5528 39.6892L49.1365 33.7725C49.1979 33.5512 49.2274 33.3222 49.224 33.0926C49.2261 32.5908 49.083 32.0991 48.8119 31.6768C48.5409 31.2545 48.1534 30.9196 47.6962 30.7126L45.8902 23.9664C45.842 23.7922 45.8498 23.6072 45.9127 23.4377C45.9755 23.2682 46.0901 23.1229 46.2403 23.0222C46.3204 22.9628 46.4113 22.9194 46.508 22.8945C46.618 22.8636 46.7331 22.8548 46.8465 22.8687C46.96 22.8825 47.0695 22.9187 47.1689 22.9752C47.2682 23.0317 47.3554 23.1073 47.4253 23.1977C47.4953 23.288 47.5466 23.3914 47.5764 23.5017L52.2603 37.899C52.3997 38.3274 52.4265 38.7845 52.3381 39.2264L50.9994 44.423C50.8343 45.0644 50.7505 45.7241 50.75 46.3865ZM42 49.0001H52.5V52.5001H42V49.0001Z" fill="#FFC582"/>
<path d="M42.35 7.94854L28.35 1.82354C28.2396 1.77536 28.1205 1.75049 28 1.75049C27.8795 1.75049 27.7604 1.77536 27.65 1.82354L13.65 7.94854C13.494 8.01661 13.3613 8.12868 13.268 8.27104C13.1748 8.4134 13.1251 8.57986 13.125 8.75004V26.25C13.125 26.4114 13.1696 26.5696 13.2539 26.7072C13.3383 26.8448 13.459 26.9564 13.6027 27.0297L27.6027 34.1522C27.7258 34.2149 27.8619 34.2475 28 34.2475C28.1364 34.2473 28.2708 34.2156 28.3929 34.1548L42.3929 27.1198C42.5379 27.0469 42.6597 26.9352 42.7449 26.797C42.83 26.6589 42.8751 26.4998 42.875 26.3375V8.75004C42.8749 8.57986 42.8252 8.4134 42.732 8.27104C42.6387 8.12868 42.506 8.01661 42.35 7.94854ZM28 3.57966L39.8169 8.75004L28 13.9204L24.9288 12.5764L29.6021 10.5315C29.7579 10.4633 29.8904 10.3512 29.9835 10.2088C30.0765 10.0665 30.1261 9.9001 30.1261 9.73004C30.1261 9.55997 30.0765 9.3936 29.9835 9.25125C29.8904 9.10891 29.7579 8.99676 29.6021 8.92854L25.8475 7.29141C25.7371 7.24323 25.618 7.21836 25.4975 7.21836C25.377 7.21836 25.2579 7.24323 25.1475 7.29141L18.9954 9.98029L16.1875 8.75004L28 3.57966ZM20.125 12.3848L21.875 13.1504V16.9593L20.125 16.0843V12.3848ZM21.175 10.9358L25.494 9.04841L27.0603 9.73179L22.75 11.6209L21.175 10.9358ZM14.875 10.0879L18.375 11.6192V16.625C18.3749 16.7876 18.4202 16.947 18.5056 17.0854C18.5911 17.2237 18.7134 17.3355 18.8589 17.4082L22.3589 19.1582C22.4923 19.2248 22.6406 19.2563 22.7896 19.2495C22.9386 19.2428 23.0834 19.1981 23.2103 19.1196C23.3371 19.0411 23.4418 18.9315 23.5144 18.8012C23.587 18.6709 23.6251 18.5242 23.625 18.375V13.9125L27.125 15.4438V31.9454L14.875 25.7137V10.0879ZM28.875 31.9533V15.4473L41.125 10.0879V25.7977L28.875 31.9533Z" fill="#FFC582"/>
<path d="M33.7382 25.5789L30.2321 27.3412C30.0248 27.4456 29.8674 27.6281 29.7946 27.8486C29.7218 28.069 29.7396 28.3094 29.844 28.5167C29.9485 28.7241 30.131 28.8814 30.3515 28.9542C30.5719 29.027 30.8123 29.0092 31.0196 28.9048L34.5257 27.1425C34.7331 27.0381 34.8905 26.8556 34.9632 26.6351C35.036 26.4147 35.0182 26.1743 34.9138 25.967C34.8094 25.7596 34.6269 25.6022 34.4064 25.5295C34.1859 25.4567 33.9456 25.4745 33.7382 25.5789Z" fill="#FFC582"/>
<path d="M30.625 25.4975C30.7611 25.4975 30.8953 25.4658 31.017 25.4048L34.4732 23.6679C34.6806 23.5635 34.8379 23.381 34.9107 23.1605C34.9835 22.9401 34.9657 22.6997 34.8613 22.4924C34.7569 22.285 34.5743 22.1276 34.3539 22.0549C34.1334 21.9821 33.8931 21.9999 33.6857 22.1043L30.2303 23.8412C30.0545 23.9298 29.9136 24.0752 29.8306 24.2538C29.7476 24.4324 29.7273 24.6338 29.773 24.8253C29.8186 25.0169 29.9276 25.1875 30.0822 25.3095C30.2368 25.4315 30.428 25.4977 30.625 25.4975Z" fill="#FFC582"/>
</svg>
