<svg width="51" height="51" viewBox="0 0 51 51" fill="none" xmlns="http://www.w3.org/2000/svg">
<path d="M42.5546 10.3137L25.6617 1.10136C25.4111 0.964472 25.1107 0.966393 24.862 1.10616L8.43646 10.3185C8.16708 10.4698 8 10.759 8 11.0736V23.1073C8.00986 32.9993 13.7364 41.9485 22.5924 45.9116L24.8723 46.9284C25.0854 47.0235 25.328 47.024 25.5415 46.9293L28.1106 45.7939C37.1308 41.9168 42.9991 32.8812 43 22.8686V11.0736C43 10.7556 42.8287 10.4631 42.5546 10.3137ZM41.318 22.8686C41.3161 32.191 35.8509 40.6027 27.4521 44.2103L27.4465 44.2132L25.2093 45.2017L23.2654 44.3337C15.0219 40.6449 9.69094 32.3154 9.68155 23.1073V11.5832L25.2717 2.83865L41.318 11.5894V22.8686Z" fill="#FFC582"/>
<path d="M18.5285 22.4754C18.2171 22.1255 17.6692 22.0842 17.3045 22.3829C16.9397 22.6813 16.8966 23.2073 17.2081 23.5568L21.7933 28.7079C22.0994 29.0517 22.6356 29.0987 23.0009 28.8133L33.6797 20.4786C34.0517 20.1887 34.1079 19.664 33.8051 19.3072C33.5029 18.9507 32.956 18.8964 32.584 19.1868L22.563 27.0076L18.5285 22.4754Z" fill="#FFC582"/>
</svg>
