<svg width="59" height="59" viewBox="0 0 59 59" fill="none" xmlns="http://www.w3.org/2000/svg">
<g clip-path="url(#clip0)">
<path d="M51.0905 14.3004L34.6051 5.37356C33.0413 4.52648 30.891 5.17808 30.0439 6.74192L20.4003 24.6608H8.67155C7.17288 24.6608 6 25.8337 6 27.3324V32.0239V56.3285C6 57.8272 7.17288 59 8.67155 59H46.1384C47.6371 59 48.81 57.8272 48.81 56.3285V49.5519H49.9177C50.5041 49.5519 50.9602 49.0957 50.9602 48.5093V40.7553C50.9602 40.1689 50.5041 39.7127 49.9177 39.7127H48.81V32.0891C48.81 30.851 47.8977 29.7433 46.7248 29.4827L52.4589 18.8616C53.306 17.2326 52.7195 15.2127 51.0905 14.3004ZM39.3618 10.3257L29.0666 29.4175H26.1344L37.1464 9.15283L39.3618 10.3257ZM31.9336 7.71931C32.2594 7.13287 33.0413 6.87224 33.6277 7.19803L35.2567 8.11027L23.7886 29.4175H20.2048L31.9336 7.71931ZM8.01995 27.2672C8.01995 27.0718 8.28059 26.746 8.60639 26.746H19.2274L17.7939 29.3523H8.60639C8.41091 29.3523 8.21543 29.3523 8.01995 29.4175V27.2672ZM46.6597 56.3285C46.6597 56.6543 46.399 56.9149 46.0732 56.9149H8.60639C8.28059 56.9149 8.01995 56.6543 8.01995 56.3285V32.0891C8.01995 31.7633 8.28059 31.5026 8.60639 31.5026H18.4455H22.6157H30.2394H44.9004H46.0081C46.3339 31.5026 46.5945 31.7633 46.5945 32.0891V39.7127H42.6198C40.8605 39.7127 39.4921 41.1463 39.4921 42.8404V46.4242C39.4921 48.1835 40.9256 49.5519 42.6198 49.5519H46.6597V56.3285ZM48.7448 41.7979H48.81V47.4668H48.7448H42.6198C42.0333 47.4668 41.5772 47.0106 41.5772 46.4242V42.8404C41.5772 42.254 42.0333 41.7979 42.6198 41.7979H48.7448ZM50.5693 17.8191L44.3139 29.4175H31.4123L41.1863 11.3683L50.048 16.1901C50.6996 16.4507 50.8951 17.2326 50.5693 17.8191Z" fill="#FFC582"/>
<path d="M46.5945 16.8415L46.0732 16.5808C44.77 15.8641 43.0107 16.3854 42.294 17.6886L41.6424 18.9266C41.3166 19.5782 41.1862 20.3601 41.4469 21.0769C41.6424 21.7936 42.1636 22.3801 42.8152 22.7059L43.3365 22.9665C43.7275 23.162 44.1836 23.2923 44.6397 23.2923C45.6823 23.2923 46.5945 22.7059 47.1158 21.8588L47.7674 20.6207C48.419 19.2524 47.8977 17.5582 46.5945 16.8415ZM45.8777 19.6434L45.2261 20.8814C45.0307 21.2072 44.5746 21.3375 44.2488 21.142L43.7275 20.8162C43.5972 20.7511 43.4668 20.5556 43.4017 20.4253C43.3365 20.2298 43.3365 20.0343 43.4668 19.904L44.1184 18.666C44.2488 18.4705 44.5094 18.275 44.77 18.275C44.9004 18.275 44.9655 18.275 45.0958 18.3402L45.6171 18.6008C45.8778 18.8614 46.0081 19.2524 45.8777 19.6434Z" fill="#FFC582"/>
</g>
<defs>
<clipPath id="clip0">
<rect width="59" height="59" fill="white"/>
</clipPath>
</defs>
</svg>
