<svg width="16" height="16" viewBox="0 0 16 16" fill="none" xmlns="http://www.w3.org/2000/svg">
<path d="M13.2032 8.45703C13.0746 8.45703 12.9704 8.56128 12.9704 8.68987C12.9704 8.85291 12.8377 8.98553 12.6747 8.98553C12.5117 8.98553 12.379 8.85291 12.379 8.68987C12.379 8.56125 12.2748 8.45703 12.1462 8.45703C12.0176 8.45703 11.9134 8.56128 11.9134 8.68987C11.9134 9.10969 12.2549 9.45122 12.6747 9.45122C13.0945 9.45122 13.436 9.10966 13.436 8.68987C13.436 8.56122 13.3318 8.45703 13.2032 8.45703Z" fill="#FFC582"/>
<path d="M15.3889 8.49451L14.7335 8.28457C14.6496 8.25767 14.5834 8.19067 14.5566 8.10532C14.4184 7.66617 14.21 7.25389 13.937 6.87989C13.8126 6.70942 13.6743 6.54664 13.5232 6.39167C13.6198 5.96751 13.6724 5.48748 13.6656 5.07276C13.6558 4.47948 13.5373 4.13151 13.3032 4.00889C13.1771 3.94276 12.7933 3.74189 10.7162 4.6927C10.667 4.7152 10.6211 4.74292 10.5786 4.77467C10.4385 4.73704 10.2954 4.70223 10.1514 4.67098C10.1341 4.6672 10.1162 4.66386 10.0987 4.66017C10.267 4.29248 10.3653 3.89314 10.3838 3.48089C10.3895 3.35239 10.2901 3.24357 10.1616 3.23786C10.0334 3.23148 9.92425 3.33154 9.91853 3.46004C9.88819 4.13789 9.607 4.77567 9.12681 5.25589C8.83991 5.54279 8.50397 5.7512 8.14594 5.88245C7.52503 5.79532 6.89259 5.79532 6.27169 5.88245C5.91362 5.7512 5.57772 5.54279 5.29081 5.25589C4.7785 4.74357 4.49634 4.06242 4.49634 3.33789C4.49634 2.61332 4.7785 1.9322 5.29081 1.41989C5.80312 0.907543 6.48431 0.625387 7.20881 0.625387C7.93331 0.625387 8.6145 0.907543 9.12681 1.41989C9.33269 1.62576 9.50281 1.8607 9.63247 2.11811C9.69031 2.23298 9.83034 2.27923 9.94519 2.22136C10.0601 2.16354 10.1063 2.02351 10.0484 1.90867C9.89647 1.60682 9.69719 1.33161 9.45616 1.09054C8.85588 0.490262 8.05775 0.159668 7.20884 0.159668C6.35994 0.159668 5.56181 0.490262 4.96153 1.09054C4.36125 1.69086 4.03066 2.48895 4.03066 3.33786C4.03066 4.18676 4.36125 4.98489 4.96153 5.58517C5.13469 5.75832 5.32306 5.90723 5.52231 6.03198C5.52238 6.03198 5.52244 6.03195 5.5225 6.03195C5.37772 6.06957 5.23403 6.11182 5.09194 6.15932C4.96997 6.20011 4.90416 6.33201 4.94494 6.45401C4.98569 6.57598 5.11766 6.64179 5.23959 6.60104C6.50947 6.17651 7.90822 6.17651 9.17809 6.60104C9.20259 6.60923 9.22747 6.61311 9.25194 6.61311C9.34934 6.61311 9.44016 6.55148 9.47275 6.45401C9.51353 6.33204 9.44772 6.20011 9.32575 6.15932C9.18366 6.11182 9.03997 6.06954 8.89519 6.03195C8.89525 6.03195 8.89531 6.03198 8.89538 6.03198C9.09466 5.90723 9.283 5.75832 9.45616 5.58517C9.60934 5.43198 9.74456 5.2647 9.86197 5.08692C9.92616 5.09939 9.98987 5.11245 10.0527 5.12607C10.1363 5.14423 10.2195 5.16373 10.302 5.1842C10.2994 5.19432 10.2968 5.20442 10.2946 5.2147C10.1811 5.75361 10.1884 6.23023 10.3165 6.63126C10.4317 6.99173 10.6394 7.28376 10.934 7.49929C11.2812 7.75329 11.7004 7.86301 12.0802 7.86301C12.3659 7.86301 12.6294 7.80082 12.8229 7.69123C13.0418 7.56726 13.2252 7.30604 13.3703 6.91386C13.4374 6.99217 13.501 7.07239 13.5609 7.15451C13.804 7.48745 13.9895 7.85439 14.1124 8.24507C14.1845 8.47454 14.3637 8.65511 14.5915 8.72814L15.2469 8.93807C15.4188 8.99317 15.5344 9.15145 15.5344 9.33201V10.4187C15.5344 10.5993 15.4188 10.7576 15.2469 10.8127L14.191 11.1509C14.022 11.205 13.8791 11.3211 13.7884 11.4778C13.3736 12.1948 12.7213 12.788 11.8497 13.2412C11.7491 13.2936 11.6793 13.3873 11.6583 13.4984L11.3201 15.2891C11.3108 15.3384 11.2676 15.3742 11.2173 15.3742H10.1178C10.0675 15.3742 10.0243 15.3384 10.015 15.2891L9.82766 14.2994C9.79078 14.1047 9.60816 13.9754 9.41159 14.0052C8.93794 14.0768 8.44987 14.1131 7.96103 14.1131C7.59734 14.1131 7.23831 14.0928 6.89384 14.0528C6.70337 14.0309 6.52594 14.1607 6.49034 14.3488L6.31234 15.2891C6.303 15.3384 6.25978 15.3742 6.20956 15.3742H5.10997C5.05975 15.3742 5.01653 15.3384 5.00706 15.2884L4.68144 13.597C4.66047 13.4881 4.59203 13.3954 4.49356 13.3428C3.00781 12.5497 2.2225 11.2245 2.2225 9.51079C2.2225 8.64492 2.41194 7.87926 2.78553 7.23501C3.13416 6.63379 3.64334 6.1367 4.29894 5.75748C4.41025 5.69307 4.44828 5.55064 4.38391 5.43929C4.31953 5.32798 4.17709 5.29001 4.06575 5.35432C2.79453 6.0897 2.02781 7.2242 1.81672 8.66514V8.66511C1.79431 8.66307 1.77188 8.66114 1.74953 8.65882C1.75359 8.50336 1.72547 8.34648 1.66422 8.19423C1.52912 7.85842 1.25163 7.61604 0.957219 7.57676C0.725219 7.5457 0.504438 7.6442 0.351219 7.84664C0.129063 8.1402 0.165281 8.37251 0.23475 8.5157C0.352031 8.75736 0.6535 8.92829 1.15378 9.03576C1.14003 9.05636 1.12491 9.07704 1.10834 9.09782C0.81275 9.46854 0.4645 9.55051 0.238375 9.55823C0.106 9.5627 0 9.66898 0 9.80145V9.80257C0 9.93323 0.103094 10.0398 0.233625 10.0458C0.250344 10.0465 0.267813 10.0469 0.286 10.0469C0.572125 10.0469 1.03134 9.94142 1.47253 9.3882C1.54219 9.30089 1.59894 9.20876 1.64256 9.11357C1.6865 9.11854 1.72872 9.12279 1.76916 9.12654C1.76916 9.12645 1.76916 9.12639 1.76919 9.12629C1.76125 9.25248 1.75684 9.38051 1.75684 9.51079C1.75684 10.4804 1.988 11.3449 2.44384 12.0805C2.86416 12.7586 3.46594 13.3139 4.23306 13.7314L4.54962 15.3757C4.60053 15.6447 4.83619 15.8399 5.10997 15.8399H6.20956C6.48334 15.8399 6.719 15.6447 6.76991 15.3757L6.93084 14.5254C7.26509 14.5608 7.61116 14.5788 7.961 14.5788C8.441 14.5788 8.92044 14.5453 9.38769 14.4793L9.55734 15.3757C9.60828 15.6447 9.84394 15.8399 10.1177 15.8399H11.2173C11.4911 15.8399 11.7267 15.6447 11.7777 15.3756L12.1069 13.6321C13.0372 13.1402 13.7384 12.494 14.1914 11.711C14.2241 11.6546 14.2744 11.6132 14.333 11.5944L15.3889 11.2562C15.7544 11.139 16 10.8025 16 10.4187V9.33195C16 8.94814 15.7544 8.61161 15.3889 8.49451ZM13.1649 5.72711C13.0753 6.49354 12.8349 7.14917 12.5933 7.28598C12.3188 7.44151 11.6849 7.47154 11.2089 7.12339C10.7324 6.77482 10.5738 6.14801 10.7502 5.3107C10.7502 5.31067 10.7502 5.31067 10.7502 5.31067C10.768 5.22657 10.8277 5.15382 10.9101 5.11614C12.0758 4.58251 12.7479 4.40798 12.9976 4.40798C13.0353 4.40798 13.0633 4.41195 13.082 4.41926C13.157 4.4992 13.2554 4.95361 13.1649 5.72711ZM0.653781 8.31236C0.629687 8.26267 0.686563 8.17532 0.722625 8.12764C0.779781 8.05214 0.832437 8.0367 0.872219 8.0367C0.880625 8.0367 0.888469 8.03739 0.895656 8.03836C1.00272 8.05264 1.15272 8.17045 1.23219 8.36798C1.25091 8.41448 1.27522 8.49151 1.28091 8.58757C0.958562 8.52079 0.708125 8.42451 0.653781 8.31236Z" fill="#FFC582"/>
<path d="M7.43493 3.07146V2.23821C7.72227 2.25874 7.82902 2.39009 7.92752 2.39009C8.05068 2.39009 8.10815 2.23412 8.10815 2.15612C8.10815 1.95496 7.71405 1.86877 7.43493 1.86055V1.74968C7.43493 1.70043 7.37334 1.65527 7.31177 1.65527C7.24196 1.65527 7.19271 1.70043 7.19271 1.74968V1.86871C6.80274 1.90977 6.41277 2.11502 6.41277 2.63224C6.41277 3.15768 6.82327 3.30546 7.19271 3.4368V4.40146C6.77399 4.36862 6.66318 4.08127 6.52771 4.08127C6.42509 4.08127 6.3389 4.21674 6.3389 4.31527C6.3389 4.5164 6.68371 4.79143 7.19271 4.79965V4.9269C7.19271 4.97615 7.24199 5.0213 7.31177 5.0213C7.37337 5.0213 7.43493 4.97615 7.43493 4.9269V4.78734C7.87827 4.72574 8.18202 4.44662 8.18202 3.94171C8.18202 3.38346 7.79205 3.2028 7.43493 3.07146ZM7.21734 2.99349C6.99977 2.9114 6.82327 2.82521 6.82327 2.59124C6.82327 2.37777 6.98746 2.27515 7.21734 2.24643V2.99349ZM7.41027 4.39324V3.52712C7.6114 3.6133 7.77149 3.72824 7.77149 3.98684C7.77149 4.22087 7.63193 4.35221 7.41027 4.39324Z" fill="#FFC582"/>
</svg>
