<svg width="16" height="16" viewBox="0 0 16 16" fill="none" xmlns="http://www.w3.org/2000/svg">
<g clip-path="url(#clip0)">
<path d="M15.3666 3.53036L8.10194 0.0232969C8.03754 -0.00776562 7.96254 -0.00776562 7.89816 0.0232969L0.633506 3.53036C0.552506 3.56945 0.501038 3.65148 0.501038 3.74142V12.2586C0.501038 12.3485 0.552506 12.4305 0.633506 12.4696L7.89813 15.9767C7.93032 15.9922 7.96519 16 8.00004 16C8.03488 16 8.06973 15.9922 8.10194 15.9767L15.3666 12.4696C15.4476 12.4305 15.499 12.3485 15.499 12.2586V3.74145C15.499 3.65145 15.4475 3.56948 15.3666 3.53036ZM8.00004 0.494641L14.7256 3.74142L12.776 4.68261C12.7636 4.6732 12.7506 4.66452 12.7363 4.65761L6.05644 1.43292L8.00004 0.494641ZM5.52713 1.69792L12.2429 4.93998L10.8674 5.60402L4.15444 2.36327L5.52713 1.69792ZM12.4 5.38461V7.83917L11.1152 8.45942V6.00486L12.4 5.38461ZM15.0303 12.1115L8.23441 15.3922V7.39558L9.85544 6.61302C9.97201 6.55673 10.0209 6.41664 9.9646 6.30005C9.90832 6.18352 9.76823 6.13458 9.65163 6.19089L8.00004 6.98823L7.35016 6.67448C7.23357 6.61814 7.09348 6.66708 7.03719 6.78364C6.98091 6.9002 7.02979 7.04033 7.14635 7.09661L7.76566 7.39558V15.3922L0.969788 12.1115V4.11483L6.14479 6.61311C6.17763 6.62898 6.21235 6.63648 6.24651 6.63648C6.33363 6.63648 6.41732 6.58767 6.45773 6.50395C6.51401 6.38739 6.46513 6.24727 6.34857 6.19098L1.27451 3.74142L3.60279 2.61742L10.6432 6.01627C10.6443 6.0177 10.6454 6.01898 10.6465 6.02039V8.83286C10.6465 8.91352 10.6879 8.98848 10.7563 9.03139C10.7942 9.0552 10.8375 9.06723 10.8809 9.06723C10.9156 9.06723 10.9505 9.05951 10.9828 9.04392L12.7363 8.19739C12.8173 8.1583 12.8688 8.0763 12.8688 7.98633V5.15836L15.0303 4.11486V12.1115Z" fill="#FFC582"/>
<path d="M2.9039 11.2026L1.8378 10.6879C1.72118 10.6316 1.58111 10.6805 1.52483 10.7971C1.46855 10.9137 1.51743 11.0538 1.63399 11.1101L2.70008 11.6247C2.73293 11.6406 2.76765 11.6481 2.8018 11.6481C2.88893 11.6481 2.97262 11.5993 3.01302 11.5156C3.06933 11.399 3.02046 11.2589 2.9039 11.2026Z" fill="#FFC582"/>
<path d="M3.88509 10.5637L1.83931 9.5761C1.72271 9.51982 1.58262 9.56869 1.52634 9.68529C1.47009 9.80185 1.51896 9.94198 1.63553 9.99826L3.68131 10.9859C3.71415 11.0017 3.74887 11.0093 3.78303 11.0093C3.87015 11.0093 3.95384 10.9604 3.99424 10.8767C4.05053 10.7601 4.00165 10.62 3.88509 10.5637Z" fill="#FFC582"/>
</g>
<defs>
<clipPath id="clip0">
<rect width="16" height="16" fill="white"/>
</clipPath>
</defs>
</svg>
