<svg width="16" height="16" viewBox="0 0 16 16" fill="none" xmlns="http://www.w3.org/2000/svg">
<g clip-path="url(#clip0)">
<path d="M15.9692 8.7387C15.8255 7.29374 15.18 5.93149 14.1514 4.90288C13.2724 4.0239 12.1965 3.45905 11.0644 3.20789V2.41388C11.5268 2.29884 11.8705 1.88031 11.8705 1.38283C11.8705 0.796945 11.3938 0.320312 10.808 0.320312H8.55791C7.97203 0.320312 7.4954 0.796945 7.4954 1.38283C7.4954 1.88027 7.83909 2.29881 8.30144 2.41388V3.21011C7.17283 3.46233 6.1005 4.0264 5.22399 4.90292C5.03217 5.09473 4.85529 5.29595 4.69339 5.50508C4.68554 5.50449 4.6777 5.50389 4.6697 5.50389H2.44276C2.27019 5.50389 2.13025 5.6438 2.13025 5.8164C2.13025 5.989 2.27019 6.1289 2.44276 6.1289H4.26816C4.03903 6.5125 3.85428 6.91535 3.71365 7.33005H0.312505C0.13994 7.33005 0 7.46996 0 7.64255C0 7.81515 0.13994 7.95506 0.312505 7.95506H3.53706C3.44699 8.35041 3.3953 8.75276 3.38196 9.15623H2.00003C1.82747 9.15623 1.68753 9.29614 1.68753 9.46874C1.68753 9.64133 1.82747 9.78124 2.00003 9.78124H3.39193C3.4183 10.1857 3.48334 10.5881 3.58706 10.9824H1.56252C1.38996 10.9824 1.25002 11.1223 1.25002 11.2949C1.25002 11.4675 1.38996 11.6074 1.56252 11.6074H3.7865C4.09306 12.4184 4.57217 13.1785 5.22399 13.8303C6.25357 14.8599 7.61721 15.5056 9.06367 15.6485C9.27011 15.6689 9.47671 15.679 9.68303 15.679C10.9025 15.679 12.1064 15.3261 13.128 14.6608C13.2726 14.5666 13.3136 14.373 13.2194 14.2284C13.1252 14.0838 12.9316 14.0429 12.7869 14.1371C10.5508 15.5932 7.55593 15.2784 5.66593 13.3884C3.44834 11.1708 3.44834 7.56252 5.66593 5.34489C7.8835 3.12733 11.4918 3.12733 13.7094 5.34489C15.5969 7.23242 15.9135 10.2247 14.4621 12.4598C14.3681 12.6045 14.4093 12.7981 14.554 12.8921C14.6988 12.9861 14.8923 12.9449 14.9863 12.8002C15.7617 11.6059 16.1108 10.1636 15.9692 8.7387ZM8.12041 1.38286C8.12041 1.14161 8.31666 0.945354 8.55791 0.945354H10.808C11.0492 0.945354 11.2455 1.14161 11.2455 1.38286C11.2455 1.62411 11.0492 1.82037 10.808 1.82037H10.7519H8.61395H8.55791C8.31666 1.82037 8.12041 1.62408 8.12041 1.38286ZM8.92645 3.10267V2.44538H10.4394V3.10154C9.937 3.04179 9.42874 3.04217 8.92645 3.10267Z" fill="#FFC582"/>
<path d="M13.9305 13.2969C13.848 13.2969 13.7677 13.3303 13.7096 13.3884C13.6512 13.4466 13.618 13.5272 13.618 13.6094C13.618 13.6916 13.6512 13.7722 13.7096 13.8303C13.7677 13.8888 13.848 13.9219 13.9305 13.9219C14.0127 13.9219 14.093 13.8888 14.1514 13.8303C14.2096 13.7722 14.243 13.6916 14.243 13.6094C14.243 13.5272 14.2096 13.4466 14.1514 13.3884C14.093 13.3303 14.0127 13.2969 13.9305 13.2969Z" fill="#FFC582"/>
<path d="M9.68767 4.51904C7.01457 4.51904 4.83981 6.69376 4.83981 9.3669C4.83981 12.04 7.01457 14.2148 9.68767 14.2148C12.3608 14.2148 14.5355 12.04 14.5355 9.3669C14.5355 6.69376 12.3608 4.51904 9.68767 4.51904ZM9.68767 13.5897C7.35917 13.5897 5.46482 11.6954 5.46482 9.3669C5.46482 7.03843 7.35917 5.14405 9.68767 5.14405C12.0162 5.14405 13.9105 7.03843 13.9105 9.3669C13.9105 11.6954 12.0162 13.5897 9.68767 13.5897Z" fill="#FFC582"/>
<path d="M11.6644 6.94797L10.1166 8.49578C9.98718 8.43178 9.84158 8.39562 9.68767 8.39562C9.53373 8.39562 9.38817 8.43178 9.25873 8.49578L8.566 7.80305C8.44394 7.68101 8.24612 7.68101 8.12403 7.80305C8.00199 7.92508 8.00199 8.12296 8.12403 8.24499L8.81675 8.93772C8.75272 9.06716 8.7166 9.21276 8.7166 9.36667C8.7166 9.90211 9.1522 10.3377 9.68767 10.3377C10.2231 10.3377 10.6587 9.90211 10.6587 9.36667C10.6587 9.21276 10.6226 9.06716 10.5586 8.93772L12.061 7.43532L12.1064 7.38992C12.2284 7.26788 12.2284 7.07 12.1064 6.94797C11.9844 6.82594 11.7865 6.82594 11.6644 6.94797ZM9.68767 9.71277C9.49686 9.71277 9.3416 9.55752 9.3416 9.3667C9.3416 9.17588 9.49686 9.02063 9.68767 9.02063C9.87849 9.02063 10.0337 9.17588 10.0337 9.3667C10.0337 9.55752 9.87849 9.71277 9.68767 9.71277Z" fill="#FFC582"/>
<path d="M13.0289 9.05811H12.7394C12.5668 9.05811 12.4269 9.19801 12.4269 9.37061C12.4269 9.5432 12.5668 9.68311 12.7394 9.68311H13.0289C13.2015 9.68311 13.3414 9.5432 13.3414 9.37061C13.3414 9.19801 13.2015 9.05811 13.0289 9.05811Z" fill="#FFC582"/>
<path d="M6.6359 9.05029H6.34641C6.17384 9.05029 6.03391 9.1902 6.03391 9.36279C6.03391 9.53539 6.17384 9.67529 6.34641 9.67529H6.6359C6.80847 9.67529 6.9484 9.53539 6.9484 9.36279C6.9484 9.1902 6.80847 9.05029 6.6359 9.05029Z" fill="#FFC582"/>
<path d="M9.6915 6.62739C9.86406 6.62739 10.004 6.48748 10.004 6.31489V6.02539C10.004 5.8528 9.86406 5.71289 9.6915 5.71289C9.51894 5.71289 9.379 5.8528 9.379 6.02539V6.31489C9.379 6.48748 9.51894 6.62739 9.6915 6.62739Z" fill="#FFC582"/>
<path d="M9.68387 12.1055C9.51131 12.1055 9.37137 12.2454 9.37137 12.418V12.7075C9.37137 12.8801 9.51131 13.02 9.68387 13.02C9.85643 13.02 9.99637 12.8801 9.99637 12.7075V12.418C9.99637 12.2454 9.85643 12.1055 9.68387 12.1055Z" fill="#FFC582"/>
<path d="M0.3125 10.9824C0.230312 10.9824 0.149687 11.0159 0.0915625 11.074C0.0334375 11.1321 0 11.2127 0 11.2949C0 11.3774 0.0334063 11.4577 0.0915625 11.5159C0.149719 11.574 0.230312 11.6074 0.3125 11.6074C0.394688 11.6074 0.475313 11.574 0.533406 11.5159C0.591531 11.4577 0.625 11.3771 0.625 11.2949C0.625 11.2127 0.591563 11.1321 0.533406 11.074C0.475313 11.0159 0.394688 10.9824 0.3125 10.9824Z" fill="#FFC582"/>
</g>
<defs>
<clipPath id="clip0">
<rect width="16" height="16" fill="white"/>
</clipPath>
</defs>
</svg>
