<svg width="21" height="21" viewBox="0 0 21 21" fill="none" xmlns="http://www.w3.org/2000/svg">
<path d="M20.1854 7.87367C20.0738 7.74904 19.8884 7.72369 19.7475 7.81375L18.8532 8.38994V1.12996C18.8266 0.715854 18.4694 0.401716 18.0553 0.428336C18.0508 0.428624 18.0464 0.42897 18.042 0.429316H2.49409C2.0805 0.395378 1.71773 0.70312 1.68379 1.11665C1.68345 1.12109 1.6831 1.12552 1.68281 1.12996V8.09954L1.25413 7.82297C1.10853 7.71897 0.907322 7.74512 0.793179 7.88289C0.269827 8.52177 -0.0109502 9.32498 0.000343121 10.1508V17.3508C0.0187812 18.9088 0.866931 20.5729 3.24083 20.5729H17.77C19.328 20.5729 20.9967 19.7247 20.9967 17.3462V10.1508C21.0349 9.31478 20.7437 8.49717 20.1854 7.87367ZM2.49409 1.12074H18.0512C18.1249 1.12074 18.1664 1.1484 18.1664 1.12074V8.85089L10.5054 13.8199L2.37885 8.55127L2.36963 1.16223C2.40391 1.13238 2.44868 1.11746 2.49409 1.12074ZM0.825445 18.1206C0.763159 17.8687 0.730662 17.6103 0.728646 17.3508L0.714817 10.1508C0.710092 9.59815 0.86019 9.05526 1.14811 8.58354L7.77659 12.8796L0.825445 18.1206ZM17.77 19.8814L17.7654 19.8768H3.24083C2.03314 19.8768 1.39702 19.3652 1.06975 18.7844L8.38965 13.2668L10.3164 14.516C10.3622 14.5391 10.4127 14.5516 10.4639 14.5529C10.5152 14.5516 10.5656 14.5391 10.6114 14.516L12.4875 13.2991L19.8351 18.8305C19.3564 19.4933 18.5876 19.8846 17.77 19.8814ZM20.3006 10.1462L20.296 17.3462C20.2972 17.626 20.2632 17.9047 20.1946 18.1759L13.1928 12.9073L19.8673 8.57893C20.1701 9.04408 20.3215 9.59158 20.3006 10.1462Z" fill="#FFC582"/>
</svg>
