<svg width="14" height="14" viewBox="0 0 14 14" fill="none" xmlns="http://www.w3.org/2000/svg">
<g opacity="0.5" clip-path="url(#clip0)">
<path d="M2.65515 9.65519C2.65515 12.0548 4.60041 14 6.99999 14C9.39957 14 11.3448 12.0548 11.3448 9.65519C11.3448 7.24139 10.1379 5.31035 10.9477 3.6207C10.9477 3.6207 9.65515 3.86209 8.93103 5.7931C8.93103 5.7931 6.51724 3.3793 7.52573 0C7.52573 0 5.06898 0.965508 5.3259 4.10345C5.54623 6.79424 5.06898 7.24139 5.06898 7.24139C5.06898 5.06898 3.37052 4.10345 3.37052 4.10345C3.86205 6.75864 2.65515 7.48278 2.65515 9.65519Z" fill="#FFB446"/>
<path d="M10.1363 10.6844C10.1363 12.4916 8.74082 14.0344 6.93391 13.9995C5.23346 13.9668 3.96829 12.673 4.1035 10.9829C4.16385 10.2286 4.73711 9.00665 5.67246 7.76959L6.29604 8.14675C6.27588 6.61804 7.00003 4.58643 7.00003 4.58643C7.4757 6.72698 10.1363 7.28181 10.1363 10.6844Z" fill="#FFDC64"/>
<path d="M5.79308 9.17238C5.55169 10.6207 5.06894 11.1479 5.06894 12.0689C5.06894 13.0345 5.93352 14 6.99998 14C8.07415 14 8.93397 13.1223 8.93099 12.0482C8.92292 9.16317 7.24137 7.72412 7.24137 7.72412C7.48276 9.17241 6.75862 9.89653 6.75862 9.89653C6.45696 9.4441 5.79308 9.17238 5.79308 9.17238Z" fill="white"/>
</g>
<defs>
<clipPath id="clip0">
<rect width="14" height="14" fill="white"/>
</clipPath>
</defs>
</svg>
