<svg width="14" height="14" viewBox="0 0 14 14" fill="none" xmlns="http://www.w3.org/2000/svg">
<path d="M7 0C3.13402 0 0 3.13402 0 7C0 10.866 3.13402 14 7 14C10.866 14 14 10.866 14 7C13.9956 3.13583 10.8642 0.004375 7 0ZM7 13.5333C3.39173 13.5333 0.466667 10.6083 0.466667 7C0.466667 3.39173 3.39173 0.466667 7 0.466667C10.6083 0.466667 13.5333 3.39173 13.5333 7C13.5292 10.6065 10.6065 13.5292 7 13.5333Z" fill="#FFC582"/>
<path d="M6.99999 0.933105C3.64946 0.933105 0.933319 3.64925 0.933319 6.99977C0.933319 10.3503 3.64946 13.0664 6.99999 13.0664C10.3505 13.0664 13.0667 10.3503 13.0667 6.99977C13.0629 3.6508 10.349 0.936839 6.99999 0.933105ZM6.99999 12.5998C3.90718 12.5998 1.39999 10.0926 1.39999 6.99977C1.39999 3.90697 3.90718 1.39977 6.99999 1.39977C10.0928 1.39977 12.6 3.90697 12.6 6.99977C12.5964 10.0911 10.0913 12.5962 6.99999 12.5998Z" fill="#FFC582"/>
<path d="M2.56666 6.7666H1.63333V7.23327H2.56666V6.7666Z" fill="#FFC582"/>
<path d="M12.3667 6.7666H11.4333V7.23327H12.3667V6.7666Z" fill="#FFC582"/>
<path d="M3.04371 9.01487L2.23535 9.48145L2.46864 9.88562L3.277 9.41905L3.04371 9.01487Z" fill="#FFC582"/>
<path d="M11.5313 4.11448L10.7229 4.58105L10.9562 4.98523L11.7646 4.51866L11.5313 4.11448Z" fill="#FFC582"/>
<path d="M2.46888 4.11486L2.2356 4.51904L3.04396 4.98562L3.27724 4.58144L2.46888 4.11486Z" fill="#FFC582"/>
<path d="M10.9563 9.01379L10.7231 9.41797L11.5314 9.88454L11.7647 9.48036L10.9563 9.01379Z" fill="#FFC582"/>
<path d="M4.51792 2.23546L4.11374 2.46875L4.58031 3.27711L4.98449 3.04382L4.51792 2.23546Z" fill="#FFC582"/>
<path d="M7.23333 1.6333H6.76666V2.56663H7.23333V1.6333Z" fill="#FFC582"/>
<path d="M9.48098 2.23558L9.0144 3.04395L9.41858 3.27723L9.88516 2.46887L9.48098 2.23558Z" fill="#FFC582"/>
<path d="M1.87642 5.38567L1.75565 5.83643L2.43178 6.01759L2.55255 5.56683L1.87642 5.38567Z" fill="#FFC582"/>
<path d="M11.5665 7.98186L11.4457 8.43262L12.1218 8.61378L12.2426 8.16302L11.5665 7.98186Z" fill="#FFC582"/>
<path d="M3.37023 3.04014L3.04025 3.37012L3.53522 3.86509L3.8652 3.53511L3.37023 3.04014Z" fill="#FFC582"/>
<path d="M5.83533 1.75618L5.38458 1.87695L5.56574 2.55308L6.01649 2.43231L5.83533 1.75618Z" fill="#FFC582"/>
<path d="M8.16316 1.75698L7.98199 2.43311L8.43275 2.55388L8.61391 1.87775L8.16316 1.75698Z" fill="#FFC582"/>
<path d="M10.6298 3.04116L10.1348 3.53613L10.4648 3.86611L10.9597 3.37114L10.6298 3.04116Z" fill="#FFC582"/>
<path d="M12.1245 5.38573L11.4484 5.56689L11.5692 6.01765L12.2453 5.83649L12.1245 5.38573Z" fill="#FFC582"/>
<path d="M2.43178 7.98242L1.75565 8.16357L1.87642 8.61432L2.55255 8.43316L2.43178 7.98242Z" fill="#FFC582"/>
<path d="M7.99 3.16052C5.8685 2.61408 3.70573 3.89088 3.15927 6.01234C2.90038 7.01743 3.04572 8.08396 3.56416 8.98311C3.63194 9.09269 3.77576 9.12658 3.88534 9.05877C3.99028 8.99384 4.02654 8.85842 3.96806 8.74978C3.0027 7.07509 3.57775 4.93493 5.25244 3.96957C6.92713 3.00421 9.0673 3.57926 10.0327 5.25395C10.49 6.04737 10.6182 6.98843 10.3897 7.87525C10.3574 8.00011 10.4326 8.12745 10.5574 8.15968C10.6823 8.19191 10.8096 8.11677 10.8419 7.99191V7.99121C11.3883 5.86975 10.1115 3.70698 7.99 3.16052Z" fill="#FFC582"/>
<path d="M10.4144 8.68592L7.84771 6.58592C7.84071 6.58163 7.83345 6.57772 7.82602 6.57425C7.59178 6.11665 7.03096 5.93559 6.57339 6.16982C6.1158 6.40406 5.93473 6.96488 6.16897 7.42245C6.31944 7.71639 6.61437 7.9086 6.94401 7.92758L10.1873 9.08609C10.2128 9.0953 10.2396 9.09997 10.2667 9.09985C10.3955 9.09982 10.5 8.99535 10.5 8.86646C10.5 8.79649 10.4685 8.73022 10.4144 8.68592ZM7.00001 7.46652C6.74227 7.46652 6.53335 7.2576 6.53335 6.99985C6.53335 6.7421 6.74227 6.53318 7.00001 6.53318C7.25776 6.53318 7.46668 6.7421 7.46668 6.99985C7.46668 7.2576 7.25776 7.46652 7.00001 7.46652ZM7.63585 7.67932C7.76485 7.55848 7.85667 7.40328 7.90045 7.23202L9.07668 8.19312L7.63585 7.67932Z" fill="#FFC582"/>
<path d="M7.93333 9.3335H6.06666C5.42234 9.3335 4.89999 9.85584 4.89999 10.5002C4.89999 11.1445 5.42234 11.6668 6.06666 11.6668H7.93333C8.57765 11.6668 9.09999 11.1445 9.09999 10.5002C9.09999 9.85584 8.57765 9.3335 7.93333 9.3335ZM7.93333 11.2002H6.06666C5.68006 11.2002 5.36666 10.8868 5.36666 10.5002C5.36666 10.1136 5.68006 9.80016 6.06666 9.80016H7.93333C8.31993 9.80016 8.63333 10.1136 8.63333 10.5002C8.63333 10.8868 8.31993 11.2002 7.93333 11.2002Z" fill="#FFC582"/>
<path d="M6.53334 10.2666H6.06668C5.93782 10.2666 5.83334 10.3711 5.83334 10.4999C5.83334 10.6288 5.93782 10.7333 6.06668 10.7333H6.53334C6.6622 10.7333 6.76668 10.6288 6.76668 10.4999C6.76668 10.3711 6.6622 10.2666 6.53334 10.2666Z" fill="#FFC582"/>
<path d="M7.93334 10.2666H7.46667C7.33781 10.2666 7.23334 10.3711 7.23334 10.4999C7.23334 10.6288 7.33781 10.7333 7.46667 10.7333H7.93334C8.0622 10.7333 8.16667 10.6288 8.16667 10.4999C8.16667 10.3711 8.0622 10.2666 7.93334 10.2666Z" fill="#FFC582"/>
</svg>
