<svg width="14" height="15" viewBox="0 0 14 15" fill="none" xmlns="http://www.w3.org/2000/svg">
<g clip-path="url(#clip0)">
<path d="M2.46233 11.5064C2.26633 11.5064 2.07791 11.5584 1.91075 11.656C1.0302 10.4564 0.546875 8.96614 0.546875 7.43945C0.546875 3.65775 3.44168 0.581207 7 0.581207C7.43259 0.581207 7.86496 0.626955 8.28516 0.717201C8.43298 0.748986 8.57739 0.647274 8.6073 0.48994C8.63721 0.332605 8.5415 0.179357 8.39346 0.147459C7.9377 0.049607 7.4689 0 7 0C5.13026 0 3.37236 0.773846 2.05025 2.17896C0.728134 3.58407 0 5.45234 0 7.43945C0 9.11099 0.534058 10.7422 1.50636 12.0499C1.38118 12.2487 1.31389 12.4823 1.31389 12.727C1.31389 13.053 1.43341 13.3595 1.65034 13.5899C1.86717 13.8205 2.15556 13.9475 2.46233 13.9475C2.76909 13.9475 3.05748 13.8205 3.27441 13.5899C3.49135 13.3595 3.61076 13.0529 3.61076 12.7269C3.61076 12.4009 3.49135 12.0943 3.27441 11.8639C3.05748 11.6333 2.76909 11.5064 2.46233 11.5064ZM2.88765 13.179C2.77411 13.2998 2.62297 13.3663 2.46233 13.3663C2.30168 13.3663 2.15065 13.2998 2.037 13.179C1.92335 13.0582 1.86076 12.8977 1.86076 12.727C1.86076 12.5561 1.92335 12.3956 2.037 12.2748C2.15054 12.154 2.30168 12.0876 2.46233 12.0876C2.62297 12.0876 2.774 12.1542 2.88765 12.2748C3.0013 12.3956 3.06389 12.5561 3.06389 12.727C3.06389 12.8977 3.0013 13.0582 2.88765 13.179Z" fill="#FFC582"/>
<path d="M12.4934 2.83227C12.7907 2.35834 12.7429 1.71038 12.3498 1.29252C12.1328 1.06208 11.8444 0.935059 11.5377 0.935059C11.2309 0.935059 10.9425 1.06208 10.7256 1.29252C10.5087 1.52308 10.3892 1.82957 10.3892 2.15559C10.3892 2.48162 10.5087 2.78811 10.7256 3.01867C10.9425 3.24922 11.2309 3.37613 11.5377 3.37613C11.7337 3.37613 11.9221 3.32414 12.0893 3.22652C12.9698 4.42628 13.4531 5.91642 13.4531 7.44311C13.4531 11.2248 10.5583 14.3014 7.00001 14.3014C6.5717 14.3014 6.14338 14.2565 5.72714 14.168C5.5791 14.1365 5.43501 14.2386 5.40532 14.3959C5.37573 14.5534 5.47175 14.7064 5.61979 14.7379C6.07129 14.8339 6.5357 14.8826 7.00001 14.8826C8.86975 14.8826 10.6277 14.1087 11.9498 12.7036C13.2719 11.2985 14 9.43023 14 7.44311C14 5.77146 13.4658 4.1401 12.4934 2.83227ZM11.1124 2.60773C10.9987 2.48695 10.9361 2.32644 10.9361 2.15559C10.9361 1.98487 10.9987 1.82435 11.1124 1.70357C11.2259 1.58279 11.377 1.51627 11.5377 1.51627C11.6983 1.51627 11.8495 1.58279 11.9631 1.70357C12.1976 1.95285 12.1976 2.35845 11.9631 2.60773C11.8495 2.7284 11.6983 2.79492 11.5377 2.79492C11.3769 2.79492 11.2259 2.7284 11.1124 2.60773Z" fill="#FFC582"/>
<path d="M5.87164 12.4387C5.87164 12.5992 5.99416 12.7293 6.14508 12.7293H7.85481C8.00584 12.7293 8.12825 12.5992 8.12825 12.4387V11.8753C8.48778 11.7725 8.8315 11.6211 9.1545 11.4233L9.52876 11.8211C9.58003 11.8756 9.64957 11.9062 9.7222 11.9062C9.79462 11.9062 9.86426 11.8756 9.91553 11.821L11.124 10.5357C11.2307 10.4222 11.2307 10.2382 11.124 10.1248L10.7502 9.72749C10.9362 9.38422 11.0787 9.01892 11.1755 8.63682H11.7036C11.8546 8.63682 11.977 8.50673 11.977 8.34622V6.52915C11.977 6.36864 11.8546 6.23855 11.7036 6.23855H11.1754C11.0786 5.85656 10.9362 5.49127 10.7502 5.14799L11.122 4.75284C11.1732 4.69835 11.2021 4.62434 11.2021 4.54726C11.202 4.47018 11.1731 4.39617 11.1219 4.34168L9.91243 3.05735C9.80573 2.94394 9.63258 2.94394 9.52577 3.05746L9.1545 3.45216C8.8315 3.25441 8.48778 3.10298 8.12825 3.00013V2.44197C8.12825 2.28146 8.00584 2.15137 7.85481 2.15137H6.14508C5.99416 2.15137 5.87164 2.28146 5.87164 2.44197V3.00025C5.51222 3.10298 5.1685 3.25441 4.8455 3.45216L4.47412 3.05746C4.36742 2.94406 4.19428 2.94394 4.08746 3.05735L2.87814 4.34179C2.82677 4.39628 2.79793 4.47018 2.79793 4.54726C2.79793 4.62434 2.82677 4.69835 2.87804 4.75284L3.24985 5.14799C3.06378 5.49127 2.9213 5.85645 2.82452 6.23855H2.29741C2.14638 6.23855 2.02397 6.36864 2.02397 6.52904L2.02301 8.3461C2.0229 8.42318 2.05174 8.4972 2.10301 8.55168C2.15428 8.60617 2.22382 8.63682 2.29645 8.63682H2.82452C2.9213 9.01892 3.06378 9.38422 3.24985 9.72749L2.87601 10.1248C2.7693 10.2382 2.7692 10.4222 2.87601 10.5357L4.08447 11.821C4.13574 11.8755 4.20528 11.9062 4.2778 11.9062H4.27791C4.35043 11.9062 4.41997 11.8756 4.47124 11.8211L4.8454 11.4233C5.1685 11.6211 5.51222 11.7725 5.87164 11.8753V12.4387ZM4.95264 10.8121C4.84444 10.7378 4.70206 10.7539 4.61084 10.8507L4.27791 11.2046L3.45599 10.3304L3.7886 9.97678C3.87972 9.87995 3.89488 9.72863 3.82492 9.61364C3.57701 9.20588 3.4027 8.75897 3.30699 8.28515C3.27986 8.15131 3.16856 8.05561 3.03964 8.05561H2.56999L2.57063 6.81975H3.03964C3.16856 6.81975 3.27986 6.72417 3.30699 6.59022C3.4027 6.11652 3.57701 5.6696 3.82492 5.26185C3.89488 5.14685 3.87972 4.99554 3.7886 4.89871L3.45813 4.54737L4.28069 3.67386L4.61084 4.02485C4.70206 4.12168 4.84433 4.13769 4.95264 4.06345C5.3362 3.79997 5.75671 3.61472 6.20255 3.513C6.32848 3.48417 6.41852 3.36577 6.41852 3.22887V2.73257H7.58138V3.22876C7.58138 3.36577 7.67131 3.48417 7.79735 3.51289C8.24307 3.61472 8.6637 3.79986 9.04726 4.06333C9.15546 4.13769 9.29784 4.12168 9.38895 4.02474L9.71921 3.67386L10.5418 4.54737L10.2113 4.89859C10.1201 4.99554 10.105 5.14685 10.175 5.26185C10.4229 5.6696 10.5971 6.11652 10.6929 6.59022C10.7199 6.72417 10.8313 6.81975 10.9603 6.81975H11.4301V8.05561H10.9603C10.8313 8.05561 10.72 8.15131 10.6929 8.28515C10.5972 8.75885 10.4229 9.20588 10.175 9.61352C10.105 9.72863 10.1202 9.87995 10.2113 9.97678L10.5439 10.3303L9.72198 11.2045L9.38905 10.8507C9.29784 10.7538 9.15546 10.7378 9.04726 10.8121C8.66359 11.0756 8.24307 11.2608 7.79735 11.3626C7.67131 11.3914 7.58138 11.5097 7.58138 11.6467V12.1481H6.41852V11.6467C6.41852 11.5098 6.32848 11.3914 6.20255 11.3626C5.75682 11.2609 5.3363 11.0756 4.95264 10.8121Z" fill="#FFC582"/>
<path d="M9.25937 7.44062C9.25937 6.11638 8.24583 5.03906 6.99998 5.03906C5.75414 5.03906 4.7406 6.11638 4.7406 7.44062C4.7406 8.76487 5.75414 9.84218 6.99998 9.84218C8.24583 9.84218 9.25937 8.76487 9.25937 7.44062ZM5.28748 7.44062C5.28748 6.43688 6.05566 5.62035 6.99998 5.62035C7.94431 5.62035 8.71249 6.43699 8.71249 7.44062C8.71249 8.44425 7.94431 9.2609 6.99998 9.2609C6.05566 9.2609 5.28748 8.44437 5.28748 7.44062Z" fill="#FFC582"/>
<path d="M9.51776 1.10418C9.58975 1.10418 9.66025 1.07288 9.71109 1.01852C9.76193 0.963806 9.7912 0.888422 9.7912 0.81144C9.7912 0.734914 9.76204 0.659416 9.71109 0.604706C9.66025 0.550339 9.58975 0.519043 9.51776 0.519043C9.44556 0.519043 9.37538 0.550339 9.32454 0.604706C9.27359 0.659416 9.24432 0.734571 9.24432 0.81144C9.24432 0.888651 9.27359 0.963806 9.32454 1.01852C9.37538 1.07288 9.44556 1.10418 9.51776 1.10418Z" fill="#FFC582"/>
<path d="M4.4942 13.7852C4.42232 13.7852 4.35172 13.8165 4.30087 13.8708C4.25003 13.9252 4.22076 14.0007 4.22076 14.0776C4.22076 14.1548 4.25003 14.2299 4.30087 14.2843C4.35172 14.3387 4.42232 14.37 4.4942 14.37C4.56609 14.37 4.63669 14.3387 4.68753 14.2843C4.73837 14.2299 4.76764 14.1544 4.76764 14.0776C4.76764 14.0007 4.73837 13.9252 4.68753 13.8708C4.63669 13.8165 4.56609 13.7852 4.4942 13.7852Z" fill="#FFC582"/>
</g>
<defs>
<clipPath id="clip0">
<rect width="14" height="14.8789" fill="white"/>
</clipPath>
</defs>
</svg>
