<svg width="20" height="20" viewBox="0 0 20 20" fill="none" xmlns="http://www.w3.org/2000/svg">
<path d="M3.74052 13.4648H3.73735C3.57555 13.4648 3.44598 13.596 3.44598 13.7578C3.44598 13.9196 3.57872 14.0508 3.74052 14.0508C3.90231 14.0508 4.03349 13.9196 4.03349 13.7578C4.03349 13.596 3.90231 13.4648 3.74052 13.4648Z" fill="#FFC582"/>
<path d="M6.24564 13.4648H6.24252C6.08072 13.4648 5.95111 13.596 5.95111 13.7578C5.95111 13.9196 6.08385 14.0508 6.24564 14.0508C6.40744 14.0508 6.53861 13.9196 6.53861 13.7578C6.53861 13.596 6.40744 13.4648 6.24564 13.4648Z" fill="#FFC582"/>
<path d="M16.5789 13.4648H16.5758C16.414 13.4648 16.2844 13.596 16.2844 13.7578C16.2844 13.9196 16.4171 14.0508 16.5789 14.0508C16.7407 14.0508 16.8719 13.9196 16.8719 13.7578C16.8719 13.596 16.7407 13.4648 16.5789 13.4648Z" fill="#FFC582"/>
<path d="M19.7308 9.92222L19.3369 9.52831L18.5433 7.1476C18.6617 7.10998 18.7475 6.99924 18.7475 6.86842C18.7475 6.70663 18.6164 6.57545 18.4546 6.57545H15.6162V5.30287C15.6162 4.96865 15.3444 4.69678 15.0101 4.69678H0.606095C0.271876 4.69678 0 4.96869 0 5.30287V12.1917C0 12.5259 0.271876 12.7978 0.606095 12.7978H0.939377V13.4441C0.939377 13.7783 1.21125 14.0502 1.54547 14.0502H2.22012C2.35747 14.7627 2.9854 15.3027 3.73739 15.3027C4.25231 15.3027 4.70892 15.0493 4.98989 14.6609C5.27091 15.0493 5.72751 15.3027 6.24243 15.3027C6.99443 15.3027 7.6224 14.7627 7.7597 14.0502H15.0585C15.1958 14.7627 15.8237 15.3027 16.5757 15.3027C17.4279 15.3027 18.1212 14.6093 18.1212 13.7572C18.1212 13.7505 18.1208 13.7439 18.1207 13.7372H19.3939C19.7281 13.7372 20 13.4653 20 13.1311V10.5722C20 10.3267 19.9044 10.0959 19.7308 9.92222ZM2.22012 13.4643H1.54547C1.53434 13.4643 1.52532 13.4552 1.52532 13.4441V12.7978H2.52708C2.37551 12.9887 2.26797 13.2159 2.22012 13.4643ZM3.73739 14.7168C3.20829 14.7168 2.77786 14.2863 2.77786 13.7573C2.77786 13.2302 3.20508 12.8011 3.73141 12.7978H3.74344C4.26977 12.8011 4.697 13.2302 4.697 13.7573C4.69696 14.2863 4.26649 14.7168 3.73739 14.7168ZM6.24247 14.7168C5.71337 14.7168 5.2829 14.2863 5.2829 13.7573C5.2829 13.2302 5.71013 12.8011 6.23646 12.7978H6.24849C6.77482 12.8011 7.20205 13.2302 7.20205 13.7573C7.20201 14.2863 6.77158 14.7168 6.24247 14.7168ZM15.0585 13.4643H7.75974C7.71189 13.2159 7.60435 12.9887 7.45275 12.7978H13.1313C13.2931 12.7978 13.4243 12.6666 13.4243 12.5048C13.4243 12.343 13.2931 12.2119 13.1313 12.2119H0.606095C0.594962 12.2119 0.585939 12.2028 0.585939 12.1917V5.30287C0.585939 5.29174 0.594962 5.28272 0.606095 5.28272H15.0101C15.0212 5.28272 15.0303 5.29174 15.0303 5.30287V12.2119H14.384C14.2222 12.2119 14.091 12.3431 14.091 12.5049C14.091 12.6667 14.2222 12.7978 14.384 12.7978H15.3655C15.2139 12.9887 15.1064 13.2159 15.0585 13.4643ZM18.7787 9.70671H16.8889C16.8778 9.70671 16.8687 9.69769 16.8687 9.68655V8.41385H18.3478L18.7787 9.70671ZM16.5758 14.7168C16.0467 14.7168 15.6162 14.2863 15.6162 13.7573C15.6162 13.2302 16.0435 12.8011 16.5698 12.7978H16.5758C16.5765 12.7978 16.5771 12.7978 16.5778 12.7977C17.106 12.7988 17.5354 13.2288 17.5354 13.7572C17.5353 14.2863 17.1049 14.7168 16.5758 14.7168ZM19.4141 13.1312C19.4141 13.1423 19.4051 13.1513 19.3939 13.1513H17.9974C17.7612 12.5995 17.213 12.2118 16.5758 12.2118C16.5737 12.2118 16.5718 12.2119 16.5698 12.2119H15.6162V7.18167V7.18151C15.6162 7.17038 15.6253 7.16135 15.6364 7.16135H17.9303L18.1525 7.82792H16.5758C16.414 7.82792 16.2828 7.95909 16.2828 8.12089V9.68655C16.2828 10.0208 16.5547 10.2926 16.8889 10.2926H19.2726L19.3165 10.3366C19.3794 10.3995 19.4141 10.4832 19.4141 10.5722V11.2725H19.0808C18.919 11.2725 18.7878 11.4037 18.7878 11.5655C18.7878 11.7273 18.919 11.8585 19.0808 11.8585H19.4141V13.1312Z" fill="#FFC582"/>
<path d="M14.0707 10.96H1.54547C1.38367 10.96 1.2525 11.0911 1.2525 11.2529C1.2525 11.4147 1.38367 11.5459 1.54547 11.5459H14.0707C14.2325 11.5459 14.3637 11.4147 14.3637 11.2529C14.3637 11.0911 14.2325 10.96 14.0707 10.96Z" fill="#FFC582"/>
</svg>
